<mxfile host="Electron" agent="Mozilla/5.0 (Windows NT 10.0; Win64; x64) AppleWebKit/537.36 (KHTML, like Gecko) draw.io/25.0.2 Chrome/128.0.6613.186 Electron/32.2.5 Safari/537.36" version="25.0.2">
  <diagram name="Pagina-1" id="htkNaybufB-m-VRzMAZR">
    <mxGraphModel dx="1290" dy="621" grid="1" gridSize="10" guides="1" tooltips="1" connect="1" arrows="1" fold="1" page="1" pageScale="1" pageWidth="827" pageHeight="1169" math="0" shadow="0">
      <root>
        <mxCell id="0" />
        <mxCell id="1" parent="0" />
        <mxCell id="CM5A4HCsPsa9Lom9aKkC-1" value="" style="shape=image;verticalLabelPosition=bottom;labelBackgroundColor=default;verticalAlign=top;aspect=fixed;imageAspect=0;image=data:image/png,iVBORw0KGgoAAAANSUhEUgAAAg4AAAYqCAIAAAA3q3FdAAAAKnRFWHRjb3B5bGVmdABHZW5lcmF0ZWQgYnkgaHR0cHM6Ly9wbGFudHVtbC5jb212zsofAAACRmlUWHRwbGFudHVtbAABAAAAeJytlM9u2kAQxu/7FKOc4JCojaKohUOTkqQqBRWFwH1iDzCqPWvtrolK03fpA/Qt8mKdNRBMA0Kp6pvn33778/i78AFdKPPMPI4CSaBHU0VM67PwgrFtTKGvHNgKHPXslOUIfhjQRys8OfYJAeXIGRAU6P2DdWl7WTDW9IQThMRRSqLjMl6meAKNziYIiXWOQqAPTQgzEmj4p9/NqrIadJkkWguYgWcf9LT2JjdmX+qIxQJhZvOoYUrLNGWeoCG2NqhvfXAI5Jx19FJWfHywxbJdUp6Yn1sABo7EBlzoC4GezAGfcQwpo5hAyCnlxCqPFAP+zSJlX1jhe844PP2CCfqEEaxDx7iBc1MP13r2Edp8i6ImsYapY2VCLscd+YOctiW399Lp23R5xzqmHXzqEpQR5Ks+RwdgSWnn+L+QXU6nbJ3sIrJNbC3vn2jt17yL4HXGOcurAdKy7SU/qv4XWey6ZGS2tc/BqdKAe3CtpR2itdLymv3auo4oh5WS/ZzUiGwZnsnccjLj6BBZFV9RuFM9UbEn76vRZeVwa0Yb31DLiHUpx36WdjyssoELPTt6oxlkKGHU78GcXJwFb09O35yenby/p4DnjZF8E/sgamN5oQsHgXNqmsanQQ+8LV1SLUVwfF9G+U3TRV2J21JiXQu+FiTdqy/rAFzLnJ2VXMWa7ri/KTg/O/7IAYbkVAaM++aKJlhmQTsS3VGZtmB0d3P8zvRQpqX6YEvhmY7Vue675obmD35Q8GCuVwzJAACAAElEQVR4XuzdeVxVZf4H8KapTB3H3FlFRRHcEjVzSklb0FERs1ybNM3KBUvHRDMW0xQEDCfFBXFHUcQFQbHUaRwVcCkNUkjEBRcghMvFnLHJ5Pf93Wd45vjchQN34Z57P+8/eJ3znOcs95zD93POPdzLY5UAAAAGPSY2AAAAPApRAQAA1UBUAABANRAVAABQDUQFAABUA1EBAADVQFQAAEA1EBUAAFANRAUAAFQDUQGKUVFRsXPnzvfff9/Hx6djx449evTw9fUNCgo6ceKE2BUATApRAQrw8OHDTZs2UTa00+ONN944d+6cOBsAmAiiAqzdvXv3PvjgAzEctNB9Bt1ziDMDgCkgKsCqPXjw4J133hFjQb99+/aJiwAAoyEqwKotX75cTAODvLy88vLyxKUAgHEQFWC9ioqKOnfuLKZBdd577z1xQQBgHEQFWK9ly5aJOSDPlStXxGUBgBEQFWC9Bg4cKIaAPLGxseKyAMAIiAqwUv/+97/d3d3FEJBnxowZ4uIAwAiICrBSBQUFYgLINmrUKHFxAGAERAVYKUQFgPVAVICVwhtQANYDUQHWC4+1AawEogKsF/5YFsBKICrAeuEjeABWAlEBVg1f7AFgDRAVYNXwdYEA1gBRAdYOX0IOUOcQFaAA+NdGAHULUQGKgX+YClBXEBWgSA4ODmITAJgNogIUCVEBYEmIClAkRAWAJSEqQJEQFQCWhKgARUJUAFgSogIUCVEBYEmIClAkRAWAJSEqQJEQFQCWhKgAZSgqKpKOClEhTAUA00JUgDLEx8enp6fzUWlUUDtN5aMAYHKIClAGlUrl5eW1evVqNsqj4vjx4+3bt6ep/+sKAKaGqADFCAgIcHFx+eKLLyqrooJywtnZedy4cWJXADApRAUoRmZmppOTE4UEpQX9pJxo3bq1o6MjtYtdAcCkEBWgJD4+Pj169HDQcHNzo5/dunUTOwGAqSEqQEliY2OHDh3KooI4OzuvWLFC7AQApoaoACVRqVQeHh4dOnRgUdG6dWs80AawAEQFKExAQMCwYcNYVOCBNoBlICpAYTIzM59//nnKCTc3NzzQBrAMRAUoj4+PjwMeaANYEKIClCc2NpaiAg+0ASwGUQF17/bt21u3bl2isViGkJAQigr6KU7QgxYbFhYWHx+Pr4oCqB1EBdSlEydOBAUF0f1Bdna2uiZSU1PFpurQKmhFtDrpd0kBgByICqgbFRUVVLWTkpLEim5+tFK6I7l79664TQCgB6IC6sC1a9cCAwMLCgrEKm4ptOq5c+fST3HLAEAXRAVYGlVqyonS0lKxflsWbcC8efPo5kbcPgDQgqgASwsODq7D+wkp2owFCxaI2wcAWhAVYFEnT56sk+cT+tDGZGRkiFsJAI9CVIBFBQUFlZeXiwW77tDGhISEiFsJAI9CVIDlFBYWxsTEiNW6rq1ateqnn34StxUAJBAVYDlbt26t6ecnLIA2afv27eK2AoAEogIsJywsTKzT1mHp0qXitgKABKICLGfJkiVika6hnJyckpISsbWK4akGICoADENUgOUsXrxYLNKPeuutt/bt2ye2Sri6uv7jH/8QW6sYnmpAeHi4uK0AIIGoAMupNiq8vLxiY2PFVokjR47cunVLbK1ieKoBiAoAwxAVYDk1iorAwMCTJ09OmTLF39+fN86fP//ixYs0cPz48akS7CkIn5qQkDB+/PihQ4fOnDnz8uXL/126fogKAMMQFWA5NYqKli1bent7b9y4ccuWLU2bNt2/f79a8hZTbm7uzirdunUbPXq0dOrChQup/fDhwxQVnTp1Kisr+986dEFUABiGqADLqWlUbN26lQ3TfcOsWbPUup5GUCp07dr19u3bwtQ7d+7QHca5c+ecnJxOnTolnUUbogLAMEQFWE5NoyI9PZ0NBwUFTZo0Sa0VFZQlzs7OOTk5bJRPnTNnDiVEv379Bg4c2KhRo5SUFD6LTogKAMMQFWA5NY2KjIwMNkxRMXHiRPWjUXH06NHmzZufOHGCjfKpdA/RokULdp9BHB0dk5OTeR+dEBUAhiEqwHJMGBVZWVkODg6JiYlVs/4/NvWbb76heYuLi6ll8+bNjz32GKICwEiICrAcE0ZFcHBwvXr12lbx9/fnU8vLy/38/JycnLp3704Dnp6eiAoAIyEqwHKqjQoTysnJyc3NFVv1QFQAGIaoAMsx/os9zARf7AFgGKICLAdfFwigUIgKsBx8CTmAQiEqwHLwr40AFApRARaFf5gKoESICrCokydPJiUliQW77tDGZGZmilsJAI9CVIClBQcHFxQUiDW7LtBmLFiwQNw+ANCCqABLU2u+YLy0tFSs3JZFGzBv3ryKigpx+wBAC6IC6sC1a9coLerw3oJWPXfuXPopbhkA6IKogLpBl/NBQUF18tyCVhoSEnL37l1xmwBAD0QF1KUTJ05QYKxYscICn7egVdCKgoOD09PTxe0AAIMQFVD3CgsL4+Pjw8LClixZslgeBwcHsUk/WiwtnFZRVFQkrhsAZEBUgCJRVIhNAGA2iApQJEQFgCUhKkCREBUAloSoAEVCVABYEqICFAlRAWBJiApQJEQFgCUhKkCREBUAloSoAEVCVABYkrVEhUql+saapKSkREdH009xAlgHigqxCaC2ysvLxZIEj7KWqKCj9RiAbBQVYhNAbf3jH/8QSxI8yrqiYvny5f+wDrQlVrU9IKCoEJsAai46OhpRIYd1RYX1HDC2PfRTnADWAc8qwCSsrfJYLUSFbogKK4eoAJOwtspjtaw3Kq5evZqbmyvpUnt0j7l582ax1SBEhZVDVIBJaFce0Ml6o2LChAkvvfTS/3oYYcyYMX/961/FVoMQFVYOUQEmoV15QCe7iIpaQFRYOUQFmIR25QGdFBkVGzZs6N+//7PPPvv222/n5eWxxt9++y08PLxXr159+/bdvHnzypUr165dyyZFRUXRLGz4888/3759O03605/+5OPjw9sFiAorh6gAk9CuPKCT8qLib3/7W/369aOjo9PS0oYNG9a8efPS0lJqDw0NfeaZZygDDh48OGjQICol7777LpvF399/+vTpbPiVV15xdXUdM2ZMcnLykiVLHn/88SNHjvCFc4gKK4eoAJPQrjygk8Ki4tdff23SpElkZCQfdXNzCw4Ovn//fqNGjWJjY1n7v/71L4oQfVHRs2fPhw8fstGBAwfySVKICiuHqACT0K48oJPCoiIvL4+6ZWdn85ZJkyYNHTo0JyeH2i9dusTb//znP+uLio8++oh3mzp16ogRI/goFxAQQAs8fvy4OAGsA6ICTEK78oBOCouK8+fPU7f8/HzeQjV9wIABWVlZ1H716lXePmzYMH1RMXfuXN6N2mkqH2VmzpxJS6OfQjtYD0QFmIR25QGdFBYVFRUVv/vd7/bt28dbfHx8Jk+e/PPPPz/xxBO7du1ijQ8ePGjdunXtogI5oQiICjAJ7coDOll1VDz33HM5Ejdu3KD2sWPHPvvss4WFhTQcHx9PyXHq1Ckafv/9993d3dPT0wsKCj788MOGDRvWIiqQE0qBqACT0K48oJNVR8Vjjxo4cCC1FxcX093G448//swzzzRo0CA6Opr1v3v37vjx4//whz80bdo0MDBw+PDhs2fPZpNkRgVyQkEQFWAS2pUHdLLeqDCM7jCysrLu3bsnTtB48OBB27ZtV69eLU7QDzmhLIgKMImaVh67pdSo0Pbdd9/FxcVlZ2dnZma+9dZbzZs3l//vSpATioOoAJMwvvLYCduJigsXLvj6+rZr165jx46jR4/mn+KuFnJCiRAVYBLGVx47YTtRUTvICYVCVIBJ1FXlURxriYqUlJTHNP917hsLYp+zQ04oEaICTOIbRIU81hIV7N8WWh5yQqEQFWASiAqZrCUq6uSuAt/boVyICjCJbxAV8lhLVOCAQY0gKsAkUHlkQlSAIiEqwCRQeWRCVIAiISrAJFB5ZEJUgDIUFRVJR4WoEKYCyITKIxOiApQhPj4+PT2dj0qjgtppKh8FkA+VRyZEBSiDSqXy8vLau3cvG+VRQTnh4eFBU//XFUA2VB6ZEBWgGAEBAS4uLklJSZVVUUE50bp169dff13sCiAPKo9MiApQjMzMTCcNSguKCsoJd3d3R0fHkydPil0B5EHlkQlRAUri4+Pj4eFBaUFR0b59e8qJTp06iZ0AZEPlkQlRAUoSGxv7yiuvOGhQTtDPiIgIsROAbKg8MiEqQElUKlWHDh1cXFxYWtAAHmiDMVB5ZEJUgMIEBAT079+fRQUeaIORUHlkQlSAwmRmZvbs2ZPdUuCBNhgJlUcmRAUoj4+PD0UFHmiD8VB5ZEJUgPLExsbigTaYBCqPTIgKxSsoKNi0aVN4eHiY3QgNDaWooJ/iBJtGh3jz5s03btwQzwAwAiqPTIgKpXrw4EFiYmJISEhcXFxubq7azqSmpopNdoAONB1uysikpCQ6AcRzAmoOlUcmRIUinT59et68eZmZmWItAftAh37+/Plnz54VzwyoIVQemRAVyhOnIRYPsD8bNmxYv369eH5ATaDyyISoUJg1a9YcOXJErBlgr+gXJzY2VjxLQDZUHpkQFUqyZ8+e5ORksVqAfUtNTeXfzQ41hcojE6JCMcrKypYsWSLWCQC1Ojw8nE4P8YwBGVB5ZEJUKEZERMSNGzfEIgGgVt++fTsyMlI8Y0AGVB6ZEBXKcP/+/aVLl4oVAqAKRQWdJOJ5A9VB5ZEJUaEMaWlpJ0+eFMsDQJXMzEw6ScTzBqqDyiMTokIZ6JpRrA0AEj///HNUVJR43kB1UHlkQlQoQ0REhFgbLCUnJ6ekpERstSZ8C61/U2vnuobY+qi7d+8iKmoBlUcmRIUyyHlQ8dZbb+3bt09sNZqrqysdF7HVmvAttP5NrZ0ZM2bMnDlTbNWCqKgFVB6ZEBXKICcqvLy8YmNjxVajHTly5NatW2KrNeFbiKgQzxuoDiqPTIgKZahRVAQGBp48eXLKlCn+/v7S8EhNTR07duyQIUM++OCDrKwsaikvL1+xYsXIkSMnTJhAh4B1o9mPHz9Os48aNYpG58+ff/HiRX1LUKlUtITRo0ePGDFi5cqVrJvOxUrp7EDrPXHiBC3Zz89vx44dJSUlQUFBNEyvnfqzPgkJCePHjx86dCiVzsuXL7NGvoX6okLn6qRo1TTju++++8Ybb8THx7NGnetS69oJQktaWtratWtZ50WLFq1fv54NL1iw4Pvvv6cBemnUPnz48KlTp2ZnZ7Opwm4vKiqiFnr5YWFh06dPR1SYCSqPTIgKZahRVLRs2dLb23vjxo1btmxp2rTp/v37qZFKUvPmzbdu3UrX4DExMVSUqZFKp6+v74EDB6izg4MDa6TZu3btum7duqSkJLWk/upcwrhx4/r06bN7925ayOLFi9mW6FyslM4OtN6ePXtSpV69enX9+vWpSlLto21wc3Pj1XbhwoU7d+48fPgwlc5OnTqVlZWpZbwBpXN1UrRqWhqtetu2bU5OTps2bVLrWZf2TtBuoVnatm2r1pT7xo0bd+7cmYZv3Ljx9NNPs7ufwYMHDxo0iLYnNDSUDlBeXh7bBuluf+211yhLDh48OGfOnCZNmiAqzASVRyZEhTLUNCqocrFGum6dNWsWDdClbrt27QoKCnh/uv5t0KABlTM2SpWRSqpaMzsVLN6N11/tJZw/f57K35UrV3iLWv9iq+1A6+VX9AMGDKArdDYcEhIiXcKdO3foHuLcuXNU00+dOqWuLir0rU6KVs1viVatWtWrVy82rL0u7Z2g3VJaWtqoUaMffvhh3759w4YNo6l0U7J9+/bnn3+epp45c4aCkH+aku5a6K5I/ehuP336dMOGDQsLC9kohTGiwkxQeWRCVChDTaMiPT2dNQYFBU2aNEmteafoL3/5CxWgF154ITw8vKSkJDExsV69ejSXp6dnx44dnZ2d6dKbzS697ub1V3sJdNFN8/KejL7FVttButkjRozgf/QVHR3t7+/PhukSm6p2v379Bg4cSOU4JSVFXV1U6FudFK2az3j8+HG6ilfrWZf2TtBuoW5007BixQqq71988cU777xDd0WUfIGBgTRpx44dtDF81Z9++il7x0m62xMSErp06cL7TJ48GVFhJqg8MiEqlKGmUZGRkcEaKSomTpzI+9y+fXvXrl1UhuhK9uuvv6ZSyCdx0tnVWvVXuoTDhw9TZz6J0bdYTl8H6XopKvhHSSgq6NqcBui6vkWLFrQBrN3R0ZF9eaLhqNC3OilaNf8extTU1DZt2uhbFyPdCTpbwsLC3njjjR49enz77bebNm0aP348BdWBAwfUmrsQWhpf1LRp095//331oy//4MGD9Fp4n5EjRyIqzASVRyZEhTIYHxU//vgjf9Pjww8/pMbi4mI3N7cvv/ySNdIoe0irLyp0LoGm8iVcvXpVrVmOzsVy+jpUGxV0klAf6k/DmzdvphNGTlToW50ULXb48OHlGq+//jpdxetbl/ZO0G6hAbo9olsTVu5pt1Dq1K9fn91wFBYWtqx6qy0vL69Vq1bs4YT05VOf5s2b79mzh4YvXrxI9zSICjNB5ZEJUaEMxkcF1R0qXt01qOe5c+eo8cSJE507d27fvr23tzdd6q5atUqYXS2pvzqXQAfO3d3dw8ODLqj79u3LZtG5WCmdHaqNCqrjfn5+dItAG0ADdJ0uJyrUelYnRaumeOjYsSO9lt69e1+5ckXfurR3gnaLWrOptMyxY8ey5Xfr1u3ll1/mq0tJSaEld+3atWnTph9//DFrFHY73aM0a9aM7ktoy4cMGYKoMBNUHpkQFcogJyqqRVe133//fU5ODv/bUyY/Pz87O/vOnTvSRp30LSE3N5capS1qGYuttoNOtKLa/S9xA6tjZbqgoEB4FTrXpb0TtFuqRT1/+OEHdteiD23q+fPnS0tLxQl6ICpqAZVHJkSFMtThF3vYA+GKXokqKioQFbWAyiMTokIZEBVmtWjRIumH7JQI3wFVO6g8MiEqlCE5OZn9XT+ATt9+++3+/fvF8waqg8ojE6JCGe7du4fvIQcDli1bRieJeN5AdVB5ZEJUKMaiRYt0PpIFoBNjyZIl4hkDMqDyyISoUIzLly+vWbNGLBIAavW6devo9BDPGJABlUcmRIWSREREXLp0SawTYN/y8vLwQLvWUHlkQlQoyf379wMDAw3/MT7YFToZ5s2bRyeGeK6APKg8MiEqFKaoqIhKA9IC1JqcmD9/Pp0S4lkCsqHyyISoUB72T2/YPzkAu3X58uW5c+ciJ4yEyiMTokKR7t+/HxERsWbNGvxNlB2igx4bGxsZGYn3nYyHyiMTokLB8vPzFy1aFBUVhU/n2YnTp08vW7bs888/p0Mvng1QK6g8MiEqFO/evXvJycmRGhF2w8HBQWyyaXRw6ZqADjQ+Z2daqDwyISpAkSgqxCaAmkPlkQlRAYqEqACTQOWRCVEBioSoAJNA5ZEJUQGKhKgAk0DlkQlRAYqEqACTQOWRCVEBioSoAJNA5ZEJUQGKhKgAk0DlkQlRAcogfIOFEBX4fguoHVQemRAVoAzx8fHp6el8VBoV1E5T+SiAfKg8MiEqQBlUKpWXl1dSUhIb5VFBOeHh4UFT/9cVQDZUHpkQFaAYAQEBLi4uO3furKyKCsqJ1q1bjxgxQuwKIA8qj0yIClCMzMxMJw1KC4oKyol27do5OjpK35gCqBFUHpkQFaAkPj4+np6elBYUFe7u7vSzc+fOYicA2VB5ZEJUgJLExsa++uqrDlXoliIyMlLsBCAbKo9MiApQEpVK1aFDB1dXVxYVLi4ueKANxkDlkQlRAQoTEBAwYMAAFhV4oA1GQuWRCVEBCpOZmdmzZ092S4EH2mAkVB6ZEBWgPD4+Pg54oA2mgMojE6IClCc2NpaiAg+0wXioPDIhKuC/CgoKNm3aFKYEoaGhFBX0U5xglcLDw7dt21ZcXCzucbACqDwyISrs3YMHDxITE4ODg+Pi4nJzc9UKkZqaKjZZsezs7BUrVgQFBeHhirVB5ZEJUWHXTp8+PW/evMzMTLG2gXkkJSVRKt+9e1c8ElBHUHlkQlTYrzgNsZiBmRUUFAQGBl6/fl08HlAXUHlkQlTYqTVr1hw5ckQsY2ARpaWllBYVFRXiUQGLQ+WRCVFhj/bs2ZOcnCwWMLAgurcICQkRDwxYHCqPTIgKu1NWVrZkyRKxdIHFJSUlnTx5Ujw8YFmoPDIhKuxORETEjRs3xLoFFldeXh4UFCQeHrAsVB6ZEBX25f79+0uXLhWLFtSRmJiYwsJC8SCBBaHyyISosC9paWknT54UKxbUkezs7K1bt4oHCSwIlUcmRIV9iYyMFMsV1KklS5aIBwksCJVHJkSFfYmIiBBrlUnl5OSUlJSw4bKyMhq9efOm0F5XrmuIrbVi+OVIpxruqUZU1DVUHpkQFfal2gcVH3zwgfC5vGPHjvn6+paWlkob9XF1daWDSANfffWVo6Njjx492NJ4ex2aMWPGzJkzxdZaMfxypFMN9ySLFy8WDxJYECqPTIgK+1JtVFCH7t27S1veeeedsWPHSlsMOHLkyK1bt2jgrbfeWrRokXZ7HTJhVBh+OdJ4MNxTjaioa6g8MiEq7Eu1UXH16tWnnnoqPT2djRYXFzdu3PjAgQNqzR93rlixYuTIkRMmTKDjxToEBgYeP358ypQpo0aNotH58+dfvHhx+fLlbdq06d+//9SpUy9dusTbaUClUtFCRo8ePWLEiJUrV7KFJCQkjB8/fujQoVTKL1++zBqltOcS1qtz20hRURH19PPzCwsLmz59OosKfZ2p58mTJ2mZ/v7+sbGx1EKrmCpBC2E9+cvRueXSqOA99UFU1C1UHpkQFfal2qggw4cPp6rKhtevX09Fn2orDVNh9fX1pdjYuHGjg4PDiRMnqLFly5Zdu3Zdt25dUlKSuqpKHjt2rHfv3tOmTdu9e/ft27d5Ow2MGzeuT58+1E7LoSrJ1rJw4cKdO3cePnyYCm6nTp3KyspYO6c9l7BendtGXnvtNXo5Bw8enDNnTpMmTVhU6OtMy/T29qbGLVu2NG3adP/+/bm5uTurdOvWjbKK9eQvR+eW4w0oBUHlkQlRYV/kRAUV3xYtWty5c4eGX3755U8//ZQGsrKyGjRoQBfprA+VSCq4ak15pXrN5+WVcciQIV9++aXQfv78+aeffvrKlSu8naPV0dX3uXPnnJycTp06JZ2kcy7pevVt2+nTpxs2bFhYWMjaKWyooOvrrNYsc+vWrWyY7iFmzZrFhlk3SiYWe+pHA0B7yxEVCoLKIxOiwr7IiQqVSkVVb/v27Tk5OU888cSFCxeoMTExsV69el5eXp6enh07dnR2dqYLc7WmvPKrcnV1UUEX4DQ7b+Tokp/W2K9fv4EDBzZq1CglJUU6Vedc0vXq27aEhIQuXbrwWSZPnkxRoa8zWyZ/5y0oKGjSpElsmPKDutHeYKNqycvUueWICgVB5ZEJUWFf5EQFmT17NtX6kJCQ/v37s5avv/6aauKjvf4fldeMjAw+ajgqDh8+TP15I0NX4nQTwy/YHR0dha8y1DmXdL36tu3gwYO0Xj46cuRIigp9ndWPLpOiYuLEiTRw9OjR5s2bS+NQXfVy9G05okJBUHlkQlTYF5lRcf78+SeffNLFxWX9+vWspbi42M3NjVd/Gs3KylLXMCpoLhrg7VevXqWfdOhpITSJhjdv3kyngRAVOueSrlffthUWFlKV37NnDw1fvHiRrvopKvR1VuuKCprk4OBANyKskWMvR9+WIyoUBJVHJkSFfZEZFeTFF19s3Lgxq4MMXVl37ty5ffv23t7edAW9atUqdQ2jQq0JBnd3dw8Pjy5duvTt21et+XskPz8/utLv3r07DXh6emp/Qbr2XMJ6dW4b2bVrV7NmzXr06EFTaZPYY219nbWjIjg4uF69em2r+Pv7s6ns5ejbckSFgqDyyISosC/yo0Kf/Pz87Oxs9tC71nJzc6Vv/as1n2qu9j97a88l0LltNEo3SdofIdTZuRbkbLkBiIq6hcojE6LCvpj7iz2gphAVdQuVRyZEhX1BVFgbfAdU3ULlkQlRYV+Sk5OFTy1AHcrNzd24caN4kMCCUHlkQlTYl3v37uF7yK1HXFzctWvXxIMEFoTKIxOiwu58/vnnxj/LBZMICQl5+PCheITAglB5ZEJU2J3Lly+vWbNGLFpgcRkZGTt27BAPD1gWKo9MiAp7FBkZyb7wFerQ3Llzf/31V/HYgGWh8siEqLBH9+/fDwwMlH68DiwsLi7u9OnT4oEBi0PlkQlRYaeKiormzZuHtKgTR44ciY2NFQ8J1AVUHpkQFfaL/dufvLw8sZKBOe3bt2/t2rXiwYA6gsojE6LCrt2/fz8iIoIqF/4mygJu3ry5ePHivXv3iocB6g4qj0yICqjMz89ftGhRVFQUPp1nJidPngwPD4+MjFSpVOLehzqFyiMTogL+6969e8nJyRQYVNEirJ6Dg4PYZJVoZ9IuTUtL++WXX8Q9DlYAlUcmRAUoEkWF2ARQc6g8MiEqQJEQFWASqDwyISpAkRAVYBKoPDIhKkCREBVgEqg8MiEqQJEQFWASqDwyISpAkRAVYBKoPDIhKkCREBVgEqg8MiEqQBmKioqko0JUCFMBZELlkQlRAcoQHx+fnp7OR6VRQe00lY8CyIfKIxOiApRBpVJ5eXklJiayUR4VlBMeHh74wgyoHVQemRAVoBgBAQEuLi7bt2+vrIoKyglXV9c33nhD7AogDyqPTIgKUIzMzEwnJydHR0dKC4oKyol27drRqPSNKYAaQeWRCVEBSuLj4+Pl5UWBQVFBOUE/O3fuLHYCkA2VRyZEBShJbGzsa6+95lCFbimioqLETgCyofLIhKgAJVGpVB4eHq6uriwqXFxc8EAbjIHKIxOiAhQmICDglVdeYVGBB9pgJFQemRAVoDCZmZm9evVitxR4oA1GQuWRCVEByuPj4+OAB9pgCqg8MiEqQHliY2MpKvBAG4yHyiMTogL+q7y8PCQkJEwJQkNDKSropzjBWtGmqtVqcY+DFUDlkQlRYcuoPL355pslJSXiBC2UE7Nnz75586ZaIVJTU8UmK0Y7NjAwUI20sD6oPDIhKmzc6dOnX3/99d9++02cIKG4nFAipIV1QuWRCVFhm27fvl1QUMASIi8v71//+pfYowpywmKqTYtff/21UvOF6nRQpO3/+c9/aN6HDx9KG8EkUHlkQlTYGqpEzz//fP/+/X19ffv160ct9erV+/e//y3200BOWJjhtKBfgWnTpvn4+Dg6OsbExLDGuLi4Nm3avPrqqx4eHmfOnHl0DjAWKo9MiApbs2/fvjfffJMNP3jwoFJ/VCAn6oSBtKBfgT179tBAfn5+q1ataODGjRvNmjUrLCyk4aSkpG7dugmzgJFQeWRCVNia69evOzk5vfXWW1u3bq2oqKjUExXIiTqkLy3oV+CXX35hw/Xr16fh3bt3Dxo0iLX89ttvTz31lPZcYAxUHpkQFTaIEmLXrl0TJkxo167dv/71L+2oqDYnaNK5c+eKi4vFCfLExcWJTTW3fv16lUoltlbhUw13qyu0h3Nycq5evSpOqKIzLehXgA83bNiQjhrdSfz5z39mLSwqWPyDqaDyyISosDVUN9nzT/pJtxdXrlwRosJwTty4ceP1119v1qxZr169HB0d/fz8ahEYv//978Wmmmvbtu1PP/0ktlahF8U2zHA3E/L19eWZJB3W9sMPP3h5efXu3btVq1Yff/yxOLmKdlpoRwXegDI3VB6ZEBW2ZufOne7u7oMHD/b29p48eXLlo29AGc4J8uqrr44aNYrHw5YtW1jn0tJS+pmXl3f9+nU2iWolXTizdoYq2qVLl9SPRoV2N74oqoOshbaqVIJGqbGsrIzPQoH3448/8lG1JCqk3Tha6cWLF2/dusVb7ty5Q5vBlswIr0gYFTabRulFUSZRi3SYL03an7Y2NzdXrckM6llSUsK7CYS00I6KSs1j7datWw8YMKBDhw54rG1yqDwyISpsEJUYqlbCH1xWysiJ06dP169fv6CgQJygVtPRmTBhwvPPPx8VFUWj27Zta9++PeUKxVJiYiK1REZGOjs7v/TSS+PHj+dRod2NLYoy7MUXX3RwcFi2bBm1JCQk9Kry5JNP7tq1Sy0JAx+Nfv36de7cmQKALYRP5QMcxRvV1ldeeYWuwXfs2EEtK1asoJb+/fvTxtA5xroJr0g6qr3Zs2bNog60zX379p0xYwYfLioqUut5mWTDhg10e8FHddK+t9CGP5Y1H1QemRAV9qLanCAbN27UV9ro6PAnEJcvX3ZxcaELcBq+cOECJUR2dnaLFi0on9SausyiQrsbu+imRcXHx9PA999/37Jly6o1/L/w8HCqv+wynGcAK8ds6tSpU9mwvqigm49mzZqdP3+ejdKi6GK/adOm7HZn69atlDdskvQVSUf1bTa9KH4bIR3W13///v1t2rQ5d+4c62aAnLQAM0HlkQlRoRjsPzQYg1+S60NR0alTJ7FVg44OL9nbt293dXWdUeWZZ56hWwo/Pz82lQofiwrtbt999x1bFH9Phm5i+DDdW1BQ8Te4eAZQrgwePLh37960ba+99powVYgK6vzyyy/zUdZC1/tsWKVSPfXUUywvpa9IOqpvs/VFhb7+dIdEafHfpVcnNzdXPFo1J54xIAMqj0yICsUwshZQPaJLV8N3FYbfgOLDVHypDh6SoOtx7ajQ7lZYWCgsqkGDBqzQHzt2zM3NLSsri09iGZCZmdm2bVu6/6CWxMTEl156STpVOsBoRwXdSfCAYVHBnmFIN0M6qm+z9UWFvv4+Pj7Sl2MA9Z83b57auLsKI08Pu4XKIxOiQjGMrwVqGWlBVVX6WJvqLL8G531+/PHHli1b8rdWrl27Rvcr1ML+NjQmJoZFhXY3NqAdFRcuXGjTps2RI0d4u7oqA3bt2tW3b1/WMmbMmGqj4tKlS02bNmXX9erq3oDic0lH9W12kyZN8vPztYf19ad18TskA0ySE5WmOD3sEyqPTIgKxTBJLVBXlxY3btwYMWJEixYtnnvuOUdHx9dff539KapQWOlSmm4CqHBTN7qmVmseJLi4uAwYMODtt9/mj7W1u6l1RcWsWbOeeeaZ7lXowlxdlQFFRUU9evR4/vnne/fuPXr06GqjgmzevNnZ2bl///7dunXbuXOnWvP4hLatX79+7u7u/5A81pbOJdw2aW92UFBQu3btvLy8aJOkw/r6U36cOHGCL1MnU+VEpYlODzuEyiMTokIxTFUL1NWlBbl9+3ZWVpbhzyuwT5mxR9kM+45CSZf/p92tptgS7ty5I07QT6VS0Z0KbQ9v0f5jWcNqutk17a82aU5Umu70sDeoPDIhKhTDhLVALSMtwKxMmxOVJj097Aoqj0yICsUwbS1QIy3qjslzotLUp4f9QOWRCVGhGCavBWqkRV0wR05UmuH0sBOoPDIhKhTDHLVAjbSwLDPlRKV5Tg97gMojE6JCMcxUC9RIC0sxX05Umu30sHmoPDIhKqxXUVGRdFSoBcJUY6iRFuZn8pyw2Olh21B5ZEJUWK/4+Pj09HQ+Kq0F1E5T+ajx1EgLczJ5TlRa9vSwYag8MiEqrJdKpfLw8Dh+/Dgb5bXg0KFDHTt2pKn/62oKVMg+++yzCDCDhQsXmjYnKqtOD54W/PRISkry9PQ0+elhq1B5ZEJUWLXJkyc7OzuztGC1gHKCWqZPny52BfszatQoV1dXlhbs9EhMTHRxcQkICBC7gh6oPDIhKqxaZmamo6Nj69atKS2oFlBOUCFwcnKidrEr2J+MjAw6Pdq2bUtpQacH5YSTBk4P+VB5ZEJUWLtevXpRFaC0oJ8sJ1544QWxE9irrl270onRrl07+knnRocOHXx8fMROoB8qj0yICmu3du1ad3d3hyo9evSIjY0VO4G9io6OpoTgp8eAAQNwetQIKo9MiAprp1Kp2rRpw2sBxQaeWAJHJ4Orqys7N5ydnemuAqdHjaDyyISoUIDJkyezK0dPT0880AbBqFGjWFT4+PjggXZNofLIhKhQgMzMzPbt21Mt6NKlC55YgiAjI4M9yurRowdOj5pC5ZEJUaEM7OE2HmiDTuzhNh5o1wIqj0yICmVYu3Yt1QI8sQSdoqOjcXrUDiqPTIiKyoKCgk2bNoVZt9DQUKoF9FOcYE3Cw8O3bdtWXFws7uI6pYjjayRFnB5GorNr+/btP/30k3iAjVOHlUdZ7DcqHjx4kJiYGBISEhcXl5ubK3xpjxVKTU0Vm6xPdnb2ihUrgoKCpF9PVCcUd3yNpIjTw0h0dq1cuZKOaUZGhni8a8vylUeh7DQqzpw588knn2RmZoonI5hIUlJScHDw3bt3xV1vETi+to3OLrqFMsnZZeHKo1z2GBXrNcSzD0ytoKAgMDDw+vXr4gEwMxxfe0Bn17x58+inePhryJKVR9HsLirWrl179OhR8bwD8ygtLaW0qKioEA+D2dDx/fvf/y5uB9giOrsoLYw8uyxWeZTOvqJi7969+/fvF884MCe67gsJCRGPhHng+NobOrs+++wz8TyoCctUHhtgR1FRVlYWFhYmnmtgfklJSRZ4yk3HNzw8XFw32Lrdu3cb88FDC1Qe22BHUREZGYn/8lYnysvLg4KCxONhaji+9onOrtDQUPFskM0Clcc22EtU3L9/PyIiQjzLwFJiYmLM+t+ecXzt2erVq2v9eQtzVx6bYS9RkZaWlpGRIZ5iYCnZ2dlbt24Vj4rp4PjaMzq7tm/fLp4T8pi78tgMe4mKqKioiooK8RQDCwoLCxOPiunQ8b179664SrAbS5cuFc8JecxdeWyGHUWFeHLVhesaYmtN5OTklJSUiK1aZHazpCVLlohHxXSs5PjaPONPYK7aU5R3qLanGlFhfvYSFZGRkeLJpcesWbOGDh1aXl4uTjCFGTNmzJw5U2ytCVdXV9pLYqsWw91WrVqVn58vtprZ4sWLxaNiOnKO71tvvdWvX7+CggLe8tFHH/Xt2/fcuXOSXtWrk71nJYw/gTnDp6ha0qHaniQ8PFw8J+Qxd+WxGYiKR1y7dq1BgwZOTk5m+kYd43/T5PzakCNHjty6dUtsrUIvUM5CTKvOo8LLy6tFixbR0dFs9OrVq61atXryySdPnDjxaMdq1MnesxLGn8Cc4VNULTnVq+2pRlSYH6LiEREREb6+vvPnzx8zZgxvVKlUK1asGD169IgRI1auXKmvkW5EqGXkyJETJkygl8NnLyoqCgwM9PPzCwsLmz59OvtN09eZS0hIGD9+PN3fUP/Lly/zdp1RQcE2duzYIUOGfPDBB1lZWdRCL+HixYs6p9JFccOGDd98882pU6ceOnRIrWdjaJuphtIstOU7duwoKSkJCgqiYbrT57dc+jZSJ2uIimnTpvXq1YuN0gt577336tWrx6KCXuCiRYuGDx9OuyU7O5vPVe3eox11/PjxKVOmjBo1Ss4O0be3+UK0R3Vum9BH52KltM9YtbyF6DyB9XWmnidPnqQF+vv7x8bGskZaxVQJ9vEm6Smqc7/xU13aUx9EhbkhKh7RrVu3TZs20W8j3VvwP9IfN25cnz59du/efeDAAap3+hrpF4ZihkY3btzo4ODAr1Vfe+01+iU/ePDgnDlzmjRpwn7T9HXmFi5cuHPnzsOHD1P/Tp06lZWVsXbtqKCtbd68+datW+niKyYmhi2Kd9OeSpo1a0ahSBt/4cIFtZ6NadmyZc+ePePj41evXl2/fn2qFFFRUUlJSW5ubvwblvRtpE7WEBVbtmxp3779mTNnaLRr1660i3hUDB48eNCgQbQTQkNDmzZtmpeXp5a392hH0aLWrVtHO0fODtG3t/lCtEd1bpvQR+dipbTPWLW8heg8gfV1pgV6e3tTC+1q2lT24fnc3NydVehXjOJK/eiZrHO/4Q0oq4Ko+B+6GmrcuHFxcTEN9+3b98svv6SB8+fPP/3001euXJH21G6k601KF7r+YqN06tMvEg2cPn2aLkILCwtZO/2u0i+Dvs6CO3fu0MXUuXPnnJycTp06xRq1f23S0tLatWsnfQteLemmc6r0LRR9G0O/85QTrHHAgAF0Tc2GQ0JCpFurcyN1spKoCA4OpkNAx5pKEjWyqKDwoDi8ceMG60mXt3Qlq5ax99SaHUWllo8a3iEG9rZ0IdJRfdsm7aNvsZz2GctUuxCdJ7C+zmrNAilZWSPdQMyaNYsN826UTLdv31Zrncna+w1RYVUQFf9D1fDll18+pDFt2rTevXtTI13seHp6Cj21GxMTE6noUDGi9o4dOzo7O9MFl1pzZ92lSxfebfLkyfSbpq+zFF3B0e9Mv379Bg4c2KhRo5SUFNau/WujUqn+8pe/0O/zCy+8QL8w7G9FeDedU6XFTt/G0O98eno66zNixAj+Abfo6Gh/f382rG8jdbKSqKB6RK/x/fffZ1fWLCp27NhBU3nPTz/9lL0hU+3eU2t2FL+Er3aHGNjb0vsA6ai+bZP20bdYTvuMZapdiM4TWF9ntkB+2gQFBU2aNInPSxFC3XJyctio9EzWud8QFVYFUfFfVAXofpnioW8VugqjCzq6KaazX+is3fj111/TuS5tYei2nU50Pjpy5Ej6TdPXmaOrqhYtWrCLL+Lo6JicnMyG9f3aUOddu3bRbzW75BS6CVOlxU7fxtAL5B9qo6jgO5CiYtiwYWqDG6mTlUQFDfTv358OLntPnEUF3T3Q9vOedKFAWcJHDew9tWRHydkhcva2MKpv26R99C2W0z5jmWoXovMEVuvprH50gRQVEydOZMNHjx5t3ry5NA75KapvvyEqrAqi4r82bdrk5uYmbaH6SL8VxcXFdKayN6PUmj+boZ/ajdRCs/MWGmWPl+nOnX5D9uzZQ8N0PUtXTGyZOjtztDfoV469FbZ582baMwai4scff+TvTnz44Yfsl5N30zmVqt62bdtYo76NqTYqDGykTtYTFd9++y3/CzcWFXSYWla94ZaXl9eqVSv23n21e08t2VFydoicvS2M6ts2aR99i+W0z1g2UO1CdJ7A+joLC+RRQZMcHBzoRoS1M/wU1bffEBVWBVHxX6+++urs2bOlLXTjT+d3WVkZbZu7u7uHhwfVCLrbYFO1G6nidO7cuX379t7e3nRltGrVKtaTLkibNWvWo0cPmjpkyBD2m6avM1NeXu7n50dXbd27d6cBusc3EBX0a9ykSZPuGlQN2acEeDedUzds2ODs7ExFJyYmRq1nY6qNCgMbqZP1RIUUf6ydkpJCr6Vr1650c/nxxx+zqXL2Ht9RMndItXtbe1Tntgl9dC5WSvuMVctbiM4TWF9nnVERHBxM+7ltFfYGJj9F9e03RIVVQVTIlZuby99mNdCYn5+fnZ19584daSONnj9/vrS0VNqo1tOZoyXL/KfQJSUl33//PfXX+clBw1M5wxujj/yNrPOoqBbtnx9++IFd3nIy9x4nc4fUdG/r3DZt1S5W+4zVpr0QfSewWlfn2pG53/RBVJgbogIsBF/sAeaDqDA3e4kKfF1gnTN3VOD42jN8B5S52UtU7N+/n33wCupEbm7uxo0bxaNiOnR8z549K64V7AOdXVu2bBHPCXnMXXlshr1Exb179/AeRR2Ki4u7du2aeFRMh47vsmXLxLWCfVi/fv3NmzfFc0Iec1cem2EvUUEWL15s/MM3qJ2QkBDxeJgajq/dWrBggXg2yGaBymMb7CgqLl++zL+/DCwpIyNj586d4vEwNRxf+5SZmZmUlCSeDbJZoPLYBjuKikrNw0/2VWtgSfPmzXvw4IF4MMwAx9cOzZ8/35izyzKVxwbYV1Tcv39/7ty51f5xOphQXFzc6dOnxSNhHji+9mbDhg1nz54Vz4OasEzlsQH2FRWkqKjok08+QTWxjKNHj65bt048BuaE42s/qGjQhYh4BtSQxSqP0tldVFRqqglde+r7zzNgKsnJyWvXrhX3vvnh+NqDlJQUk1yFWLLyKJo9RkWl5p2KyMjI2NhY/M2MOdy8eXPx4sV79+4V97ul4PjasNu3b4eFhe3bt0886rVi4cqjXHYaFUx+fv7nn3++bNkyfDrPVNLT05cuXUplWqVSibvb4nB8bUlFRUVGRkZERERUVJQJz646qTxKZNdRwdy7dy85OZnOv0jr5uDgIDZZGdqHaWlpv/zyi7iL65RSjq+RrP/0MEaUhjnOrjqsPMqCqFAMqgViE0AVnB61g8ojE6JCMVALwACcHrWDyiMTokIxUAvAAJwetYPKIxOiQjFQC8AAnB61g8ojE6JCMVALwACcHrWDyiMTokIxUAvAAJwetYPKIxOiQjFQC8AAnB61g8ojE6LCehUVFUlHhVogTAV7g9PDJFB5ZEJUWK/4+Pj09HQ+Kq0F1E5T+SjYIZweJoHKIxOiwnqpVCoPD49//vOfbJTXgoMHD3bs2NGE320ASkQnQIcOHXha8NNj586dnp6eOD1kQuWRCVFh1d577z1nZ2eWFqwWUE5QS0BAgNgV7M+YMWNcXFxYWrDTY/v27dSC00M+VB6ZEBVWLTMz09HRsXXr1pQWVAtYTjg5OVG72BXsDzs92rRpQ2lBpwflBI3i9KgRVB6ZEBXWrlevXlQFKC3op7PGiy++KHYCe9W1a1c6Mdq2bUs/KSQ8PDx8fHzETqAfKo9MiAprt3bt2vbt2ztU6dmzZ2xsrNgJ7NXy5cspIfjp8fLLL+P0qBFUHpkQFdZOpVK1adOG1wJ3d3c8sQSOTgZXV1d2bri4uHTo0AGnR42g8siEqFCA9957j105enl54YklCMaMGcOion///jg9agqVRyZEhQJkZmbS1SLVgi5duuCJJQjolGCPsnr27InTo6ZQeWRCVCgDe7iNB9qgE3u4jQfatYDKIxOiQhnWrl1LtQBPLEGn5cuX4/SoHVQemWw/KgoKCjZt2hSmsUSxQkNDqRbQT3GCcrBDsG3btuLiYvEgQc09fPjw1KlTixcvHj58eJ8+fej0oJ80TC3UTlPFGUAX81UeG2OzUfHgwYPExMSQkJC4uLjc3Fy18qWmpopNCpSdnb1ixYqgoCDp9xdBTZ04cWKoBu3M8+fPFxYW/v3vf6efNEwtbBL1EWcDLSavPLbKNqPizJkzn3zySWZmpliowGokJSUFBwffvXtXPHhgEF0DLVy4cMCAAYcOHRKnSdBU6kM9qb84DSRMW3lsmA1GxXoNsTKB9SkoKAgMDLx+/bp4CEEPqvuTJ0+eOHGinIilPtST+iMtDDBh5bFtthYVa9eupTtxsSaBtSotLaW0qKioEA8k6EJ3CVT95Zd+6kn9aS5xAlQxVeWxeTYVFXv37t2/f79YjcC60b1FSEiIeCxBy4kTJwYMGCDE6r59+3x9fT09Pdu1a9epU6eRI0eeOnVK2oH601x4bqGPSSqPPbCdqCgrKwsLCxPrEChBUlISnnIb9vDhQz8/P+nzCbpjGD58uLu7e7tHUWz89a9/ld550Fw0L/4mSifjK4+dsJ2oiIyMvHnzpliEQAnKy8uDgoLEIwoSdK8wZMgQacuIESOEkOA6d+48b948aWeaV7jbAMb4ymMnbCQq7t+/HxERIVYgUI6YmBj8O2gDFi9evHLlSj6ampqqfT8h9eyzz545c4b3p3lpCXwUOCMrj/2wkahIS0vLyMgQyw8oR3Z29tatW8XjClX8/f3PnTvHRwcNGiSGw6PoxuLDDz/k/WleWgIfBc7IymM/bCQqoqKi7t69K5YfUJSwsDDxuEKVP/3pT9K7LvYc27DnnnuO96d5aQl8FDgjK4/9sJ2oEAuPbDk5OSUlJWJrrfBFmXCZzMWLF+/cuSO22pYlS5aIxxWqUDb85z//4aPt27cXk0FLx44deX+al5bAR4EzsvLYDxuJisjISLHwPOqDDz6Ii4uTthw7dszX17e0tNTV1ZXWK51Ua3xRJlwm07JlS5t/hw1RYYBwV9G5c2cxGR7VoUOHPn368P64q9DHyMpjP+wlKpYuXdq9e3dpyzvvvDN27FgaOHLkyK1bt6STao0nhAmXydhDVOC5qwHCs4px48aJ4fCogQMHfvTRR7w/nlXoY2TlsR/2EhVXr1596qmn0tPT2WhxcXHjxo0PHDhAw/Pnz7948aJa8318FB5DhgyhW5CsrCzWMyAggBf9+Pj4Xbt20UBCQsL48eOHDh06c+bMy5cvs6lqSVSwZR4/fnyqBPvYh85GfQvkKCpSUlKmTJlCv/CxsbG8vaSkZNGiRcOHD6dFZWdns8bAwMATJ07Qq/Dz89uxYwf1CQoKomHKy/LyctaHBlasWDFy5MgJEybQzucL5Ggh9FrefffdN954g144b9e5qbdv3549ezatIiIiYtu2bTt37mTt1a5FClFhgPAXUGfOnOnUqZOYD1U6duxI9xD4Cyg5jKw89sNeooJQPZ0+fTobXr9+fZs2bVjdZPWd6mzz5s23bt1KNwQxMTFUalnP3//+95cuXWLDVI4//vhjGli4cCFVw8OHD1O5pN/YsrIy1kF4Ayo3N3dnlW7duo0ePZom6WzUt0COosLb23vjxo1btmxp2rQp/1D64MGDBw0aRJkXGhpK7Xl5eaxzz549qb6vXr26fv36VMGjoqKSkpLc3Nz4t2NR7fb19aUZaZkODg789XK0ENoSWgiVficnp02bNrF2nZvat2/fN9988+DBg59++iltBk1inatdixRqmQHan6uYO3cunT9iSmhygs4K4QPw+FyFPkZWHvthR1FBtbJFixbs4fDLL79MRY21s7KelpZGv2YFBQWPzKMnKggth+4b6L6eyij9ErJGfc8qqLx27dqVLr15i3ajzgVyVLgpxtgwbcasWbNogC4bKQlu3LjB2ulKn+5mWGd+HzBgwAC6vWDDVD6odtMA3TM1aNCgqKiItdOWsHYpWghdirLhVatW9erVi08SNpXu1Ro1asSX1q9fPxYVctYihagwQOentekc9tbgIUGR8MILL9CBxqe1ZTKy8tgPO4oKlUpFpW379u05OTlPPPHEhQsXWDsr6zT1L3/5S8OGDek3LTw8nP/9ks6omDNnDi2KauLAgQOpSqakpEgXJR0gVOKdnZ1ppWxUZ6O+BXJUuPm7Z0FBQZMmTaKBHTt2eHl58T5UOEaNGiV0HjFiBP9wYnR0tL+/Pw0kJibWq1eP5vX09KT6QltC1/5Vi/kvWgh/CcePH2/SpAkb1t7UhIQEyjw+43vvvceiQs5apBAVhun8Dii6XKC93adPH4oKOnVpWPq+UyW+A6o6RlYe+2FHUUFmz55Nl110zdW/f3/eKC3rdI2/a9euLl26sMtzQpft7EkGefvttykq6Dqa7k743YCjo2NycjIb1o6Ko0ePNm/eXHjjRWg0sEBO+libomLixIk0QHdC1Jn3mTZt2vvvvy90pqjgO4eiYtiwYTTw9ddfU7mvmk83WgjfjNTU1DZt2qj1bOpXX30l3Yzhw4ezqJCzFilERbXwzbImZ2TlsR/2FRXnz59/8sknXVxcpP/QgpX1H3/8kb+T8+GHH7JaTDp37rxu3ToaoA5UJSkqaFOpjBYXF1Pj5s2babP1RUVWVpaDgwNdXLOpjHajgQVyOqOisLCQv9eUl5fXqlWrpKQkobPOqKB1ubm5ffnll6ydRvljfI4WQkW/XOP111+fPHmyWs+m0h0Y7dK//e1vrEODBg1YVMhZixSiolr4fxUmZ2TlsR/2FRXkxRdfbNy4MSt2DCvre/bsadKkSXcNLy+vc+fOsakJCQl//OMfu3btSu1UZykqqHT6+fnR9TK10ICnp6e+qAgODq5Xr17bKuzNH+1GAwvkdEYFSUlJoRlp85o2bcqfo1QbFYTuaSgF27dv7+3tTfcEq1atYu0cLYSqTMeOHd3d3Xv37n3lyhW15i+adG7qP//5z2effZa24ZVXXhk5ciR/DlTtWqQQFXLgv+CZlpGVx37YXVQYQFfH33//fU5ODv+LUqaoqIhuR1QqlbSRupn2X3bXeoG0tT/88IM0/OTLz8/Pzs7W+TlwljcFBQXCUxZ1dZvas2dP/udSjIG1SOEjePJp/29tasT/1q4FIyuP/bCRqDDmiz1AJ+mtSbUiIiJmz569dOnSwYMH0y1OtamgE6KiRh4+fHjq1Cm6FRs+fPgLL7zAHmvTMLVQO/7eSSYjK4/9sJ2oqKioEGsPGGHRokU6PwyoE900fPHFF6GhoRs3bvzpp5/EyfLg6wLB8oysPPbDRqJi//79Z8+eFWsPKEdubi7FjHhcAczMyMpjP2wkKu7du7ds2TKx/IByxMXFXb9+XTyuAGZmZOWxHzYSFWTJkiW1e4scrIHwRRQAlmF85bETthMVly9fln6PHihIRkZGYmKieEQBzM/4ymMnbCcqKjUPt9n35YGyzJs3D3/+D3XCJJXHHthUVNy/f3/u3Lm1+4QB1JW4uLjTp0+LxxLAIkxSeeyBTUVFpea/fc2fPx9poRRHjx5dt26deBQBLMVUlcfm2VpUVGrSgu4t5H8mAOpKcnJybGysePwALMiElce22WBUVGreiYqMjKQyhL+Jsk63bt1asmTJ3r17xSMHYFmmrTw2zDajgsnPz//888+/+OKLM2fO4LPc1oCOQnp6+tKlSynIVSqVeMAALM4clccm2XJUMPfu3UtOTo6KiopUOAcHB7FJUaI00tLSfvnlF/EgAdQR81UeG2P7UWEzKCrEJgAwDiqPTIgKxUBUAJgcKo9MiArFQFQAmBwqj0yICsVAVACYHCqPTIgKxXCAR4k7CKDmUHlkQlSAIiEqwCRQeWRCVIAiISrAJFB5ZEJUgCIhKsAkUHlkQlSAIiEqwCRQeWRCVIAiISrAJFB5ZLKuqIiOjv4GQAaKCrEJoOao5iAq5LCuqACQiaJCbAKoLURFtawlKsrLy/8BIBtFhdgEUFtUf8SSBI+ylqgAqBE8qwCwJEQFKBKiAsCSEBWgSIgKAEtCVIAiISoALAlRAYqEqACwJEQFKBKiAsCSEBWgSIgKAEuyaFSoVCrxs5JgxVJSUqKjo+mnOMEK4NPaYAH4vAVn0aj4Bh/JBhPBp7XBAv6BT3FXqYOoWL58ufhZSbBKdKSs9njh09pgVvhuKEEdRAX2vlKw40U/xQlWAM8qwKxQrAR1GRVXr149o3H+/PmysrJH+1o1uuLYvHmz2GpS2dnZ169fF1srK8+ePVtcXFwpYxuq7VAtRAXYLUSFoC6jYsKECU888USzZs3++Mc/Uvurr75aWFj46BxmMW3atPDwcLG1JsaMGfPXv/5VbDUp2jndu3cXGo8fP047itKiUsY2SDvU7iUjKsBuISoEdRwVL730Ehu+cOGCo6PjyJEjeWfzGTJkyEcffSS2Wpljx47RvqL7LWnjpEmTunXrJm2RqXYvGVEBdgtRIbCWqCAff/wx+/3//PPPt23bFhMT88ILL1BxZFNTU1Op3tGFNsXJt99+y+eiztu3b1+7du2f/vQnHx+fDRs28EmERvv37//ss8++/fbbeXl51LJq1SonJycPD4/RGrdu3arUXK3TxvTu3ZvWOHv2bJVKRY25ubmsD/fZZ5+xxUZFRUlXpL2Wyuo2TN/LkWrfvr20vv/888+NGjVavnw5G5VuQ3Z29rhx47y9vfv06TNx4kR2c8Y7aL9kna9XG6IC7BaiQmBFUUE1joojDbzyyivOzs7+/v47d+48cOBApaYW/+EPfwgPDz9y5EhoaGj9+vW///57Nhd1dnV1HTNmTHJy8pIlSx5//HHqwyb97W9/o57R0dFpaWnDhg1r3rx5aWnpmTNnevbsSWV6l0ZFRQX1/OKLL6iwfv311/v27XvxxRf79etHjSUlJQlVNm7c+Mwzz1ASsCXTtk2fPt3AWgxvmIGXI0Vh06JFi//85z9sdNOmTU899RRtFRvl23D//v2WLVtOnTr173//O+2u4ODgS5cuSTtov2Sdr1cbogLsFqJCUMdRQZfVdIVL7YsXL37iiSdCQkIqNUW2U6dODx8+ZN1+/fVXqphffvklX84777wzduxYNkydqQ7yzgMHDmT1keZq0qRJZGQka6dRNzc3KqOV1b0bQ7WYNjInJ4e30MLpYrxr165qtZq18CpsYC0GNszAy5G6ceMGBczevXvZKN24vPHGG3wq3wa6j6ENvnnzJp8kdKg0+JK1Xy+HqAC7hagQ1HFU0GUy3UC0adOmb9++dHlOZbRSU2TpGpnPlZ2dTXNNmTKFLsApS6gQ+/r68rfsqbO0CNKMI0aMqKwqoDQvnzRp0qShQ4dW6qqbP/300yeffDJgwADKg86dO//ud787ePAgn0qTHB0dCwoKeItQpnWuRd+GGX45AgoYulOhgStXrtBWpaam8knSuOrSpQvtwzlz5hw+fJjfhRiICsOvlwsICKBNpSwXJ1gBRAWYFaJCUMdRIX0DiqMiO3fuXD566tQpmovqYJjEqlWrdHam4kglkgbOnz9Pc+Xn5/NJVPioOFZq1U3y3HPPDR48+KuvvsrKyrp48eKTTz7Jr+U3bNjQoEGDM2fOSPvzKmxgLfo2zPDLEezcuZNutoqLiylUnJycHjx4wCdJk+Du3btr1qwZPnz4H//4x3bt2rHtMRAVBl4vN3PmTNpO+im0WwlEBZgVokKggKgoLS19/PHHk5KSJF3+R19FrqiooIvlffv28Uk+Pj6TJ0+u1NTQGTNm8PbCwkLaqh9//JGN0gCNstJ59OjRevXqSRfC8CpsYC36NszwyxHcv3+/adOmUVFRbm5u8+bNk06SJgFHmeHp6Uk5JHSQvmQDr5ez8pyoRFSAmSEqBAqICvL222/TxTJ/9ksXwocPH2bD+ioyGTt27LPPPsv+HCg+Pp5qOl3R0/CHH374wgsvFBUVUWF9+PDhvXv36LJ69erVNEmtVvv6+lJPKp1UQ5955pkvvviCL5yTVmF9azGwYQZejja6TWGfO+HFneHbcO3atUOHDv3222+Vmhxyd3dnH6GQbqT0Jf/88886Xy9fsvXnRCWiAswMUSFQRlRQdZs4ceITTzxBl9gNGzakn2vWrNHZWVqRi4uLafl0CU8Vv0GDBtHR0aw9Pz//xRdfpJbHqh7nrlix4qmnnqLq84c//GHZsmW0Ciqd69ate+xRfGulVVjfWgxsmIGXo+27776jVdMGC+18G7Kyslq1akXb7+rqSvdAw4cPp/CTdqjUesk6Xy/rqYicqERUgJkhKgR1GRU1VVFRQWWRLqKlb9lX68aNGzQXq54GlJeXZ2dn879xqimZa5Gq3cvRh20A+ztdOXS+XqXkRCWiAszMyGJle5QUFWBWCsqJSkQFmBmKlQBRAf9PWTlRiagAM0OxEiAqQHk5UYmoADNDsRJYNCpSUlIe0/yrnG/AarDP2SkrJyoRFWBm3yAqHmXRqGD/WAqsjeJyohJRAWaGqBBYNCpwV2GFrPN7O6qFqACz+gZR8SiLRgX2PpgKogLMCsVKgKgARUJUgFmhWAkQFaBIiAowKxQrAaIClKGoqEg6KkSFMBXASChWAkQFKEN8fHx6ejoflUYFtdNUPgpgPBQrAaIClEGlUnl5efGv4OVRQTnRsWNHff8eHKB2UKwEiApQjICAABcXl6+//rqyKiooJ9zc3Ng/CgQwIRQrAaICFCMzM9PJyYmlBUUF5YSHh4ejoyPOKDA5FCsBogKUpF+/fm3btqW0oKignKABT09PsROA0VCsBIgKUJLY2FhKCwcNV1dX+rlw4UKxE4DRUKwEiApQEpVK1aFDB0dHR5YWzs7OeKAN5oBiJUBUgMIEBAQ8//zzLCqGDBkiTgYwBRQrAaICFCYzM7N79+6UE05OTjiXwExQrASIClAe9rgCD7TBfFCsBIgKUJ7Y2Fg80AazQrESICps008//ZSQkLBUIzw8PMy2hIaGUlTQT3GC8tHBokMWERFBh48OonhcwVJQrASICluTmZkZEhKycuXK7Oxste1KTU0Vm2wLHb6YmBiKQzqg4jEG80OxEiAqbMfdu3epsuzevVusOqBke/bsWbBgAR1c8XiDOaFYCRAVNqKgoGDevHn0U6w0oHw3btyYP38+HVzxqIPZoFgJEBW2oKKignKitLRUrDFgK+jgUlrQgRaPPZgHipUAUWELQkNDcT9h8+je4rPPPhOPPZgHipUAUaF46enpSUlJYl0BW7Rnzx485bYMFCsBokLxgoODy8vLxaICtogONN1BimcAmAGKlQBRoWzFxcUxMTFiRQHbtXr1anzewgJQrASICmWLj4+37c9PgIAO9/bt28XzAEwNxUqAqFC2sLAwsZaArYuIiBDPAzA1FCsBokLZlixZIhYSsHVLly4VzwMwNRQrAaJC2UwbFTk5OSUlJWKrQbWYxZKua6gtvp18veYQHh4ungdgaihWAkSFsi1evFgsJI86e/bs66+/3q5du/bt2//5z38+cuSI2EPC1dWVjo7YalAtZrGkGTNmzJw5U23x7eTr1WnVqlX5+fliq2yICgtAsRIgKpTNcFTcuXPHxcXl448/pmvqH374IS4uLiUlRewkUYt6Stlz69YtsdVq8JJt4e00HBXsnzKJrbIhKiwAxUqAqFA2w1Fx5swZ2uHFxcXiBM1f6K9YsWLkyJETJkyg48IaeVTonHr8+PGpEuyJ+vz58y9evEgDJSUlixYtGj58OE2S/lFWYGDgyZMnp0yZ4u/vHxsbyxoTEhLGjx8/dOhQqqeXL1/mnaVoxhMnTnzwwQd+fn47duyg5QcFBdHw0qVL2edIdG4kKSoqonmpJ23h9OnTWcnm20lUKhXNOHr06BEjRqxcuVKtf+M5feuS0rle7VdKtxQNGzZ88803aV2HDh3S2ccwRIUFoFgJEBXKZjgq6Dq6UaNGkydP/uc//1lWViadRCXP19f3wIEDGzdudHBwoKKslkSFzqm5ubk7q3Tr1o1KrXSWwYMHDxo0iGYJDQ1t2rRpXl4eW1HLli29vb1pOVu2bKH2/fv3U+PChQtpIYcPH6bi2KlTJ2HbGJqxZ8+e8fHxq1evrl+/PpXgqKiopKQkNze39evXq/VsJHnttdeo6B88eHDOnDlNmjTRfgNq3Lhxffr02b17N83LdqC+jef0rUtK53q1XynN26xZs4iICNqACxcu6OwjLvpRiAoLQLESICqUzXBUkK+//rpfv35PPPFE48aN6dL12rVr1JiVldWgQQO6CmZ9qFRRKVRX1VN9Uzlq6dq16+3bt/ksdPtC1fzGjRusA10g01U8G6aKv3XrVjZM19GzZs1iw3fu3KHL/HPnzjk5OZ06dYo1StGMlBNseMCAAXR7wYZDQkJoe/Rt5OnTp+mavbCwkLVTJAhRcf78+aeffvrKlSusg1pz76Vv4xl965LSt161rleq/QaUdh8DEBUWgGIlQFQoW7VRwVCZ27dvn5eXF12b02hiYmK9evVo1NPTs2PHjs7OznTJrK6qp/qmMlT3qSUnJ4eNsll27NhB/XmfTz/9dNSoUWyYKn56ejobDgoKmjRpEg3QdTfVRMqwgQMH0n2Pzico0hlHjBhBl+FsODo62t/fX99GJiQkdOnShS+E7qiEqKDrd5qFdyAGNp7Rty4pfevV+UqFqNDZxwBEhQWgWAkQFcomMyqYTZs2Uf1Va241qDaJk6vqqb6p5OjRo82bN5e+/cJmSUtLc3R05I3Tpk17//332TCtMSMjgw1TVEycOJGumlu0aMFuSgjNmJyczIalpDNSVERGRrJhiophw4bp28iDBw/SJvHRkSNHClFx+PBhthM4AxvP6FuXlM716nul0qjQ18cARIUFoFgJEBXKZjgqfvzxx23btqlUKrXmHx68/fbbffv2peHi4mI3N7cvv/ySdaPRrKwsdVU91TeVfjo4ONAlNmtn2CyFhYX8/aK8vLxWrVrxL7vVjgo6DaiRPWzfvHkznRI6i6PhqNC3kbQlFGZ79uyh4YsXL9JFuhAV1JOG+YxXr141sPGMvnVJ6VyvvldK9x90XNiM+voYgKiwABQrAaJC2QxHRU5OTrdu3Ro2bOjl5dW0aVNvb++zZ8+ySXRn0Llz5/bt21MjXcmuWrVKLamnOqcGBwfXq1evbRV/f3/pLCkpKXSx3LVrV1rRxx9/zLdBOyrKy8v9/Pyoc/fu3WnA09NTZ3E0HBVqPRtJdu3a1axZsx49etDUIUOGaD/WpvPQ3d3dw8ODSjbLTn0bz+lbl5T2evW90g0bNjg7O1MmxcTE6OtjAKLCAlCsBIgKZZPzae1bt25999137IG2ID8/Pzs7+86dO+IEDcNTtVHV++GHH3T+ba42irHc3FyxteZ0biSNnj9/3vC/BaS18ycuankbr3NdUjrXK+eVyunDISosAMVKgKhQNjlRATYG3wFlAShWAkSFsm3cuFH+1SjYADrcW7ZsEc8DMDUUKwGiQtmuXbsWFxcnlhOwXXS4b968KZ4HYGooVgJEhbI9fPgwODhYLCdguxYsWCCeBGAGKFYCRIXi7dixg/+lENg2OtC7du0SzwAwAxQrAaJC8X799de5c+eKRQVs0SeffPLgwQPxDAAzQLESICpswalTp/DEwuatX7/+zJkz4rEH80CxEiAqbERsbKzhf1sEinb06FG6GhCPOpgNipUAUWE71qxZs3fvXrHGgPIlJyfTpYB4vMGcUKwEiAqbsmfPns8///zmzZtisQFlokO5ePFiugIQjzSYGYqVAFFha1QqVURERFhYmM5/vwNKcfLkyfDw8MjISDqg4jEG80OxEiAqbNMvv/ySlpYWobHUFjk4OIhNtoIOGSUEHT46iOJxBUtBsRIgKkCRKCrEJgDTQbESICpAkRAVYFYoVgJEBSgSogLMCsVKgKgARUJUgFmhWAkQFaBIiAowKxQrAaICFAlRAWaFYiVAVIAiISrArFCsBIgKUIaioiLpqBAVwlQAI6FYCRAVoAzx8fHp6el8VBoV1E5T+SiA8VCsBIgKUAaVSuXl5XXo0CE2yqOCcqJjx4749gswLRQrAaICFCMgIMDFxYWlBYsKygk3N7dhw4aJXQGMg2IlQFSAYmRmZjo5OTk7O1NaUFRQTnTo0MHR0fHYsWNiVwDjoFgJEBWgJP369WvXrh3dW1BUeHh4UGx4enqKnQCMhmIlQFSAksTGxvr4+DhosMBYtGiR2AnAaChWAkQFKIlKpWJvOrG0oLsKPNAGc0CxEiAqQGECAgL69OnDomLo0KHiZABTQLESICpAYTIzM729vSknnJyc8EAbzATFSoCoAOXp168fRQUeaIP5oFgJEBWgPLGxsXigDWaFYiVAVFiLmzdvbtmyZenSpeHh4WFgUGhoKEUF/RQnwKPCNeikSkhI+Omnn8RzDvRDsRIgKurYgwcPkpKSqOrFxcXl5uaqQZ7U1FSxCfTLzs6OiYkJCQnJzMwUT0HQBcVKgKioS2fPnp0/fz799oq/2QDmsXv3brouuXv3rnguwqNQrASIijqzfv36DRs2iL/KAGZWUFAwb948+imekSCBYiVAVNSNtWvX0t4Qf4kBLKK0tJTSoqKiQjwvoQqKlQBRUQf27t2Lt9qhbtFdxYIFC8RTE6qgWAkQFZZWVlYWHh4u/uICWFxSUlJGRoZ4goIGipUAUWFpkZGRt27dEn9rASyuvLw8JCREPEFBA8VKgKiwqPv370dERIi/sgB1ZNWqVfi8hU4oVgJEhUWlpaXRLb/4+wpQR7Kzs7dt2yaepoBipQVRYVFRUVEVFRXi7ytA3QkPDxdPU0Cx0oKosCiKCvE3FaBOhYWFiacpoFhpQVRYVGRkpPibalI5OTklJSV8tKysjFpu3rwptBvjugYbNuFideLLv3jx4p07d8TJkg7aA4KzZ8/OnTu3vLxcnPAovsfECTWhbxvMqtYrRVTohGIlQFRYVLVR8cEHH8TFxUlbjh075uvrW1paKm3Ux9XVlXYvG/7qq68cHR179OhBC5S2G2nGjBkzZ85kwyZcrE58+S1bttT5jId30B5Qa57Z5ufn885Tp05duHAhH9Um3WPitJow927RqdYrXbJkiXiaAoqVFkSFRVUbFUuXLu3evbu05Z133hk7dqy0xYAjR47wv8R96623Fi1apN1uJGlUmHCxOvHl64sK3oEXSukmOTk5SaunSqUKCgoysMHSPWYMc+8WnWq9UkSFTihWAkSFRVUbFVevXn3qqafS09PZaHFxcePGjQ8cOKDW/BX8ihUrRo4cOWHChG+qvhQkMDDw+PHjU6ZMGTVqFI3Onz//4sWLNLB8+fI2bdr079+fLqUvXbrE26lc0kJGjx49YsSIlStXsoUkJCSMHz9+6NChlAGXL19mjVJFRUW0Ij8/v7CwsOnTp/Oo4ItNTU2lPBsyZAjdFWVlZak1G0YH+t13333jjTfi4+P5okpKSqgcDx8+nDYsOzubNVLnkydP0qvw9/ePjY3lnfnyKSp2796tvTTegUcFb6FbioYNG7755pu0okOHDlX7GoU9prO/9svUuT/5NuhciEDfDpEeVp3L0XfodXY2AFGhE4qVAFFhUdVGBaGqQeWYDa9fv57qF3uHnRLC19eXYmPjxo0ODg4nTpxQa2po165d161bl5SUpJZUzGPHjvXu3XvatGlUYW/fvs3bx40b16dPH2qk5SxevJitZeHChTt37jx8+DAVl06dOpWVlbF27rXXXqOtOnjw4Jw5c5o0aSK8AUUFrnnz5lu3bqUL25iYGL5htCgq69u2baOr+02bNrFZBg8ePGjQIFp7aGho06ZN8/LyWGdvb296XVu2bKHG/fv3S5dvYGna7zvxAdqMZs2aRURE/B975x1fVZH3/31WBYG10FOAhJZCExCDiwmCq4BgpEhRUVkRC4iuPtIFQhEICYpLJ4QeCJ1AgKjAPo9LC2UFaQmEUEJJIIHLwYddUDS/7+/OMnuY0245N9xz8nn/kdecOXOmnJn5fGbOufeGGnvs2DHDNgp3TJletZmq95PXQZmJvESG1g2Rd6tqPlpdr5pYB1iFKhArAVhFieKKVdDMr1q1KnuL+9xzz33++ecUoDVs+fLlaXXP0pAckHNITr0gseDXyh9Y0+J32rRp8vhDhw49/PDDp0+f5uk5VBytSQ8ePEhCvHfvXvmpffv20fI8Pz+fHZIyClaRkZFRp06dvLy8/1zjrBhfZdMCv0WLFhTYv39/uXLlzp8/z+Jp5UtrYZaYJJhF0uL6008/ZWG5VShzkydQBiTFAyidNjLkd0xSpFc2U+t+yuugX6jODZF3q6SWj07XKxPrAKtQBWIlAKsoUVyxCofDQTN8+fLlWVlZDz74IK2IKXLVqlVly5aNjIyMiIgIDw8PDg6mHYbk1Au2vGXoWwUtNulynphDewUqMSYmpn379o888kh6err8bGpqaqNGjfhhv379BKugCr/xxhtkJ61atYqPj2efw6GK8Zrs2LGD9iIUWLFiBTXh3xlJErkge3hCifkzt5EjR/bt25eF5VahzE2eQBmQ7rUK/TYy5HdMmV7ZTK37yeugzERIqXND5N2qmo9W16sm1gFWoQrESgBWUaK4YhXEZ599RrI1evToNm3asJjvvvuO5v+9qf4/1e5936tvFVu3bqX0PDGDVp20ibl06RI7DAwM3LBhgzzBli1b6HJ+2KNHD8EqWJhyWL16NZkKXxfzfDZt2hQaGkoBWphT/iySGDBgwHvvvccS81aQVbz99tssLLcKZW7yBMqAJLMKwzYy+B3TSS9vpur9lO7WQScTjis3RCsf1a7XSqwDrEIViJUArKJEcdEqDh069NBDD9WoUWP+/Pks5vLlyyEhIVz66ZC9VlXVCxZWWgVdRQEeeebMGfpLnUKZ0CkKL168mDpIEJf8/PwqVaqsW7dOcn6/gRaqglWcOHGCP0L5+OOPmdBTnl26dLnupGvXrrQXYVlRPHsvnZOTU716dfac3RWrUOYmT6AMECToy5Ytk1xoI4PfMdX0ymaq3k/pbh1UM2EJOK7cEK18VLteK7EOsApVIFYCsIoSxUWrIJ555pnHHnuMzXnGzp07GzZsWK9evWbNmtFqcdasWZKGXrCw0iokp+7UrVs3LCyMZDQ6OlpyfrAqNjaWFuBNmzalQEREhFJcaB1duXLl5s2bUwUoW8EqyEUqVqzY1ElkZOTBgwclZ8VI0MPDw6m4qKgo/kA/PT2dymrcuHGlSpUGDRrEIl2xCtXclA4hvwMLFiwIDg4m/Z0xY4ZhGyXZHVO9J6rNVN5P6W4dVDORlfZvDG+IVj6qXa+VWAdYhSoQKwFYRYniulVokZube+TIEdWvLrtOdnZ2VlaWPIYOKVIeI0Al0l5H65uAhYWFP/74I2XCPqwl3RWyvLw8oSDJqX1Hjx6Vu6CLqObmOoZtFFCmVzaTobyfHGUmSly5Ia7kw3ErMb6trQrESgBWUaKUnt+AEta8wG+BVagCsRKAVZQoGzdu3LdvnzhZ7cj48eNd+f4XuL/Q5mPRokXiMAUQKwWwihLl5s2bpWdjAfyf5OTkc+fOicMUQKwUwCpKmgkTJnj5pgEAs8A/TNUCYiUAqyhpTp06NXfuXHHKAlDi7NmzZ+XKleIABU4gVgKwivtAYmLiyZMnxYkLQMkybNiwO3fuiKMTOIFYCcAq7gO3bt0aMmSI/ocjAfApycnJ+/btE4cmuAvESgBWcX8oKCigNR3cAtwXtm3bNm/ePHFQAhkQKwFYxX2D/RMI9qPTAJQYaWlpc+fOFYcjuBeIlQCs4n5y69athISEOXPm4DNRoAS4cOHChAkT1q9fLw5EoABiJQCruP/k5uaOHz9+ypQphv9aAADP2LlzZ3x8PK1LHA6HOP6AGhArAViFv3Dz5s20tLQEJ5OBEQEBAWIUUIOGU2JiYkZGxu3bt8UxB7SBWAnAKoAlIasQowAwD4iVAKwCWBJYBfApECsBWAWwJLAK4FMgVgKwCmBJYBXAp0CsBGAVwJLAKoBPgVgJwCqAJYFVAJ8CsRKAVQBLAqsAPgViJQCrANagoKBAfihYhXAWAC+BWAnAKoA1SElJ2b17Nz+UWwXF01l+CID3QKwEYBXAGjgcjsjIyIyMDHbIrYJ8Ijw8HL9XAcwFYiUAqwCWYeDAgTVq1Ni8eXPxXasgnwgJCXn55ZfFpAB4B8RKAFYBLENmZmZQUFBwcDC5BVkF+UT9+vUDAwN37NghJgXAOyBWArAKYCViYmLq1q1LbkFWERYWRs4RGRkpJgLAayBWArAKYCWSkpKeffbZACfMMCZMmCAmAsBrIFYCsApgJRwOB3voxN0CL7SBL4BYCcAqgMUYOHDgM888w6wiNjZWPA2AGUCsBGAVwGJkZmY2a9aMbSnwQhv4CIiVAKwCWI+YmBiyCrzQBr4DYiUAqwDWIykpCS+0gU+BWAnAKkoF169fHz169CS7EBcXR1ZBf8UTVoaaI0mS2HPgPgGxEoBVWBWSle7duxcWFoonFJBPfPbZZxcuXJBsxKZNm8Qoi0MdNHjwYAlu4R9ArARgFRZm3759Xbt2/fXXX8UTMmzpE3YFbuE/QKwEYBUW49KlS3l5edwecnJy/vnPf96b5D/AJyyHoVv88ssvxc4fXafOlcf//PPPdO1vv/0mjwQeA7ESgFVYBpKPli1btmnTpl27djExMSyybNmy//rXv+5N+G/gExZF3y1oBg0YMKB169aBgYEzZ85kkcnJyaGhoc8//3xYWNj+/fvvvQJ4AsRKAFZhGdLS0rp3787Cd+7cYQEtq4BPWBodt6AZtG7dOgrk5uZWr16dAufPn69cuXJ+fj6F16xZ06RJE+ES4AEQKwFYhWU4d+5cUFBQ7969ly5deuPGDRapahXwCRug5RY0g27fvs3C5cqVo/DatWs7dOjAYn799dcyZcoorwLuArESgFVYCXKI1atX9+nTp06dOuwVhdIqdHzi2rVrV+/icDjE0+4wf/58L3NwHQ/KSk5OZgEPrnURnnNSUpJ4TnZWvwLUWVlZWWfOnBFPOFF1C5pBPFyhQgXqfdpJvPjiiyyGWQVfSQCPgVgJwCosAykOe2lJf2l7cfr06WKFVej4BFGpUqVq1aoFOXnrrbfE0+5Qu3btK1euiLG+wYOyHnjgARbw4FoX4TnTkBbPyc5SB12+fFk87eTo0aORkZFRUVHVq1cfNGiQeNqJ0i2UVoEHUL4AYiUAq7AMK1eurFu3bseOHZs1a9avXz8WKbcKfZ+QnFaxZ88eMVaSyHVOnDghj6HD48ePy5fDFKaYixcvskPaoPBTysvlFBUV0cKZ6sZjaE9Df3Nycs6dO8dihByEBK6XRXJ58uRJSWYV8muFRrFSKLKgoICnkXQrTKLMI3nOzCqEfPhZuVVQ0ZQzy01ytiU7O1tyegZVuLCwkMULCG6htIpi52vtWrVqtW3btn79+nitbQoQKwFYhZUgXSB9ET4lyTD0CUnDKlo7iYmJadiwISkp5dCiRYvo6OjnnnuuVatWLM2SJUtIif70pz/RinXFihWSTAGFy+U5E9OnT6cL27RpU69ePep3FkljoE+fPi1btpwyZYqkloOQwMWyEhMTg4ODn332Wdowcatg16o2ikrp3bs3paervvrqKxapVWHyZvZztl9++aU8Z618+FkeWLZsGeX5/PPPk9+vWrWKJWMsWLCAthfyGAHl3kIJPixrLhArAViFHXDFJySnVdCOJNpJeno6i+Rr4fj4+P79+y9fvrxz584shi2Nab1cuXLlQ4cOsUi2+OUKKFzOwgxaQVOJbJm/dOlS0ncWT2OAv0uQ1HIQErhYVtWqVclHJafcC1ahbJTkLGXWrFkUOHXqVJUqVWiBr1PhlJQUCvz444/VqlVjkXKrEPKRn2UBOlWjRg3al1DMsWPHyFT43mLjxo2hoaEHDx5kh1q44hbARCBWArAK/4X9SwYXUa6ylZAO0tp2jxP+LIVEsGPHjlFRUQ0aNHjhhRdIyAIDA3v27JmUlMQeN1ECWozfk5FMCoXL5WnoFC2iWdjhcJQpU4aZGY0B+bMaZQ5CAlfKImWPjY1lYSpFsAployRnKdxcX3zxxdTUVJ0K86dD5cqVE8xSmY/8LPeqmjVrfnSXxx9//IcffmCX0HaH3IKF9aEuFntdG3EwATeBWAnAKvwX1yc86cigQYNc2VUID6AyMzNr165Ni2UKr1q16tlnn6UAiemSJUtef/11Wu2SZOtYherlHJJvLuhMeZlM/072Hlg1B3kCyeWydKxCUjRKulfiO3ToQBLvSoXLly8v9wB2VshHfpYF6B6SJXwjIz8/n13SunXrw4cPs7AOVMSQIUMk13YVro8coAXESgBW4b+4NeElF9xCaRWrV6+Ojo5m4VdffZX0Ny8vj73Rpb+0EicVO3nyJF3IV8HyNbXychZm6DzP4WlUc1C1CtWUHFpxV6tWjX3qdObMmYJVKBslOUuZM2cOBXJzc6tWrar/AIoFJA2rEPKRn2WBEydOUPX4U6azZ8/yDKkg/npfC7d8otjNkQNUgVgJwCr8F3cnvGTkFkqroPV18+bNW7ZsGRUV1atXL9LfRYsW0eK9Xbt2TZo06dOnD0u2ePHi4ODgNm3aUOTKlSuluwqovFyeueR8bVCjRo2YmJi6dev+r+wtMU+gmoOqVaimlBMfH09ltW3b9s033xSsQrVRv3O+jqb01LTExEQWaVhhVatQ5iNYheR8ehYSEkLVfuqpp2iHwTMkC9m5cyc/VOKuTxS7P3KAEoiVAKzCf/FgwktGbqGEfQusqKiIx5C00bpb/sFQyflA5tixY5cuXZJHSmqXCyg/eypgmAPHMCX7LUUx1omyUcwAaEXPnwUxDCusijIfJaz+7N27i3jgE8UejRwgALESgFX4L55NeMl9tyidCHsXP8Qznyj2dOQAORArAViF/+LxhJfgFi6wdu1aMcqf8Ngnir0YOYADsRKAVfgv3kx4CW5hZbzxiWLvRg5gQKwEYBX+i5cTXoJbWBMvfaLY65EDiiFWCmAV/ov3E16CW1gN732i2IyRAyBWArAKP6KgoEB+KEx44ayLSHAL6+CxT/hi5JRyIFYCsAo/IiUlZffu3fxQPuEpns7yQ7eQ4BZWwGOfKPbZyCnNQKwEYBV+hMPhiIyM3Lx5MzvkE55me3h4OJ39T1I3IQEaM2bMZODHjB071jOfKHaOnIiIiG+++YYdmjhySi0QKwFYhX8xcODAGjVqpKenF9+d8DTbQ0JCYmNjxaQAyGAjh7kFHzm1atXq2rWrmBS4AMRKAFbhX2RmZgYFBQUHB5Nb0ISn2V6/fn0K4KYBffjIIbdgI6devXqBgYE7d+4UkwIXgFgJwCr8jtatW5M90JynCR8WFkaB8PBwMREACmJiYmrXrk17Cxo5NITIORo0aCAmAq4BsRKAVfgdSUlJbdu2DXDCpv3YsWPFRAAooJFDbsFGDvkE/Y2PjxcTAdeAWAnAKvwOh8PBdxUEBfBaErgCjRP20ImvMzByPAZiJQCr8EcGDhzYunVrNuE7deokngZAAxo5UVFRbOR06dJFPA1cBmIlAKvwRzIzM5s3bx7gfIyA2wVch0ZO06ZN2WYUL7S9AWIlAKvwU9iuAi+0gbuw1xV4oe0lECsBWIWfkpSUFIAX2sB92MjBC20vgVgJ2MoqLly4sGTJksmTJ9M8mWRx4uLiaMLTX/GEBaHuoE5JTU29cuWK2Gclwvnz520zMAyx08gxhA2t5cuXmz60fC1WlsMOVnHnzp01a9bQ3EhOTs7OzhZ+Wse6bNq0SYyyMkeOHJkxY8bo0aP37NkjdqFvoIGxevVqKtFmA8MQm40cQ3wxtHwkVtbF8lZx4MCBESNGZGZmisMH+CvM13/66SexL01l//79w4cPx8AoVZg4tHwhVpbG2lYx34k4XoDfk5eXN2zYMPor9qhJYGCUWswaWqaLldWxsFXMnTv3b3/7mzhSgEW4evUqTekbN26I/eo1NDC2b98ulgdKDTS0hg4d6uXQMlesbIBVrWL9+vXp6eniGAGWgpZ+Y8aMEbvWO9atW7dx40axJFDKoKEVFxcnDg53MFGs7IElreLatWvx8fHi6AAWZM2aNSa+iqSBMXHiRLEMUCqhoSX/d0/uYpZY2QZLWkViYuLFixfFoQEsyPXr10eNGiV2sKckJCScP39eLAOUSrwcWmaJlW2wnlXcunWLFEEcF8CyzJw58/Lly2I3uw8NjMmTJ4u5g1KMN0PLFLGyE9azioyMjD179oiDAliWI0eOmPLPn2lg7Nq1S8wdlGK8GVqmiJWdsJ5VTJky5caNG+KgAFbGlF+hSExMFPMFpZ5JkyaJA8U1TBErO2FJqxCHA7A4Hs9nOXgsCZRMnDhRHCiuYYpY2QnrWcX9XTxmZWUVFhaKsfalZNrr8XyWA6twi3NOWNjXvczzP378eFFRkXhalkBeE61aHThwYOjQodevXxdPqOHx0DJFrOyEPa2id+/eaWlpYqwZ1KxZk+ovxlqBWbNm5ebmirFGlEx7PZ7Pclx5p00DIyYmJi8vj8f85S9/iY6OPnjwoCyVMZ7dTL/io48++uSTT1jY173M869WrZrqi0aeQF4THlbe7f79+48bN04eo8WECRPEgeIapoiVnbCnVURGRiYlJYmxZrBt2zaLfk6X/ZckMdaIkmlviVkFDYyqVatOnTqVHZ45c6Z69eoPPfTQzp07701ogGc306+QW4Wve5nnr2UVPIHcKnik8m47HI6RI0e6UmdYhVnY3CqGDBmya9euDz74oHPnznLz2LRp02uvvdapU6f333//8OHDkvNT2NOnT+/Ro0efPn2onjwl5bBjxw7KoWfPnnQ4YsQI2kSr5kDDl3Lo1atXt27dZsyYwS7XypZD+dMNeeedd1555ZWUlBR5PC9XKxPV1tGeffz48V26dKGV15EjR1gkrcsqVKjQvXt3ivzmm28oJjU19a233nrppZdIL06dOkUxVFx/GZMmTZJk7dXKWbUOWhXWoiStYsCAAS1atGCHdMm7775btmxZZhWqDVR2tHAzhRGivLECWjdHyEc4VK2bkEYrZ05BQQFdEhsbS5374YcfcqvQGdVa41OrPsrBIMnyJ6tYu3atMjeeQG4VLNKVoasDrMIsbG4VNDSbNWu2cOHCJUuWVKpUif3kA43sKlWqLF26lJYtM2fOZDJBs6tdu3abN2+mxAEBAXyZSTk0btx43rx5a9aske4OZdUcXn/99aeffppmAmVCA5RdrpUth/Jv0KABTZtly5bR6mnRokU8nperlYlq6zp27NihQwdKHBcXR5E5OTkUSZdUrlw5ISGBqnfs2DGKof37ypUrt27dSvONKnDt2rXs7OyVd2nSpAl5nnTv1FXNWbUOWhXWoiStgupZr169/fv30yHdYWodtwplA1U7WriZwghR3th7q6B5c4R8hENl3ZRptHLmvPDCCyTuW7ZsGTx4cMWKFYUHUKqN1RqfWvVRDgaev05uOg+gXBm6LL0qsAqzsL9V0NBnkbQq+fTTTymQkZFRp04d+QNrWkCVL1+e1lzskMYizToWphxoKvKUbPgqczh06NDDDz98+vRpHiPpZsuh/PkWhBZQfMHLy9XJRNk6UsBy5crxbyzTyouWZiys3MUXFRXRqu3gwYN0au/evTyeiiABunTpkiSbulo5K+ugU2EtStgqRo0aRSpD618SGopkVqHaQGVHM+Q3UxghkvaNlYx6U56P/FC1bkIanZwZ+/bto+V5fn4+O6RljWAVqo1VHZ869VFON+leq1DmJk+gtArJnaGrBFZhFva3it27d7PIkSNH9u3bV3I+KXrjjTdo2rRq1So+Pp620qtWrSK9oKsiIiLCw8ODg4NpdcauohzkqzM2fJU50DKHruXJGDrZcih/Pg127NhBaz0ez8rVyUTZuhUrVlBKFkN8/vnn7NGEpJhvtK6kmJiYmPbt2z/yyCP8txdpqlMRWVlZ7JBPV62clXXQqbAWJWwVpDJUq/fee49t/phVqDZQ2dHsrGAV8hGidWMZOjdHyEd+qFo3IY1OzozU1NRGjRrxw379+glWodpY1fGpUx/ldJPutQplbvIErliF/h0WgFWYhf2tgr9Go7H79ttv8zS0al69ejVNHloQfffddzT4+Ck58hyke4eyPAfaDlNKnoyhky2HrtqwYQMLb9q0KTQ0lMezcnUyUbaOFoaBgYE8wYABA0gQWVg+32ghVrVqVbZvIOgSVoft27dXqVJFaY2ScyummrOyDjoV1qKErYICbdq0oV0ge9LNrEKrgdK9Hc1iBKvgd0DrxnJ0bo4w0uSHWnWTp9HJmbFlyxbqTX7Yo0cP1U9ACY1VHZ+u1Ec+3eRWocxNnsDQKgzvsACswixKo1WcOHGC750//vhjirx8+XJISMi0adNYJB2yd3qSYgKz4auaA53iOZw5c0Zy5qOVLYfy79Kly3UnXbt2pbUej2fl6mSibF1+fj5FsheGOTk51atXZ0+xCZr8y5YtY2HqCEpGWVF48eLF1Ck03yjbgIAAWpyyNAw+XbVyVtZBp8JalLxV/OMf/+D/VZRZhWoDlR3NwvKbKb8DqjeWnWLo3BxhpMkPVesmpNHJmUGZ0Dpg3bp1kvP7DbQeF6xCtbGq49OV+mhZhTI3eQJVqzAcuuyUKrAKsyiNVkGzhXa+TZ1QSvaZehKLhg0b1qtXr1mzZrRUmTVrFrtKmMBs+KrmQK2rW7duWFgYjezo6GiWXitbDuVPEyY8PJyujYqK4m875OVqZaLaOtqP0yqscePGlSpVGjRoEDtLLFiwIDg4mGb1zJkzaaLGxsZSMqo/BSIiImi+jRo1ikSz9l06d+4s3Tt1VXNWrYNWhbUoeauQw19rKxuo2tHSvTdTfgdUb+y/i7mL1s3RsQpJrW7KNFo5c2i7ULly5ebNm1OyTp06CVah2lit8WlYHy2rUM1N3yoMhy5LrwqswizsaRWGFBYW/vjjj1lZWdfv/c5nbm7ukSNHVL9QKqCVQ3Z2Nn/Qz9HJls2uvLw85VUCOpkIUJWOHj3KVl46UIlUWzFWFxdzZrheYVOswpRvaysbqNXROrhyY12/ORxl3VTRz5niDx06dPXqVfGEE2Vjdcani/VRopqbW7hyhxkeDy1TxMpOWM8qbPYbUMLCsHRiym9AmbKGAAJWH58eDy1TxMpOWM8qNm7cuG/fPnFEWJbx48cbfo3I3tDycNGiRWI3u8+GDRv0PzcJPMDS45OG1sKFC8WB4hqmiJWdsJ5V3Lx502Ybi1JOcnLyuXPnxG52HxoY2FgAOTS0zp49Kw4U1zBFrOyE9ayCmDBhgtajWGA5Ro8eLXawp9ASGAMDcLwZWmaJlW2wpFXQjnju3LniuAAWZM+ePStXrhQ72FNoYMyePVssA5RKaGitWLFCHCIuY5ZY2QZLWkWx8x3myZMnxdEBrMawYcPu3Lkj9q4XJCQkYGAAYujQob/88os4PlzGRLGyB1a1ilu3bg0ZMsSDD+oB/yE5OXnfvn1i13oHDYzBgwdjYJRyvB9aJoqVPbCqVRAFBQW0JoUoWJRt27YlJSWJnWoGNDBoRYmBUWoxZWiZK1Y2wMJWUewUBdpbsB9ABhYiLS1t7ty5YneaBw0M2ltgYJRCzBpapouV1bG2VRQ7HzgkJCTMmTMHH32xBBcuXJgwYcL69evFjjQbGhiTJ0+ePXs2BkYpgYbWF198YdbQ8oVYWRrLWwUjNzd3/PjxU6ZMwZew/JZdu3bFx8eTrzscDrH/fAYNjHHjxmFg2JudO3dOmjTJ3KHlO7GyKDaxCsbNmzc3bNiQmJhIg2ay9QkICBCjrAl1B3VKRkbG7du3xT4rEWhgpKWl2WZgGGKbkWOI74aWr8XKctjKKmwGTXgxCgAXwMjxHoiVAKzCf8GEB56BkeM9ECsBWIX/ggkPPAMjx3sgVgKwCv8FEx54BkaO90CsBGAV/gsmPPAMjBzvgVgJwCr8F0x44BkYOd4DsRKAVfgvmPDAMzByvAdiJQCr8CMKCgrkh8KEF84CoAWswnsgVgKwCj8iJSVl9+7d/FA+4SmezvJDAHSAVXgPxEoAVuFHOByOyMjI9PR0dsgnPPlEeHi4iT9aAOwNrMJ7IFYCsAr/YuDAgTVq1EhLSyu+O+HJJ0JCQmJjY8WkAGgAq/AeiJUArMK/yMzMDHJCbkETnnyifv36FPj+++/FpABoAKvwHoiVAKzC72jdunVYWFhwcDBNeAqQbURERIiJANAGVuE9ECsBWIXfkZSU9NxzzwU4YYYxbtw4MREA2sAqvAdiJQCr8DscDkf9+vVr1KjB3QIvtIFbwCq8B2IlAKvwRwYOHNimTRtmFS+99JJ4GgBdYBXeA7ESgFX4I5mZmU8++SRN+KCgILzQBu4Cq/AeiJUArMJPad26NU14vNAGHgCr8B6IlQCswk9JSkrCC23gGbAK74FYCdjBKq5cubJ8+fLJkyfHx8dPsgtxcXE04emveMLKUAdRN6WmplKXib0IzANW4T0+EivrYm2r2LNnz6hRo2bMmHHkyBHJdmzatEmMsgXUWdRlo0ePzszMFHsUmAGswntMFyurY1Wr+Omnn0hr1qxZI+oQsA5r164dM2YMdaXYu8A7YBXeY6JY2QNLWkVeXt7QoUPpr6g9wGpQJw4bNoz+in0MvABW4T1miZVtsJ5V3Lhxg3zi6tWrouoAa0JdSW5B3Sr2NPAUWIX3mCJWdsJ6VjF69GjsJ2wGdejYsWPFngaeAqvwHlPEyk5YzCp2796N9xO2ZO3atXjLbRawCu/xXqxshsWsYuTIkdevXxdlBlgf6lbaL4r9DTwCVuE93ouVzbCSVRQUFMycOVPUGGAXZs2ahe9bmAKswnu8FCv7YSWrWLp0qS2/PwEY1LnLly8Xex24D6zCe7wUK/thJauYNGmSqC7AXkyePFnsdeA+sArv8VKs7IeVrGLixImitPiGa9euZWVlXbhwQTxRiqEbUlhYKMaaTXx8vNjrwH1gFd7jpVjZDytZxYQJE0RpUfDNN9+89NJLISEhDRo06N279+7du8UURnz77beBgYHNmzdPTk4Wz9mCWbNm5ebmirFG1KxZkzpOjDUb2jiKvQ7cB1bhPV6Klf2wlVWkpKSUL19+/PjxBw4cOH78+LRp01599VUxkRFkMJSDGGsjgoKCPBD9bdu2Xbx4UYw1G1iFKcAqvMdLsbIf9rGKoqIimiHCQyr2pe7CwkJS/y5duvTv31/+YnzIkCG7du364IMPOnfunJSURDFff/11aGhomzZtKOXJkycl54c4p0+f3qNHjz59+lD9+YU7duygC3v27MkOd+7c+f7778fGxq5YsYKKGzlyJIUnT57MP9qbmpr61ltv0Y7nk08+OXXq1L9rIIMyoTvzzjvvvPLKK+R5PFJekGplWDKhIZJGq2lLUaFChe7du1Mk7cBUa0Ul9pfBXhGNGDGC3FcrW0mjDloV1gJWYQqwCu/xUqzsh32s4m9/+xtlfvbsWfGEJHXs2LFDhw6bN2+Oi4urVKlSTk4Oi69WrVqzZs0WLly4ZMkSit+4ceP3338fFRU1YMCAtWvXXrp0idKQxrVr146upWQ0A8kS2IWNGzeeN28e+z4gHT755JOk77Nnzy5XrhyZxJQpU+hUSEjI/PnzWVnjxo1buXLl1q1bSZQbNGhw7dq1f1fuLpQJxVMmy5Yto4X/okWLWKS8INXKsGRCQySNVtMllStXTkhIoAYeO3ZMtVbZ2dkr79KkSZNevXpJsgdQqtlq1UGrwlrAKkwBVuE9XoqV/bCPVSxfvrx8+fJirCTt37+f5Pv8+fPskFbQtEBmYVK3pUuXsjCtkT/99FMKdOrUadq0aSzy8OHDlGdBQQE7JGEl7WMXknyzSHbI9wFt27al7QULjx49mqVn0L6HFuYHDx4kJ9i7dy+PZ1AmM2bMYGFa+7do0YJF8oK0KsOSCQ3RabXwAEqnVlQEGRWzTGYVOtkq66BTYS1gFaYAq/AeL8XKftjHKjZt2kSZc2HirFixIjIykh9+/vnn7GGO5FQ3/t575MiRffv2le61ilWrVpUtW5Yuj4iICA8PDw4OpjUyu1C+QJbn061bN1qzs/DUqVM7d+7MwoMHDyYtjomJad++/SOPPJKens7iOZQJV/AdO3ZUrFiRRfKCtCrDkgkN0Wm13Cp0akW6T0VkZWWxQ2YVOtkq66BTYS1gFaYAq/AeL8XKftjHKi5cuPDwww+npqYK8RkZGYGBgfxwwIAB7733HguTuu3Zs4eFSd3efvtt6V6r+O6770hJWViO/ELhkKwiMTGRhckqXn75ZQrQar1q1apseU5QfTZs2MDCHMqER5LthYaGskies1ZlJLWG6LSaW4VOrbZv316lShW5HTKr0MlWWQedCmsBqzAFWIX3eClW9sM+VkEMGjQoJCSEC9zhw4fHjRuXn59f7e4DopycnOrVq/MfHFSqm3SvVVy+fJkylB9SnsKFwqGqVVDDKQ1dTuHFixfTTVC1ii5dulx30rVr1379+rFInrNWZYRkrCE6rW7UqNGyZcsk7VpRtqQ1tCdg6RnMKnSyVdZBp8JawCpMAVbhPV6Klf2wlVU4HI7PP//8scceCw4OrlevHi1pZ8+eTfHp6ekUbty4caVKlchOeHqlukn3WoXkfA/csGFDyq1Zs2a0oJ41a5ZwoXCoahWk/rGxsaGix78AAIAASURBVFSHpk2bUiAiIkLVKsgewsPD69atGxUVdfr0aRYpL0i1MkIy3hCtVi9YsIDuD6n8jBkzVGs1atSosmXL1r4Le4bGX2trZataB60KawGrMAVYhfd4KVb2w1ZWwbh69eqPP/544sQJeSSJ9dGjR9kK2gNyc3OPHDlSVFQknnCHrKys7OxsMfYuTGrz8vL46wEtXK+MK63Wr5UqrmQrx/UKwypMAVbhPV6Klf2woVVYFGEDUTrBD3uYAqzCe7wUK/thJasosd+Aui+MHz9e9at5pQpYhSnAKrzHS7GyH1ayioULF7r7qARYCOrcxYsXi70O3AdW4T1eipX9sJJVnD171q4/4QcI6tzz58+LvQ7cB1bhPV6Klf2wklX89ttvo0aNEgUG2IW4uDixy4FHwCq8x0uxsh9WsgpixYoVePdrS6hbV69eLfY38AhYhfd4L1Y2w2JW8csvvwwdOlSUGWB9hg8ffufOHbG/gUfAKrzHe7GyGRazCmLv3r14Y2Ez5s+fv3//frGngafAKrzHFLGyE9azCiIpKWnbtm2i3gBrsn37dvJ+sY+BF8AqvMcssbINlrQKYs6cOWlpaaLqAKuxYcMGMn6xd4F3wCq8x0SxsgdWtQpi/fr1X3zxxYULF0T5AVaAOm7ixInUiWK/Aq+BVXiPuWJlAyxsFYTD4UhISIiPjzf892rAf9i1axd1WWJiInWf2KPADGAV3mO6WFkda1sF4/bt2xkZGSQ9CfaCJrwYZXESnVBnUZeJvQjMA1bhPT4SK+tiB6uwK5jwwDMwcrwHYiUAq/BfMOGBZ2DkeA/ESgBW4b9gwgPPwMjxHoiVAKzCf8GEB56BkeM9ECsBWIX/ggkPPAMjx3sgVgKwCv8FE14LSZKGDBmCz9pqgZHjPRArAViF/4IJrwrziePHj3/22WdwC1UwcrwHYiUAq/BfMOGVMJ9gX9Gnv3ALVTByvAdiJQCr8F8w4QXkPsGAW6iCkeM9ECsBWIX/ggkvR+kTcAstMHK8B2IlAKvwXzDhOVo+wYBbCGDkeA/ESgBW4b9gwjMkXZ9gwC3kYOR4D8RKAFbhv9hywhcUFKSkpLiu6ZILPsFw1y0oJdWE6iOesD62HDklDMRKAFbhv9h1wu/evTsyMvKVV16h8SCeuxfJZZ9guOgWe/fuffPNN8PCwqgm4jlbYNeRU5JArARgFf6LjSc8aXTt2rUDAwPDw8Pj4uJUxV1y0ycYOm5BkbNmzWratCmVW6NGjZ07d4op7IKNR06JAbESgFX4L/ae8GxvQVZBzQwKCnrxxRflmwzJI59gKN2CbSNq1apVs2ZNKi40NNTGPlFs95FTMkCsBGAV/ovtJzxziyZNmgQ44ZuMvLw8j32Cwdzi7NmzbBtBOxhWRGnwieJSMHJKAIiVAKzCf+HqVgpZsmSJKP9usnjxYjHT0oQ4mICbQKwEYBXgvkG7inr16gUFBZG01ahRIyws7KmnnkpKSqJdxdChQy9duiTKv8vQrmLQoEGUD+UWExPzxBNPtGjRgmlocHBwWlqaWBUA7gViJQCrAPcH5hOBgYH169cPDQ1999139+7dy8+S3HvsFswnKMBzo5w//PDDunXrtmrVKiQkBG4BDIFYCcAqwH2AfIIkm3yCbSNUP7AkeeQWSp/gUClsk0H7GLgF0AdiJQCrACUNe5v93nvvybcRqkhuuoWOT8hhm4yIiAi7fq8CeA/ESgBWAUoUD76t7aJbuOgTHBt/Wxt4D8RKAFYB/B3JBbdw1ycA0AdiJQCrABZA0nUL+AQwHYiVAKwCWANJwy3gE8AXQKwEYBXAMijdAj4BfATESgBWAayE3C3gE8B3QKwEYBXAYjC3yM7Ohk8A3wGxEoBVAOtBDhEQEACfAL4DYiUAqwCWBL+IB3wKxEoAVgEsCawC+BSIlQCsAlgSWAXwKRArAVgFsCSwCuBTIFYCsApgSWAVwKdArARgFcCSwCqAT4FYCcAqgCWBVQCfArESgFUASwKrAD4FYiUAqwCWBFYBfArESgBWASwJrAL4FIiVwH2wiqlTp/4PAN5BViFGAWAeJFOwCjn3wSoA8B6yCjEKALOBVXBK1CquX7/+vwCYAVmFGAWA2ZBkiSpWWilRqwDALPCuAoCSBFYBLAmsAoCSBFYBLAmsAoCSBFYBLAmsAoCSBFYBLAmsAoCSBFYBLAmsAoCSBFYBLAmsAoCSxMAqHA6H+C1GYFPS09OnTp1Kf8UTfgm+rQ2A6eh8j8TAKv4H368Gfgm+rQ2A6fyv9rfTXbKKr7/+WvwWI7Ad1MsW6mt8WxsAEzH8zSuXrELnemAbWF/TX/GEX4J3FQCYiKHUu2cVZ86c2b9/f35+vjxNUVERRZ48eVIe6QqzZs1KTk5mYfK0xYsXs/D27ds/+uij3r17nz59Wh7vJazyxKFDh65duyae9mNMvAk6wCoAKLWYbBV9+vShw5deekme5p133qHI9u3byyNdgcyArmXhV1999b//+78pQDr+0EMPjRo1avbs2VeuXOHx3kOVf/DBBytXrvzoo49ShZ9//nnB83zEgAED4uPjxVh3MPEm6ACrAKDUYr5VNGjQoEyZMpcvX2YxN2/efOSRRxo1auSlVXCmTZvWuHFjIdIUqPLPPvssCx87diwwMLBHjx73pPANnTp1+stf/iLG+h+wCgBKLeZbBVnCn/70py+//JLFLF68uFmzZiT6cqtYsGBBmzZtnnjiiTfffDMnJ4fH//bbb1OmTHnqqaeio6PpQrlVUDxdNXXq1CZNmlSsWLFXr15MXlk8z2HLli2xsbGU5rnnnps1axaL3LFjB1UsKiqqVatWn332mcPh4OnlyK2CGDRoEJObL774YtmyZTNnzqTL+/bty85u2rSJJL5p06ZkJ//4xz/4VZR4+fLlc+fO/eMf/9i6dWt53YrVGk6VDAoKCgsL6+Xk4sWLxRoVzs7OZmk4Y8eOZdkKN0FZSrFRxbSaIwdWAUCpxSdWsXTpUr7wJ83661//KrcKOixXrhyJfkZGxssvv1ylSpWrV6+yU5MnT6YtCKknKRddSLOdW0Xnzp0//PDDPXv2UFZ16tRZvXo1Xc7jWZp58+Y99NBDI0aM2Lp1K8ni0KFDWfxXX31FYvrdd9+lpaU988wzMTExLF5AsIq33367Xr16FCDnCw4OpoJWrly5efPmYqcW/+EPf4iPj9+2bVtcXBw158cff2RXUeKaNWu++uqrGzZsmDhx4u9//3tKw06pNnz//v1PPvkkyfRqJzdu3CjWqHBhYWHqXRYuXPj444+TE7Cc5TdBtRT9iuk0Rw6sAoBSi0+s4p///Oejjz76ww8/nD59umzZsqRx3Cp++eUX2hMkJiay9HQYEhIyatQoCv/88890asaMGeyUJEmPPfaYYBUUmDRpEmkri5TH0+WVKlXiC20tqDJU4aysLPGEs/K0rKYVPTVqwoQJDz744OjRo4udItugQQPa8bBkVOeqVatOmzaNX/jnP//5tddeY2FKTNXjianVrHo6Ddd/AKWsMGVOWwoyY7pFLIbfBJ1SdCqm0xw5sAoASi0+sYpi56vsjz/+mKS2a9euxc63Diw+JyeH0h85coTn0LdvX/Ya/OTJk3QqOzubn2rXrp3rVnH48GG6XHU5fOXKleHDh7dt25bktWHDhv/1X/+1ZcsWMZGz8mXKlKENRGhoaHR0NC3PSUaLnSLbv39/nowqTwV98MEHtACnBpIQUz2bNGnCzlJiue7Thd26dSvWbbjSKvQrTKcCAwPz8vJ4DL8JOqVoVUy/OXIGDhxIKclKxRN+CawCABPxlVWQoFSpUoWWtBs2bCiWWcWhQ4cofW5uLs+BBIg0kZ+SKyDZjOtWsW/fPrpc/uaD89RTT3Xs2PHbb78lOzl+/PhDDz20fv16MZHiARSHRJY/yyL27t1LBQ0ePHiSDP5eREhMdaMaFus2XGkVOhVesGBB+fLl9+/fL0/Pb4JOKVoV028O55NPPqFk9FeI91tgFQCYiK+sgqhfv361atXYwpxbxY0bN2iNnJaWdjeD4tatW/fr16/Y+cSJTrE3EIywsDDXreLatWu///3vV65cyU8x8vPzqYYnTpxghxSgQ2+s4urVq1TQmjVrZEn+g5Yi6zScEnz00Uc8XqfC27dvL1u2rDwTBr8JOqVoVUy/OQzL+UQxrAIAU/GhVfzshIXlr7Vfe+21J554gn1lISUlhaSNFrbsVI8ePaKiotjX3/7617+ShLluFcTrr79et27do0ePFjsfwbNHJTdv3qRV+ezZs4udbtSuXTsq0RurIN588806derwh1208N+6dSsLaylysXbDP/7441atWhUUFPz000+//fabVoXJMx5//PGvvvqKZ86R3wStUnQqptOcYmv6RDGsAgBT8aFVyJFbxeXLl0mRyQZI+MqXLz916lSe7OLFi02bNiWhrFixIkmbWw+gip1r6p49e5I4VqlSpUyZMvybgNOnT6dD0o4//OEPX375ZYUKFby0iv/7v/97++23H3zwwUqVKlFu9HfOnDmqieWKrNXw3NzcZ555hmJ+d/f1tWqF582b97t74bWV3wStUnQqptMci/pEMawCAFMx2Spc5/z584cPH6YVtBBPy+rs7OzTp08L8a5TVFREC2Thi9bXr18/cuQI/8iQKZAzURPOnj17584d8Zw2Wg0X8LLCLpYiR9kc6/pEMawCAFMxlHpfWQXwcyztE8WwCgBMxVDqYRWlEav7RDGsAgBTMZR6WEWpwwY+UQyrAMBUDKXewCrS09N/5/x3N/8DbAH7np3VfaIYVgGAqfyPl1bB/jUSsBM28IliWAUApuKtVWBXYTOs8rsdhsAqADCR//HSKgyvB+C+AKsAwEQMpR5WASwJrAIAEzGUelgFsCSwCgBMxFDqYRXAGhQUFMgPBasQzgIA3MJQ6mEVwBqkpKTs3r2bH8qtguLpLD8EALiLodTDKoA1cDgckZGRf//739khtwryiYiICK1/qA4AcAVDqYdVAMswcODAmjVrMrdgVkE+ERoaGhsbKyYFALiDodTDKoBlyMzMDAoKqlWrFrkFWQXbTwQGBn733XdiUgCAOxhKPawCWIno6OgaNWqQW5BVREZG1q1bt379+mIiAICbGEo9rAJYiaSkpJYtWwY4oS0F/R02bJiYCADgJoZSD6sAVsLhcNBOglkFERQUxP7/LgDAGwylHlYBLMbAgQObNGnCrOKFF14QTwMA3MdQ6mEVwGJkZmYyq8ALbQDMwlDqYRXAekRHR5NV4IU2AGZhKPWwCmA9kpKS8EIbABMxlHpYhW+5fft2RkZGYmJiQkLCZGASY8eOJasYM2aMeAJ4SoKTtLS0mzdvioMYlAIMpR5W4SscDgc5RHx8/K5duyRgNps2bRKjgNfs3bt3ypQp48aNy83NFQc0sDWGUg+r8Anr16+fMGHChQsXxLkIgN9TVFQ0Z84c2mrcunVLHNnAphhKPazCfJKSkjZs2CDOPwAsRU5OzpAhQ/Dr7qUEQ6mHVZhMcnLy9u3bxWkHgAW5fPnysGHD4BalAUOph1WYyf79++fPny9OOAAsC7kF7S3wJMr2GEo9rMI07ty5M3z4cHGqAWBxTp48mZiYKA53YC8MpR5WYRqrV6/es2ePOM8AsD5z5849deqUOOKBjTCUeliFaYwZM0acYQDYgqKioi+++EIc8cBGGEo9rMIcLly4kJycLM4wAOxCYmIivp1nYwylHlZhDkuWLMnOzhanFwB2Ye/evRs3bhTHPbALhlIPqzCHyZMni3MLAHuBl9s2xlDqYRXmEB8fL04sL8jKyiosLBRjdfHgEntQMg0/50SM9Rny4uQNvHbtGh2yXwEomYbLgVXYGEOph1WYg6FVHDhwoGvXrnXq1KlXr96LL764bds2MYWMmjVr0j0XY3Xx4BJ/Y9asWbm5uWKsESXT8I8++uiTTz4RY32GvDjewG+//TYwMLB58+bsrVjJNFxOQkKCOO6BXTCUeliFOehbRVFRUY0aNQYNGkQrwaNHj9JUT09PFxPJ8EAFyHsuXrwoxlqKoKAgd1stlVTD76NV8Ab27t17/PjxPE3JNFwOrMLGGEo9rMIc9K1i//79dBsvX74snpCk69evT58+vUePHn369KG7zSLlVqFMsGPHjv4yJk2aRJEjRow4fvw4u6SwsJA0pUuXLnT2yJEjLHLIkCG7du364IMPOnfunJSUxCKJ1NTUt95666WXXiJtOnXqFI/n0IVUmXfeeeeVV15JSUmRx1NNKMOePXsqK8nTKAtVrR5tKSpUqNC9e3eK/Oabb1Rrpd9w1WwljTpoVVhOQUEBXRsbG0sFffjhh0y7VSsmhy7ZuXPn+++/TxeuWLGCajVy5EgKT548mQplaVSrqlqcdLeBX3/9dWhoaJs2beiSkydP8ngKOBwOakuvXr26des2Y8YMdpVqPeVdJrl2E+TAKmyModTDKsxB3ypo9ffII4/069fv73//+7Vr1+SnaJa2a9du8+bNCxcuDAgIIJWR7rUKZYLs7OyVd2nSpAlphHBJx44dO3ToQJfExcVVqlQpJyeHIqtVq9asWTPKZMmSJRS5ceNGlnjcuHGUz9atW0lTGjRoIFRPcl5I8WQSy5Yto4X/okWLeHzjxo3nzZu3Zs0aZSV5GmWhqtWjSypXrkxitHbt2mPHjqnWSr/hqtlq1UGrwnJeeOEFUvMtW7YMHjy4YsWKTLtVKyaHinvyySfpds2ePbtcuXIk/VOmTKFbFBISwn/0RbWqqsVJdxv4/fffR0VFDRgwgO7PpUuXeDwFXn/99aeffpriKcMJEyawq1TrKe8yybWbIAdWYWMMpR5WYQ76VkF89913MTExDz744GOPPUbLvbNnz1Lk4cOHy5cvT8tJloamN81eSaYCWgn4Ic18QThoB0MKdf78eZaG1pW0/JScMrF06VIWSSvTTz/9lIUl5/MxWp8ePHiQnGDv3r08nkEX8rUqrf1btGjB40l0JN1KKgvVqp6keAClUytlw3WyVdZBp8Kcffv20S4nPz+fHZIWc+3WqZjkLI7vvdq2bUvbCxYePXo0K0W1qjrF8Z7t1KnTtGnTWCSPP3To0MMPP3z69Gkez1HWk3eZpNtrWsAqbIyh1MMqzMHQKhg0M9PS0iIjI2mxSYerVq0qW7YsHUZERISHhwcHB9MqT5Kpg1YCguSPDrOystghv2TFihWUnkUSn3/+OXvaQDKxe/duFjly5Mi+ffuyMK1hSUrIxtq3b09bH+VLFLqQK/iOHTtowcvj2TpUp5LKQrWqJ91rFTq1Um24TrbKOuhUmJOamtqoUSN+SDtCpt06FWPIi+vWrRvJKwtPnTq1c+fOkkYHaRUnGVkFbR2oFTySo1pP3mWSbq9pAauwMYZSD6swBxetgrFo0SKatJJzq0HzWTwtUwetBNu3b69SpYr8iQG/JCMjIzAwkMcPGDDgvffek5wywX+iihTz7bfflpzfq6patSpbnhN0ofI/bdCFPHLTpk2hoaE8nmWoVUlJrVCt6kkyq9CplVbDdbJV1kGnwpwtW7ZQzvywR48epN06FePIiyOrSExMZGGyipdfflnS6CDV4lhY3yq2bt3KxpIcrXrK6+bKTRCAVdgYQ6mHVZiDvlWcOHFi2bJlDoeDwlevXn3zzTejo6Ml5y88h4SE8PlPh4cPH5Zk6qCagAgICKBVIYtk8Evy8/Or3X0GkpOTU716dfZgWqmYFKD+pXj2vn3x4sXU16ra16VLl+tOunbtSgteHs8yVK2kkEa6W6hW9QhaVtNdkrRrpdNwnWyVddCpMIcyJE9at24dhY8fP04Lc9JurYrJMbQK1aqqFscu1LcKqgwFePyZM2ck7Rsor5srN0EAVmFjDKUeVmEO+laRlZXVpEmTChUq0H6/UqVKzZo1O3DgADtFC+SGDRvWq1ePImn1N2vWLEmmDqoJRo0aVbZs2dp3YY815Jekp6fTgrFx48ZU1qBBg1ikUjEl52dgYmNjKXHTpk0pEBERoap9ZA/h4eF169aNiorij8XlGSorqUzDC1WtHrFgwYLg4GCSzhkzZqjWSr/hWtmq1kGrwnJWr15duXLl5s2bU0qSadJuF2+XvlVIGlVVFsfi9a1CchoDdU1YWBh5LVuCaNVTXjfJtZsgB1ZhYwylHlZhDvpWwbh48eIPP/zAXmgL5ObmHjlypKioSDxxF8MEAiQWR48eVf14rhJyMp0fsGL6kpeXx18PaOF6JV2pnn6tVHElWzmGFaZThw4doo2gPNKDiilRrapqcS5CVRI6yMV6Gt4EDr6tbWMMpR5WYQ42/g0oYSkKSi2wChtjKPWwCnPgH3SxH+PHj1f9rhkoVdy4cWPKlCniuAd2wVDqYRXmsHz5cvk3hAGwGbSzzMjIEMc9sAuGUg+rMIcrV67Mnj1bnF4A2AXaN9+6dUsc98AuGEo9rMI04uLi+I/8AGAnLl68iBcV9sZQ6mEVppGZmck+Fw+AzYiPj7927Zo44oGNMJR6WIWZjB07lv+2DwD2ID09ff369eJYB/bCUOphFWZy48aN4cOHe/a5eAD8kL/97W9z584VBzqwHYZSD6swmby8PHIL7C2ADZjvRBziwI4YSj2swnx++umnMWPG4L0FsC6ZmZkjRow4cOCAOLiBTTGUeliFr6DJFhcXN3PmTHzfAliF7Ozs5ORkGrdr1qy5c+eOOKaBfTGUeliFb7ly5UpqaupkJ/Hx8ZOASQQEBIhRwAtocNIQXbJkyYULF8RBDEoBhlIPqwCWhKxCjAIAeIqh1MMqgCWBVQBgIoZSD6sAlgRWAYCJGEo9rAJYElgFACZiKPWwCmBJYBUAmIih1MMqgCWBVQBgIoZSD6sAlgRWAYCJGEo9rAJYg4KCAvmhYBXCWQCAWxhKPawCWIOUlJTdu3fzQ7lVUDyd5YcAAHcxlHpYBbAGDocjMjLy+++/Z4fcKsgnIiIi6Ox/kgIA3MRQ6mEVwDIMHDiwZs2azC2YVZBPhIaGxsbGikkBAO5gKPWwCmAZMjMzg4KCatWqRW5BVkE+ER4eHhgYuHXrVjEpAMAdDKUeVgGsRHR0NG0syC3IKiIiIurUqVO/fn0xEQDATQylHlYBrERSUtLTTz8d4CQsLIz+jhgxQkwEAHATQ6mHVQAr4XA46tWrx6yCCAoKwgttALzHUOphFcBiDBw4sGnTpswq2rdvL54GALiPodTDKoDFyMzMbNKkCfkEXmgDYBaGUg+rANYjOjqarAIvtAEwC0Oph1UA65GUlIQX2gCYiKHUwypM4/bt2xkZGYmJiQkJCeyfaQMfMXbsWLIK+iueAGZDgzktLe3mzZvicAf2wlDqYRUm4HA4yCHi4+N37dolgRJh06ZNYhTwDXv37qXhPW7cuNzcXHHoA7tgKPWwCm9Zv379hAkTLly4IM4wAGxEUVHR7NmzaZ9x69YtcQ4A62Mo9bAKr0hKStqwYYM4qwCwKTk5OYMHD8ZPvtsPQ6mHVXhOcnLy9u3bxckEgK25fPnysGHD4BY2w1DqYRUesn///vnz54vTCIBSALnFkCFD8CTKThhKPazCE+7cuTN8+HBxAgFQajh58mRiYqI4MYBlMZR6WIUnrF69es+ePeLsAaA0MWfOnFOnTolzA1gTQ6mHVXjCmDFjxHkDQCmjqKjoiy++EOcGsCaGUg+rcJsLFy4kJyeL8waA0kdiYiK+nWcPDKUeVuE2S5Ysyc7OFicNAKWPvXv3bty4UZwhwIIYSj2swm0mT54szhgASit4uW0PDKUeVuE28fHx4nQxlaysrMLCQha+du0aHbKvgsvjveScE8nUPFWR53/8+PGioqJ7z9+TgIe1anXgwIGhQ4dev35dPOEfyDvLY7Ta7ms8LhdWYQ8MpR5W4Tb6VvH+++8LbzK+//77du3aXb16VR6pQ82aNemGU+Dbb78NDAxs3rw5y5DHe89HH330ySefSKbmqYo8/2rVqik/NiZPwMM8MGvWrNzcXHn6/v37jxs3Th7jJwid5TG+7hEtPC43ISFBnCHAghhKPazCbfStYvLkyU2bNpXH/PnPf37ttdfkMfps27bt4sWLFOjdu/f48eOV8d7DrcLEPFWR569qFfIEXK14ZFBQkKBfDodj5MiRPq2zZwid5TG+7hEtPC4XVmEPDKUeVuE2+lZx5syZMmXK7N69mx1evnz5scce27x5Mzu8fv369OnTe/To0adPH7q3LHLIkCE7duz44IMPevbsSYcjRow4fvz4119/HRoa2qZNG1pHnzx5ksdLTrmkTHr16tWtW7cZM2ZQTGpq6ltvvfXSSy+RAZw6dYplK1BQUEAFxcbGTpo06cMPP2RWwfOUnL/VSpbWqVMn2hgdPnxYclaMuv6dd9555ZVXUlJSWLLCwkLSxC5dulDFjhw5cjf7/594165d1IrOnTsnJSWxSHn+ZBVr164VcpMn4FbBImlLUaFChe7du1NB33zzjeRCM1XrQAwcOJDrIBW9evVqSaMhK1asWLRoEb9w3bp1LB/9ooXO0kqsvMPKrpTfEK18OKpNEIaTViaqo04nvRawCntgKPWwCrfRtwqCpi5pMQvPnz+fRIQ/XieHaNeuHTnHwoULAwICdu7cKTk1tHHjxvPmzVuzZo10VzG///77qKioAQMGkLxeunSJx1Pg9ddff/rppyme8pkwYQLFjBs3buXKlVu3bqXp3aBBg2vXrrHi5LzwwgtUsS1btgwePLhixYrCAygSmipVqixdupRWlzNnzuQVo9xIW5ctW0YLfKahHTt27NChAxUdFxdXqVKlnJwclj8lbtasGbVryZIlFL9x40Z5/lq56TyAojpUrlyZlIhaeuzYMcmFZqrWgXjggQeY3UrOR1iDBg2SNBpCh8HBwaTgLDHlxn6+Rb9oobNUE6veYWVXym+Iaj5yVJsgDCetTFRHnU56LWAV9sBQ6mEVbmNoFTT3qlatyl7hPvfcc59//jmLp4Vk+fLlaXXPDmlOknNIzklLM/bu1f+ZtLT8nDZtmhB/6NChhx9++PTp0zyeQcXRqvDgwYOkwnv37hXO7tu3j1bo+fn57JDkSbCKjIyMOnXq5OXlya+iirGlruR8bdCiRYv9+/eXK1fu/PnzLJLWnrQa5YlJB1mY5PjTTz+VFFYh5CYkEKxCUnsApd9M1TpIalah1RAydbJ29mvBlP+jjz5K+0KWRr9oobOUiZV3WLUr5TdEUsuHo9UEYThJGplojTqt9FrAKuyBodTDKtzG0CpoTUpzbPny5VlZWQ8++CBbEROrVq0qW7ZsZGRkREREeHg4rV5phyE5Jy1bYzL0rYJWfHQ5j2TQRoFKjImJad++/SOPPJKeni4kSE1NbdSoET/s16+fYBVU5zfeeIPspFWrVtRA9mEYqhiXjx07dtBeZMWKFVR/ng+5IHt8wRLzx24jR47s27evpLAKITchgaFVGDZTtQ6SmlXoNGT48OG9evWiwMcff/z222+zSMOi5Z2lmlh5h1W7Un5DVPPhaDVBGE5amWiNOq30WsAq7IGh1MMq3MbQKojPPvuMtGP06NFt2rThkd999x1NQlmqf1Pt3ve9+laxdetWSs8jJefilzYx7CEVERgYqPwXGlu2bKHL+WGPHj0Eq2BQJqtXryZT4etTntWmTZtouU1LY8qfpx8wYMB7773HwvJWkEwzkRWsQshNSKBvFa40U7UOBK2++QuAN998k6xCpyFs80fL/4CAgG3btkmuFc07Sz+x/A4ru1KStV0/H8m5TVFtgvwm6GSiOup00msBq7AHhlIPq3AbV6zi0KFDDz30UI0aNeQ/VH758uWQkBCu/nTI3m2qTlpJwyroKgrw+DNnzlAfUQ7sOcnixYupv5TTOz8/v0qVKuvWrZOc32+g1aJgFSdOnOCPMvhqmrLt0qXLdSddu3alvQjlQ5HspXROTk716tXZk26WWCnTglUIuQkJlFZBkrps2TJ21pVmqtaBaNiwIXvYQs0kKSSr0GkIER0d/fLLL4eFhbFDV4rmnaWVWHmHlV0pydqulQ9Hqwnym6CTieqo00mvBazCHhhKPazCbVyxCuKZZ5557LHH+JNuBm35Sbbq1avXrFkzWrLNmjVL0pi0koZVSM75X7duXRIyUlISNVLe2NhYWoA3bdqUAhEREarTmxazlStXbt68OVWAchasglykYsWKTZ1ERkYePHhQclaMBD08PJyKi4qKYk/V09PTqazGjRtXqlSJvR9mqMq0YBXK3PStYsGCBcHBwSSCM2fOdKWZqnWQnM/fHn30UaozXUsewKqt1RDJ+SqFhj3/UUhXiuadpZVY9Q4LXSnJ2q6VjxzVJshvgk4mqqNOJ70WsAp7YCj1sAq3cdEqdMjNzT1y5Ijyq8tukZ2dnZWVxQ8pbPjLVFQibXe0vgxYWFj4448/Uj7X735ei6lJXl6evCDJKUBHjx4VXNBFlLm5hSvNVKWgoIDazj/axHCrIW4VrZpYeYcZQlfKUc1HjitNMMxEwK30+La2PTCUeliF25Se34ASFp4AKIFV2ANDqYdVuA3tuMXpYlPGjx/vypewQKnlxo0bU6ZMEWcIsCCGUg+rcJvly5fLv6UMQKmFNp0ZGRniDAEWxFDqYRVuc+XKldmzZ4uTBoDSB+2wb926Jc4QYEEMpR5W4QlxcXHCm0kAShsXL17EiwrbYCj1sApPyMzMZN9RAKDUEh8ff+3aNXFuAGtiKPWwCg8ZO3Ys/0YVAKWNTZs2rV+/XpwVwLIYSj2swkNu3LgxfPhwre8oAGBjSBbmzp0rTglgZQylHlbhOXl5eSNGjMDeApQqFixYMH/+fHEyAItjKPWwCq/46aefxowZg/cWoDSQmZlJa6MDBw6I0wBYH0Oph1WYAE2huLi4mTNn4vsWwH5kZ2fTNoJG+Jo1a+7cuSOOfmALDKUeVmEaV65cSU1NTUhImDx5cjzwMQEBAWIU8AE0mJcsWXLhwgVxuAN7YSj1sApgScgqxCgAgKcYSj2sAlgSWAUAJmIo9bAKYElgFQCYiKHUwyqAJYFVAGAihlIPqwCWBFYBgIkYSj2sAlgSWAUAJmIo9bAKYElgFQCYiKHUwyqANSgoKJAfClYhnAUAuIWh1MMqgDVISUnZvXs3P5RbBcXTWX4IAHAXQ6mHVQBr4HA4IiMj+VDkVkE+ERERQWf/kxQA4CaGUg+rAJZh4MCBNWvWZKORWQX5RGhoaGxsrJgUAOAOhlIPqwCWITMzMygoiLkFWQX5RHh4eGBg4Pbt28WkAAB3MJR6WAWwEtHR0bWckFVERETQliIsLExMBABwE0Oph1UAK5GUlPTHP/4xwEndunXp78iRI8VEAAA3MZR6WAWwEg6Ho169eswqiKCgILzQBsB7DKUeVgEsxsCBA5s1a8asokOHDuJpAID7GEo9rAJYjMzMzCeeeIJ8Ai+0ATALQ6mHVQDrER0dTVaBF9oAmIWh1MMqgPVISkrCC20ATMRQ6mEVpQJJkuLi4sT/m2xZxowZQ1ZBf8UTVoaaQ90k9hwAJYKh1MMqrArJSvfu3QsLC8UTCijloEGDLly4INmITZs2iVEWhzpoyJAhEtwC3A8MpR5WYWH27dvXtWvXX3/9VTwhQ7KjT9gVuAW4XxhKPazCYly6dCkvL4/bQ05Ozj//+c97k/wHCT5hNQzd4pdffil2/uj69evX5fE///wzXfvbb7/JIwFwEUOph1VYBpKPli1btmnTpl27djExMSyybNmy//rXv+5N+G8k+IQ10XcLmo8DBgxo3bp1YGDgzJkzWWRycnJoaOjzzz8fFha2f//+e68AwBhDqYdVWIa0tLTu3buz8J07d1hAyyok+ISV0XELmo/r1q2jQG5ubvXq1Slw/vz5ypUr5+fnU3jNmjVNmjQRLgHAEEOph1VYhnPnzgUFBfXu3Xvp0qU3btxgkapWIcEnrI+WW9B8vH37NguXK1eOwmvXruXfWv/111/LlCmjvAoAfQylHlZhJcghVq9e3adPnzp16rBXFEqrkLR94tq1a1fv4nA4xNPuMH/+fC9zcB0PykpOTmYBD651EZ5zUlKSeE52Vr8C169fz8rKOnPmjHjCiapb0Hzk4QoVKlDv007ixRdfZDHMKvhKAgAXMZR6WIVlIMVhLy3pL20vTp8+XaywCknbJ4hKlSpVq1YtyMlbb70lnnaH2rVrX7lyRYz1DR6U9cADD7CAB9e6CM+ZJoh4TnaWOujy5cviaSdHjx6NjIyMioqqXr069Zp42onSLZRWgQdQwHsMpR5WYRlWrlxZt27djh07NmvWrF+/fixSbhWSrk9ITqvYs2ePGCtJ5DonTpyQx9Dh8ePH5cthClPMxYsX2SFtUPgp5eVyioqKaOFMy2ceQ3sa+puTk3Pu3DkWI+QgJHC9LJLLkydPSjKrkF8rNIqVQpEFBQU8jaRbYRJlHslzZlYh5MPPyq2CiqacWW6Ssy3Z2dmS0zOowoWFhSxeQHALpVUUO19r16pVq23btvXr18drbeABhlIPq7ASpAukL8KnJBmSkU9IGlbR2klMTEzDhg1JSSmHFi1aREdHP/fcc61atWJplixZQkr0pz/9iVasK1askGQKKFwuz5mYPn06XdimTZt69erRKGKRNKL69OnTsmXLKVOmSGo5CAlcLCsxMTE4OPjZZ5+lDRO3CnataqOolN69e1N6uuqrr75ikVoVJm9+5plnAgICvvzyS3nOWvnwszywbNkyyvP5558nv1+1ahVLxliwYAFtL+QxAsq9hRJ8WBZ4g6HUwyrsgOSCT0hOq6AdSbST9PR0FsnXwvHx8f3791++fHnnzp1ZDFsa03q5cuXKhw4dYpFs8csVULichRm0gqYS2TJ/6dKlpO8snkYUf5cgqeUgJHCxrKpVq5KPSk65F6xC2SjJWcqsWbMocOrUqSpVqtACX6fCKSkpFPjxxx+rVavGIuVWIeQjP8sCdKpGjRq0L6GYY8eOkanwvcXGjRtDQ0MPHjzIDrVwxS0A8BhDqYdVmMPd/7Vz31CuspWQDtLado8T/iyFRLBjx45RUVENGjR44YUXSMgCAwN79uyZlJTEHjdRAlqM35ORTAqFy+Vp6BQtolnY4XCUKVOGmRmNKPmzGmUOQgJXyiJlj42NZWEqRbAKZaMkZyncXF988cXU1FSdCvOnQ+XKlRPMUpmP/Cz3qpo1a350l8cff/yHH35gl9B2h9yChfWhLhZ7vcQRxz2wC4ZSD6swh/s7i65fv/7ZZ5+5sqsQHkBlZmbWrl2bFssUXrVq1bPPPksBEtMlS5a8/vrrtNolydaxCtXLOSTfXNCZ8jKZ/p3sPbBqDvIEkstl6ViFpGiUdK/Ed+jQgSTelQqXL19e7gHsrJCP/CwL0D0kS/hGRn5+PrukdevWhw8fZmEd/GFXcX8HOfAphlIPqzCH+z6LXHELpVWsXr06OjqahV999VXS37y8PPZGl/7SSpxU7OTJk3QhXwXL19TKy1mYofM8h6dRzUHVKlRTcmjFXa1aNfap05kzZwpWoWyU5Cxlzpw5FMjNza1atar+AygWkDSsQshHfpYFTpw4QdXjT5nOnj3LM6SC+Ot9LfzBJ4r9YJAD32Eo9bAKc/CHWWToFkqroPV18+bNW7ZsGRUV1atXL9LfRYsW0eK9Xbt2TZo06dOnD0u2ePHi4ODgNm3aUOTKlSuluwqovFyeueR8bVCjRo2YmJi6dev+r+wtMU+gmoOqVaimlBMfH09ltW3b9s033xSsQrVRv3O+jqb01LTExEQWaVhhVatQ5iNYheR8ehYSEkLVfuqpp2iHwTMkC9m5cyc/VOInPlHsH4Mc+AhDqYdVmIOfzCJDt1DCvgVWVFTEY0jaaN0t/2Co5Hwgc+zYsUuXLskjJbXLBZSfPRUwzIFjmJL9lqIY60TZKGYAtKLnz4IYhhVWRZmPElZ/9u7dRfzHJ4r9ZpADX2Ao9bAKc/CfWeSBW5ROhL2LH+JXPlHsT4McmI6h1MMqzMGvZhHcwhXWrl0rRvkT/uYTxX42yIG5GEo9rMIc/G0WwS0sjR/6RLH/DXJgIoZSD6swBz+cRXALi+KfPlHsl4McmIWh1MMqzME/ZxHcwnL4rU8U++sgB6ZgKPWwCg8pKCiQHwqzSDh7H4FbWAh/8wmrDHLgPYZSD6vwkJSUlN27d/ND+SyieDrLD+87cAtL4G8+UWypQQ68xFDqYRUe4nA4IiIi+ETis2jXrl0UT2f/k9QPILeIi4uLB37MmDFj/MonirUH+Y4dO/xwkANvMJR6WIXnvPrqqyEhIWwisVlEPlGzZs3+/fuLSQGwJt26dRMGOfkEDfIPP/xQTAqsjKHUwyo8Z8+ePYGBgfXr16eJRLOIfCI0NJRiMjMzxaQAWBMyBhrSYWFhbJDTYa1atYKCgjDIbYah1MMqvKJx48Y0bcgtaBaRT9Dfli1biokAsDKRkZG0jQgPD6fhTTsMGvCtWrUSEwGLYyj1sAqv+Prrr2nmBAcHBzhp0KBBUlKSmAgAKzNx4kRmEmyQN2/eHIPcfhhKPazCKxwOBy242BQiateujXd9wGbQkOaLIaJu3boY5PbDUOphFd7Ss2dPNoVo2YUX2sCWvPzyy2yQR0RE4IW2LTGUeliFt+zZs6dWrVpsFuFdH7AlO3bsYBuLRo0aYZDbEkOph1WYQOPGjQPwQhvYmsjISBrkeKFtVwylHlZhAl9//TXNIrzrAzaGvdzGILcrhlJ/f6zi9u3bW7ZsSUhImOxE/N6q1RgzZgzNIvornrAarDuoXzIyMqiPxG7zJTdv3kxLS2NDQqwW8ANsM8jthynT1lDqS9oqHA4HtWrSpEk7duwQfwTHymzatEmMsjI7d+6kPqLBVwKfdTl16tS4ceMSExP37t0r1gP4EzYb5PbDm2lrKPUlahVr164dP348frfOKlBPffHFF+vXrxc70iRu3bpF64bZs2fr/LtsAIBbeDZtDaW+5KyCFIFqLzYL+D1paWlz584Vu9Nr8vPzBw8enJOTI5YHAPAamrZz5swRZ502hlJfQlZBld62bZvYGmARqO/mzZsndqoXkE8MHTr08uXLYkkAAJOgaev6xxAMpb4krGLPnj3JycliO4CloB7ct2+f2LUecevWLdpPwCcA8DWuT1tDqfe5Vfz888+0fhRbACzIsGHD7ty5I3aw+yQkJJw8eVLMHQDgA1yctoZS73OrSE1NpV2FWH1gQagfV61aJXawm5w6dWrOnDli1gAA30DTduXKleI8VGAo9b61il9//XXUqFFi3YFlGT16tNjHbvLFF1/g804AlCSuTFtDqfetVZw5cwZvKewE9WZeXp7YzS5z8+bNxMREMVMAgC+haXvu3DlxNt6LodT71ioWLFiQnZ0tVhxYFurNRYsWid3sMhs3bsT37AAoYVyZtoZS71urmDhxolhrYHHi4+PFbnYZbCkAuC9MmjRJnI33Yij1vrWKCRMmiFX2AVlZWYWFhWJs6aNk7oPhmNMhISFBzA5oc84JC/u6c3n+x48fV32ZxBPIa6JVqwMHDgwdOvT69eviCf/g2rVrVHMvfzZCq+0+xeNCDaetodT7hVV8+umnL730kscDq2bNmlRDMdbKzJo1Kzc3V4w1omTug+GY08EVq+jdu3dMTExeXh6P+ctf/hIdHX3w4EFZKmM8u4d+xUcfffTJJ5+wsK87l+dfrVo11Y8s8gTymvCw8m73799/3Lhx8hg/4dtvvw0MDGzevLmXr1F93SOqeFzoxIkTxdl4L4ZSf/+t4uzZs+XLlw8KCvL4x8i2bdt28eJFMdbK0N3wYECUzH3wtVVERkZWrVp16tSp7PDMmTPVq1d/6KGHdu7ceW9CAzy7h36F3Cp83bk8fy2r4AnkasUjlXfb4XCMHDnSp3X2DFqLjB8/Xox1H1/3iCoeF2oHqyD5aNeu3YgRI1599VUeeenSpc8++yw2NpbOLlu2bOXKlTrxdC3tmlkC2p3ROOjSpQstao4cOcIihwwZsmPHjg8++KBnz57scNeuXXTYuXPnpKQkloZITU196623aH9D8/PUqVM8nkMX0q145513XnnllZSUFB4pz5z2RtOnT+/Ro0efPn3o7smvVRaqWltaoFWoUKF79+4U+c0336jWikrsL4PkW5LdB9VsJY06aFVYixKwigEDBrRo0YIdTp48+d133y1btiyzCtWm0SLjtdde69Sp0/vvv3/48GFJcQ+FPlK9pXK07olyIMkPVevm4vDgFBQU0CU0wuk+f/jhh9wqeOcqG6s6LCXt+ijHgCTLn6xi7dq1ytx4ArlVsEjhbksu3GHVagwcOJDrIBW9evVqFlY2ZMWKFYsWLWJniXXr1rFMDMv9+uuvQ0ND27RpQ1mdPHlSNb3yDpPtUa/16tWrW7duM2bMYMn4DVHNREDZBEkxNlTzEdK4VagcO1hFkyZNqNfp9tHegj89jI6OppG3ZcuWzz//vFKlSnzCqMbLx27Hjh07dOiwefPmuLg4SsB+jY5Gf+PGjefNm7dmzRp22KxZs4ULFy5ZsoTSbNy4kV1L+2Xynq1bt1K2DRo0uHbtGovn0IUUT4OYXIqWUWywCpmTBJDzUQUo/4CAAL4WVi1UtbZ0SeXKlUlVacYeO3ZMtVbZ2dkr70I3kAaxJLsPqtlq1UGrwlqUgFVQ9erVq7d//346pHtLjeJWoWwajZwqVaosXbqUFlwzZ85kyYR7KPSR6i2Vo3VPlANJfqismzKNVs6cF154gQSFRvjgwYMrVqzIRz7rXNXGqg5LSbs+yjHA89fJTecBlHC3JRfusGo1HnjgAf41fpLUQYMGsbCyIRQODg4mBWcJKKv58+dLLpT7/fffR0VF0VqEqkrrTmV61Tv8+uuvP/3003QJlcs1jd8HZSbyEhnKJkiKsaGaj5DGrULlWN4qaGXx2GOPsZ8DIhuYNm0aBXbv3v3II4/Q8oqliYmJYRNGK57fPhKXcuXKnT9/niUgyyUTlpy3m+41i2SHNBRYmEbkp59+yk8VFRWRaR88eJAmifJjnXQhX1PQSoqtfOWZ0xqEDI/XkLqTpIGFlYVq1VZSbOd1akVF0EiiQS/dvQ862SrroFNhLUrGKkaNGkWdS8ODpgFFMqtQbVpGRkadOnXk7zYY8nsoDABJ95bq3BPlQOKHqnUT0ujkzNi3bx8tz/Pz89khyZNgFaqNVR2WOvVRHfxyq1DmJk+gtApJMWIl3TssaVRD1SpUG0KbM9ocbNiwgWIo80cffZT/pJh+uQRtF5jOMIT0yjt86NChhx9++PTp0zyGIb8P+oWqNkFSDCdJLR8hjeuFCljeKmiL99xzz33jhKyeDF9y7q1I/niad999l00YrXh++2hbSkLDE9DOg+3a6HbLl290SK7DwiNHjuzbty8L0zqObjo5UPv27cmT0tPT+SUMupD3E+0KadHHInnmq1atIlGjOkRERISHh9PCh5aQ/FqhUK3aSvdOPJ1a0WSjIrKystghuw862SrroFNhLUrGKmgOUGXee+89NoSYVag2jZaWb7zxBilsq1at4uPj+edDBKuQDwCdWyoZdaIwkPihat2ENDo5M2iEN2rUiB/269dPsArVxqoOS536qA7+/8femcd3Udz/v7UqArXKnQNIOISEECSASBEstIqUWxRRqVIQlUMtlPtIoiCQBCzKFQg3hPsmkaiA1gIhAVqQAAmEiNwJCflkQVr8FeX3/n6mWTfz2eOTfD6Tz+7m9fwjj93Z2Zn3zs68XjOf/Xw2SqtwLU2ZwR2r0G9hSSMMVavQupCJEyeyxfR77703aNAgdtSwXqmkVbjmd21hmrzT/SpZxv8hX7trIVxOrUtwp1tyedyvlMPaVkG3gdZiZA8diiH3JgdmX1GQs9F6nA0YrXS5+WhGoMxA3kNaIzmbW/mkTrlL3ZT1M7LlWrVqsek5QeWwOYsSOlFOTE5OpnkNS5RL++KLL+j+FWcvgWulWtFKioGnE9W+fftopezajXSKdY1BJ2AtyscqaKNTp07UH9jnsMwqdC6Nmmjz5s2ks6orM+WF6zQpQ6dNdDqSVmxudg/G7t276SbKu/369eOsgm1zF6vaLd2JR+78UkmrcC1NmcHQKgxbWNIIg6be7IN44rXXXmNWoXUhbIlG038/Pz/2Dw7cqVdSWIVOfmUL79mzh6ItPvtn2LXrFCKjdQnudEuuy7lfKYe1rWLlypVBQUHKlL59+9LYIAupW7fuJ598QikUAHUINmC00uX+Sit3aln2LC47O7tOnTryZ8paI1zuplQgpbNl7KpVq+iqXVufMpA/FTl5/vnnadLHEuXS6HS6InnOQrvssRiXjVWqFS1BfXTt2rWSdlRULI0QmqWy/AzWDjrFusagE7AW5WYV//znP+UvxTGrUL20M2fOyEt75QRTbkOp5IVrNamMTpvodCTV2Lg8OiUzqBCy/23btknO3zfQbJGzCtWLVe2W7sSjZRWupSkzqFqFsrUNW1jSCCMsLIx92EKXSVLIrELrQiTnR9a9evVq0qQJ23WnXklhFar5XVuYMtBlynft/PnzbINdu2ohLIOM1iUoG0GrHGUeqTSVcljbKp555pnRo0crU2ilRgpYWFj4j3/84/HHH6c1xx/+8AeaW9GSjWVQTVf2XVqI0QQnPDyc8siPxbjmVu2mNDB69uxJ57Zs2ZI2aMnp2vp0Io2cpk2bNmrUiBZD7ONLrnBSNOrxjRs3joiIILdfuHChfK5rparREsuXLw8MDKQuNX/+fNWoIiMjST0bFNO7d29J0Q5axarGoBWwFuVmFUrkx9qul0bCWq1atZZO6Fz55xdyGy5YsEB54e7caK020elIklpsrnm0SpahyWyNGjVatWpF2UjUOKtQvVjVbim5EY+WVaiWpm8VytZ2p4VVw1i/fv1vfvMbCphOJA+QY1a9EMn5KIXU6f3332e77tQrKaxCNb9qC5MMUmuQJ5Ejkj+xcti1qxaiqO1/qF6CO92S6z+lqlSJta3CTVq3bq38YpxhOrXjyZMnmeWWlszMTJ2XVrHbRmte+fGAFjk5ORkZGaq/euVwJ1r9qFRxp1gl7gcs2ioMcb00Wm5+88031EpFbv+K050mdb9NZFxjU0W/ZEo/fvz4jRs3+ANOXC9Wp1u6GY8rqqWVCnda2JXc3Fy6dvmrTTLuX0hp63XN79rCDMqm1SauhbjiziW4U45MqTIbDltDqRdrFWV+BxRpCi04YmNju3XrRlYsDyqt9PKBc/iKCd4BZTbQLYEhZrcK9tOwMkBzrr/97W/R0dErVqy4fv26YXr5MG3aNHd+7WJvyKf52+w2s2fP5osDHoNuCQwxnOEZSr1Yq1izZo3y18LA6tDdXLduHX+b3SYlJUX+iiQAoHygYbt27Vp+NJbEUOrFWkVubu6CBQv4wIFlWbhwIS3m+NvsNnfu3PHK4woAgPu4M2wNpV6sVRBTpkxx/2EjMDN0H935z4v6zJo1y8OXPwMA3MfNYWso9cKtIjU1Vf4eNLA0W7duTUtL429wKSksLCzzEywAQGkh+T106BA/Dl0wlHrhVkFER0e7vqIHWAu6gx988AF/a8vE9u3bDd9DAADwHBq277//Pj8C1TCU+vKwips3b44fP17re+LA/NC9mzhxIt1H/taWlcWLF3/55Zd8NQAA70HDdsKECW4OW0OpLw+rIMjcKGisLazIpUuXyCfo3vE31TOWLVu2fPlyvjIAgDegAVuqYWso9eVkFcStW7eio6O3bt3KXxMwMdu2baMFLN07/nZ6g6NHj06aNCktLY2vFQDgAWUYtoZSX35WwSBdiIqKWrBgAX5vYWbo7tA9Imv3/Dm2Pnfv3t2yZQtVRIsM999SAABwxZNhayj15W0VjOvXr69fvz4uLi42NjbGFvj5+fFJ1oTuCN0XujuGX8T2LpcvX169enWsEz4mYA5s08nth+fD1lDqfWMV9oNGEZ8EgL1AJ7cxhlIPq/AOGEXA9qCT2xhDqYdVeAeMImB70MltjKHUwyq8A0YRsD3o5DbGUOphFd4BowjYHnRyG2Mo9bAK74BRBGwPOrmNMZR6WIV3wCgCtged3MYYSj2soozk5uYqd7lRxB0FwAbAKmyModTDKspIYmJiamqqvKscRZROR+VdAOwBrMLGGEo9rKKMOByOkJAQ2S3kUXTgwAFKp6M/ZwXAFsAqbIyh1MMqys4rr7xSv3595hZsFJFP1KtXb9iwYXxWAKwPrMLGGEo9rKLspKWl+fv7N27cmNyCRhH5RFBQEKWU4V1dAJgfWIWNMZR6WIVHhIeHBwQEPPbYYzSKgoOD6W+7du34TADYAliFjTGUeliFR3zyyScBTvychIWFJSQk8JkAsAWwChtjKPWwCo9wOBz16tVjPkE0aNAAD7SBXYFV2BhDqYdVeMrLL7/MfCI4OBgPtIGNgVXYGEOph1V4SlpaWv369WkUhYSE4IE2sDGwChtjKPWwCi8QHh7uhwfawO7AKmyModTDKrzAJ598QqMID7SBvYFV2BhDqTepVfzwww8pKSnsn2+b/58tv//++zSK6C9/wGSwxty+ffvt27f5FgfACFiFjTGUetNZhcPhIIeYOXPmgQMHJOuQnJzMJ5mV9PR0auEPPvggOzubb30AtIFV2BhDqTeXVdCE98MPP7x8+TIvb8DbFBQUxMfH01LjP//5D38bAFADVmFjDKXeRFaxePHiHTt28JIGREILizFjxly9epW/GQC4AKuwMYZSbxarSEhI2Lt3L69kQDx5eXnjxo2DWwBDYBU2xlDqTWEVhw8fXrp0Ka9hoLwgt6C1BT6JAvrAKmyModT73iru3r07YcIEXr1A+XL27NnY2Fj+3gCgAFZhYwyl3vdWsXHjxkOHDvHSBcqd+Ph4Mgz+9gBQDKzCxhhKve+tIioqihct4AsKCgqmTp3K3x4AioFV2BhDqfexVVy4cAFPKcxDbGwsfp0HtIBV2BhDqfexVaxcuTIrK4tXLOAj0tPTd+zYwd8kAJzAKmyModT72CpiYmJ4uQI+JS4ujr9JADiBVdgYQ6n3sVXMnDmT1yphFBYWZmZmWu6n4BecsG2KPz8/n23Ll6NM9Bx8DwpoAauwMYZSbwGr+Oyzz3r06BEUFNSsWbMBAwakpqbyOdzg888/9/f3b9WqleUejbz77rsjR45k2/Xq1aN7IZW8HDnRK9A6j79JADiBVdgYQ6k3u1UkJiZWqVJl2rRpR48ePX369Ny5c19++WU+kxuQx1AhfKoVUFrF3r17r1y5IpW8HDnRK8AqgBawChtjKPWmtoqCggLqnTNmzFAm3rhxg23k5+eTXPbp02fYsGEZGRkscdy4cQcPHhw6dGjv3r0TEhJY4scffxwcHNypUyfKefbs2aKionnz5vXr12/gwIF0gfKJ+/fvpxNfeukltnvgwIG33367Z8+eGzZsoLqmTJlC27GxsXQ6O2X9+vWvv/46rXhIys+dO8cSlbhTiOpV5Obm0rmUk9pnxIgRslVMmjSJ/JK7HJbIMjgcDrq0/v379+3bd/78+ZIbQXLAKoAWsAobYyj1praKL7/8kmr/7rvv+ANOunXr1rVr108//TQ6Orp69erZ2dmUWLt27YiIiBUrVqxevZoSd+3aRYlff/1127Zthw8fvnXr1qtXr5JDdOnShU6kbNT72dvO6cTw8PAlS5Zs2bKF7bZu3ZrWNPHx8ZUrVybVnj17Nh0KCgpatmwZC2Dq1KkbN27cs2cPqXCzZs0KCwt/Ds6JO4WoXsWzzz5L5rF79+6xY8dWq1aN+wCKuxzlB1Cvvvpqu3btKJ0KnD59uuRGkBywCqAFrMLGGEq9qa1i3bp1VapU4VOdHDlyhMT30qVLbJdmzTS5lpzqvGbNGpZIk+5Ro0ax7e7du8+dO5c2Tpw4QWXStJ2lk5KSc7ATySdYItsliWfbnTt3ppUB246KimL5GbTuoRn9sWPHAgIC0tPT5XSGYSGqV3H48OGqVateu3aNJZL0uz6rkC9HmXj8+PGHHnro22+/Zeky+kFywCqAFrAKG2Mo9aa2iuTkZKpdlnUlGzZsCA0NlXcnT57MPjgidZafe0+ZMmXw4MFsW9bWTZs2VapUic4NCQlp2rRpYGAgrTDYicp/pqQsp2/fvnFxcWx7zpw5vXv3Zts05Sfx7dix43PPPffwww8nJSWxdBnDQlSvYv369c2bN5cThwwZ4qZV0OqBLqr4vP9hGCQHrAJoAauwMYZSb2qruHz5Mk2TSTr5A5KUkpLi7+8v7w4fPvytt96SnOosv1GKrGLQoEFsW9bWL774gqSz+LyfUZ7I7ZLKz5o1i22Tyvfq1Uty/lqtVq1aV69eZekUzM6dO9m2jGEhqlexe/duUn85sV+/fm5axZ49e6jG4vP+D3eC5IBVAC1gFTbGUOpNbRXEmDFjgoKC5Pn+iRMnpk6dShvXrl2TP97Jzs6uU6eO/IxB3yry8vKoQFlnaZfK5E7kdlVVnlqG8tDptL1q1SpqJVcVNixE9SoosWbNmtu2baPE06dP01LATaugYGhbTj9//rw7QXLAKoAWsAobYyj1ZrcKh8MxefLkRx55JDAwsHHjxrQgiI+PZ4eSkpJoNzw8vHr16uQoLNHQKggynrCwMCotIiKCJtoLFy7kTuR2VVW+qKioZ8+eFEDLli1pIyQkxFWFDQuRNK5i8+bNNWrUaNWqFcVJkbtpFZLTwBo1atSkSZPmzZt36NDBnSA5YBVAC1iFjTGUerNbBePGjRvffPPNmTNnuHSSwpMnT7JZc2nJycnJyMgoKCjgD5SGzMxMz99hpXoVFNjx48flbwaXCgqJApN3SxUkfq0NtIBV2BhDqfexVeAdUGYD74ACWsAqbIyh1PvYKvBmWVOBN8sCHWAVNsZQ6n1sFfh/FaYC/68C6ACrsDGGUu9jq7iH/4JnGvBf8IA+sAobYyj1vrcK/G9tk4D/rQ30gVXYGEOp971V3L17d8KECbxugfKFTALffQL6wCpsjKHU+94qiMOHD+OJhQ/Jy8sbM2bMf/7zH/7GAKAAVmFjDKXeFFZBJCQk7N27l9cwIB7yiXHjxl29epW/JQCUBFZhYwyl3ixWQSxevHjHjh28kgGRZGdn03oCPgHcAVZhYwyl3kRWQWzfvv3DDz+03L+/tiIFBQXx8fExMTH43Am4CazCxhhKvbmsgnA4HHFxcTNnzlS+Ehx4kfT0dGrhDz74gJYUfOsDoA2swsYYSr3prILxww8/pKSkkKLFOokxPTSK+CTzwRqTlm74nR0oA7AKG2Mo9Sa1CsuBUQRsDzq5jTGUeliFd8AoArYHndzGGEo9rMI7YBQB24NObmMMpR5W4R0wioDtQSe3MYZSD6vwDhhFwPagk9sYQ6mHVXgHjKLyRJKk8ePHFxUV8QeASNDJbYyh1MMqvANGUbnBfCIzM3P06NFwi/IEndzGGEo9rMI7YBSVD8wnrly5QhuXL1+GW5Qn6OQ2xlDqYRXeAaOoHFD6BANuUZ6gk9sYQ6mHVXgHjCLRuPoE3KKcQSe3MYZSD6vwDhhFQtHyCQbconxAJ7cxhlIPq/AOGEXikHR9ggG3KAfQyW2ModTDKrwDRpGb5ObmJiYmOhwO/oAGkhs+wSitW1AMFAnFwx8AGqCT2xhDqYdVeAeMIvdJTU0NDQ0dMGBAeno6f6wkkts+wXDTLajeoUOHNmnShCLhjwFt0MltjKHUwyq8A0ZRqSCNDg4O9vf3Dw8P/+STT1QXGVIpfYKh4xZUS0JCwpNPPkn1BgYGfvnll3wOoAs6uY0xlHpYhXfAKCot5BYhISFBQUEBAQH16tXr37+/cpEhlcknGK5uwZYRZE60mqE7RdXBJ8oAOrmNMZR6WIV3wCgqA8wtGjZs6Oekfv36bJFx8eLFMvsEg7nFhQsX2DKCaiGfYLXAJ8oMOrmNMZR6WIV3YDIEvMWqVat4+S8lVAJfKPAYvt8Du2Ao9bAK4DNoVdG0aVN5vh8UFNSiRYt58+Z5d1XRrl270NBQee1Cq4p9+/bxoQBQsTGUelgF8A3MJ0i4AwMD6e+rr74q9FnFsGHDGjRo0Lx5c7gFAK4YSj2sAvgA+RtQbBlRnt+AokUG+wYU3AIAGUOph1WA8ob9ruK1117z4e8qaJGB31UAIGMo9bAKUK7g19oAmBBDqYdVALMjueEWpfUJAIASQ6mHVQALIOm6BXwCAA8xlHpYBbAGkoZbwCcA8BxDqYdVAMvg6hbwCQC8gqHUwyqAlVC6BXwCAG9hKPWwCmAxmFtkZmbCJwDwFoZSD6sA1oPcws/PDz4BgLcwlHpYBbAkeHUdAF7EUOphFcCSwCoA8CKGUg+rAJYEVgGAFzGUelgFsCSwCgC8iKHUwyqAJYFVAOBFDKUeVgEsCawCAC9iKPWwCmBJYBUAeBFDqYdVAEsCqwDAixhKPawCWBJYBQBexFDqYRXAksAqAPAihlLvllXMmTPnKwDMBFkFnwQAKCsk8l6wCgDMBlkFnwQA8IyyW0VRUdHfATAfZBV8EgDAM3RewWlgFQCYEzyrAKA8gVUASwKrAKA8gVUASwKrAKA8gVUASwKrAKA8gVUASwKrAKA8gVUASwKrAKA8gVUASwKrAKA8KaNVOBwO/td+wPokJSXNmTOH/vIHzAd+rQ2AKjq/jfCEMlrFV/gVN/Ap+LU2AKr8XfsX157gkVV8/PHH/K/9gJWhG2qV24pfawPAYfgeJ0/wyCoExQR8Bbut9Jc/YD7wrAIADqGy7B2rOH/+/JGSnDx5kh0io1u1apXrtvuU7SxV5DiPHz9eWFjIHzYxXmwEHWAVAFgXC1jFwIED77vvvqoKnnjiCXaod+/eI0aMYNsvv/zyX//6V7btPmU7SxWK8/77769Ro8ZvfvMbiv+ZZ565du0an0kMw4cPj4mJ4VPdxouNoAOsAgDrYg2r+N3vflciRzFKq/A5yjhPnTrl7+/fr1+/EjmE0b1797/85S98qsmAVQBgXexjFbNnz16+fDnb/vDDD9etW7dgwYJ27dp16NAhKSnpp59+mjNnTtu2bWmy/+WXX8olyGexUxYvXvzb3/726aeflosi9u/fTzHQue3btx89erTD4ZAPKeHiHDNmjKw4VPjatWspHiph8ODBLDE5OZkkvmXLluQo//znP+WcWmEQtNupU6fHH3/8tddey87OZokLFy4MCAho0qRJfydXrlzRCjgrK4vlkfnggw/ulWw6rVr0A1O9Fg5YBQDWxRpWQdr0XwU//vgjO6S0CuX2H/7wh7p169KJu3btGjVq1P33308CPWTIENodNmxY1apVr1+/zp1Fp9SrV+/ll1/euXPnjBkz7rvvvr1797I8f/vb30hMv/jiix07djz11FMdO3Zk6RycVQwaNKhx48ZsmwoPDAykujZu3Pjpp5/ec8rxr3/965iYGKolOjq6cuXK33zzDcupFcYnn3xC2cjwUlJSevXqVbNmzRs3blD6kSNHWrduTUq92cnNmze1As7Pz19fzIoVKx599FEyg3slm06rFp3AtK6FA1YBgHWxhlX8oiRvvPEGO6RjFTSnZtu0niDbILNhu3fv3q1evTppJXcWnUKCS5lZ+nPPPaf60RapLQWQmZnJH3DGSdNqmtFT/NOnTyd/ioqKYoeo8GbNmsmFk9vVqlVr7ty58rl//vOfX3nlFZZTNQw6pVq1arNmzWLptBsUFBQZGcl2dT6AUg2YyqclRXh4uCRJ9xSNoFOLTmBa18IBqwDAuljDKkj3sxW4rgm4bdI1pXT+9re/HT9+vLxLEknzbrattArlKbT46Nu3L9um6iZOnNi5c2c6MSws7Je//OXu3bvlnDIU54MPPkirh+Dg4A4dOtD0nGSUHaLCqUA5Z0ZGBl3g0KFDaQ5OdkJa3KVLlxYtWrCcqmHQVdMpdKJ8iNZJPXr0YNucVRgGTEf9/f0vXrzIduVG0KlFKzCda+F45513KCdZKX/AfMAqAOCwhlW486yCswqlNzz11FMkZPLu448/Lk+clVahPIUS6RDbfuKJJ7p16/b555+fOHHi9OnTDzzwwPbt2+WcMjpxcoWnp6fTBY4dO3amgoULF7rmlMM4fvw4nZKTkyMfIuUlM2DbnFXoB7x8+fIqVaocOXJETpEbQacWrcB0rkXJyJEjKRv95dLNCawCAA5YhYFVXLt2jYI5c+YMS6cN2vXQKm7cuHHfffdt2bJFkeV/aIVx8+ZNWhzs2LFDPvT0008PGTKEbVOed999l23rB7xv375KlSopy7mnaASdWrQC07kWGWv5xD1YBQAuWMMqaJqcqUDWwXKwitu3b9OsPD4+nrYlSerSpQuJqYdWQbz22msNGzaUH//S3H/Pnj2uOZWLm1deeYUiZ7/VSExMpDBoRs8Ovffee+3bt8/Nzb1169b333+vFTC126OPPip/+CajbDqtWnQC07oWhuV84h6sAgAXrGEVvyhJ1apV2aFysApi3rx5Dz74IMnHr3/9648++ohq99wqSNAHDRp0//33V69enQqkv4sWLXLNqQwjLy+PyqcpPMl9lSpV5syZI2fLycmha6TEXzifYGsFvGTJEq4lWcDKptOqRScwrWu5Z02fuAerAMAFC1iFGSgqKsrIyGDfF/IiN2/ePHHixHfffXf37l3+mAaXLl2iU2itwx8oiYcBu1mLEtdrsahP3INVAOCCUFm2j1WA0mJdn7gHqwDABaGyDKuooFjaJ+7BKgBwQagswyoqIlb3iXuwCgBcECrLZbSKpKSkXzj/B85XwGqw39lZ2ifuwSoAcOErE1oF+3dLwKJY3SfuwSoAcMGMVoFVhXWxxHs7DIFVAMDxlQmtQmhMABgCqwCAQ6gswyqAJYFVAMAhVJZhFcCSwCoA4BAqy7AKYA1yc3OVu5xVcEcBqIAIlWVYBbAGiYmJqamp8q7SKiidjsq7AFRMhMoyrAJYA4fDERoaKruFbBWUQula/00dgIqDUFmGVQDLMGLEiPr16zO3YFZB2w0aNOjVqxefFYCKh1BZhlUAy5CWlhYQEEDeQA5BVsHWE/7+/ty/gQKgYiJUlmEVwEq0b9+euQVZRbNmzcLDwxs2bMhnAqBCIlSWYRXASiQkJERERPg5efLJJ+mvDV5SAoBXECrLsApgJRwOBy0jmFUQ/v7+169f5zMBUCERKsuwCmAxRowY0aRJE2YVnTp14g8DUFERKsuwCmAx0tLSwsLCmFXggTYAMkJlGVYBrEf79u3JJ/BAGwAlQmUZVgGsR0JCgh8eaANQEqGyDKsoP3744YeUlJTZs2fPmjUrDnjA1KlTySqio6P5A6A0zHKyc+fO27dv850VWBChsgyrKA8cDgeNydjY2IMHD0rAGyQnJ/NJoEykp6fT9GXatGk5OTl8xwWWQqgswyqEs3379hkzZly+fJkfowCYhoKCgkWLFtFs5s6dO3wPBhZBqCzDKsSSkJBAC3x+XAJgSrKzs8eOHYs3ulsUobIMqxDIkiVL9u3bxw9HAExMXl7e+PHjr127xvdmYHqEyjKsQhSHDx9eunQpPxABMD3kFrS2wCdRlkOoLMMqhHD37t0JEybwQxAAi3D27Nm4uDi+WwNzI1SWYRVC2LRp06FDh/jxB4B1iI+Pz87O5ns2MDFCZRlWIYSoqCh+5AFgKQoKCqZNm8b3bGBihMoyrML7XLhwAU8pgA2Ii4vDr/MshFBZhlV4n5UrV2ZlZfHDDgCrkZ6evnPnTr5/A7MiVJZhFd5n5syZ/JgDwJrg4baFECrLsArvM2PGDH7AeUBmZmZ+fj6fqksZTrEH5XDhF5zwqaVEjrNUAZcqs7eIjY3l+zcwK0JlGVbhfQyt4ujRo88//3zDhg0bN278xz/+ce/evXwOBfXq1aN25lN1KcMpZmPhwoU5OTl8qhHlcOHvvvvuyJEj+dRSIsdZqoBLldlbxMTE8P0bmBWhsgyr8D76VlFQUFC3bt0xY8bQJPHkyZNLly5NSkriMykog0CQ91y5coVPtRQBAQGlvWqpXC7cu1ZRqoBLldlbwCoshFBZhlV4H32rOHLkCDVdXl4ef0CSioqK5s2b169fv4EDB1ILs0RZVlSP7t+/f5gC9phk0qRJp0+fZhny8/OnTZvWp08fOpqRkcESx40bd/DgwaFDh/bu3TshIYElrl+//vXXX+/RowdJ4blz51giB51IwbzxxhsvvPBCYmKinEhhUGkvvfSSpBEny+ZaqWp4tKSoWrXqiy++SImfffaZamD6F65arKQRg1bAMrm5uXRiz549qZYRI0bIVqEamBKtkuV7KgdM5R84cODtt9+mWjZs2EDxT5kyhbZjY2OpEHaWMrPrVUga8bh5d7SAVVgIobIMq/A++lZBE8OHH354yJAh//jHPwoLC5WHaPR26dLl008/XbFihZ+fH2mHpJAV1aNZWVkbi2nRokX//v2VpxDdunXr2rUrnRUdHV29evXs7GxKrF27dkREBJWzevVqSty1axclTp06lQrZs2cPCU2zZs242Bh0Ih0ik1i7di1N/FeuXMkSw8PDlyxZsmXLFkkjTpbNtVLV8OiUGjVqxMXFbd269dSpU6qB6V+4arFaMWgFLPPss8+S6+zevXvs2LHVqlWTrUI1MCVaJbt+AEWBtW7dmho2Pj6+cuXKZBKzZ8+m9gwKClq2bBl3lupVSBrxuHl3tIBVWAihsgyr8D76VkF88cUXHTt2vP/++x955BGaBn733XeUeOLEiSpVqtAEluWhYU+jWioWCK2jMpRCinD16lX5FMm5giHduXTpEstD802amUpO+VizZg1LpHn3qFGj2HZBQQHNW48dO0Y2kJ6ezhKV0Inz589n2zT3b9OmDUskJWKJOnG6VqoVnuTyAZROYK4XrlOsaww6ATMOHz5MS5xr166x3Xbt2ik/gNIJTKdkVauQV2mdO3em5QXbjoqKcj3L9SrYtqQWj5t3RwtYhYUQKsuwCu9jaBUMGrE7duwIDQ2lKSTtbtq0qVKlSrQbEhLStGnTwMBAmv1JxQKhdZRBwkEpmZmZbFfWlA0bNtApcrbJkyezTyFIPlJTU1nilClTBg8eTBs0ZSZ9IQ977rnnaN2j+gSFTpQVfP/+/TTFZony5FQnTtdKtcKTSlqFTmCqF65TrGsMOgEz1q9f37x5c3mXloOyVegEJuk2hapVyIH17duXVlRse86cOb179+bOcr0Ktq0aj5t3RwtYhYUQKsuwCu/jplUwVq5cSYNZci41aJzzh4sFQusosW/fvpo1ayo/SZA1JSUlxd/fX04fPnz4W2+9JTnlQ35FFWnNoEGDaAZaq1YtNjcn6CzVf7NBJ8rpycnJwcHBLFEuTSdO10q1wpMUVqETmNaF6xTrGoNOwIzdu3dTsfJuv379mFXoBMbQKVnVKuTAyCpmzZrFtskqevXqxZ3lehWSdjxu3h0tYBUWQqgswyq8j75VnDlzZu3atQ6Hg7Zv3Ljx2muvdejQQXK++TkoKGju3LksG+2eOHFCKhYIraP018/Pj2aLLJ0ha8q1a9dqF3+ykZ2dXadOHfaBtavW0A2lRPawfdWqVXRztayiT58+RU6ef/55mmKzRLk0rTi5bKxSrfAImshTK9GGVmA6F65TrGsMOgEzqDQypG3bttH26dOnabbOrEIrMBmdkkVYhVY8bt4dLWAVFkKoLMMqvI++VWRmZrZo0aJq1aqhoaHVq1ePiIg4evQoO0QT5LCwsMaNG1MizQoXLlwoKQRC9WhkZGSlSpUaFMM+rJBPIZKSkmgiGR4eTnWNGTOGJbpqDUl/z549KWfLli1pIyQkRMsqyB6aNm3aqFGjtm3bfvvttyxR+Rpd1Ti5bLLAqYZHLF++PDAwkFR+/vz5qoHpX7hWsaoxaAUss3nz5ho1arRq1Yqyde/enVmFOy2mVbIIq9CKx827owWswkIIlWVYhffRtwrGlStX/vWvf7EH2hw5OTkZGRkFBQX8ASf6R1UhETl58iSbb+pDNqb/9iqmOxcvXpQfD2jhfpzuhGcYmCvuFKtEP2BKP378OK0CuXR3AtMv2bu4E49UmpDwa20LIVSWYRXex8bvgOKmqMD2wCoshFBZhlV4HxtbxbRp01R/awbsCl4XaCGEyjKswvskJiYqfyEMgEU5cOBASkoK37+BWREqy7AK75OXl7dgwQJ+2AFgNWJiYu7cucP3b2BWhMoyrEIIkZGR8qt7ALAily5dwoMKayFUlmEVQkhNTZW/yw+AFZk+fXphYSHfs4GJESrLsApRREdHX7x4kR9/AFiBnTt3btu2je/TwNwIlWVYhShu3rw5fvx412/iA2By9u7du2jRIr5DA9MjVJZhFQKhVQW5BdYWwEIsXbp0yZIlfFcGVkCoLMMqxHLr1q2oqCg8twDmJy0tbcKECYcPH+Y7MbAIQmUZVlEeHDp0KDIycv78+fi9BTAbWVlZtJKg/rlx48a7d+/yfRdYB6GyDKsoP65fv75u3bqYmJiZwGP8/Pz4JFB6qDeuXLnywoULfGcFFkSoLMMqgCUhq+CTAKjYCJVlWAWwJLAKADiEyjKsAlgSWAUAHEJlGVYBLAmsAgAOobIMqwCWBFYBAIdQWYZVAEsCqwCAQ6gswyqAJYFVAMAhVJZhFcAa5ObmKnc5q+COAlABESrLsApgDRITE1NTU+VdpVVQOh2VdwGomAiVZVgFsAYOhyM0NFR2C9kqKIXS6ejPWQGokAiVZVgFsAwjRoyoX78+cwtmFbTdoEGDXr168VkBqHgIlWVYBbAMaWlpAQEBwcHB5BBkFWw94e/vn5SUxGcFoOIhVJZhFcBKtG/fntyCVhJkFc2aNQsLC2vUqBGfCYAKiVBZhlUAK5GQkNCqVSs/J61bt6a/o0aN4jMBUCERKsuwCmAlHA4HLSOYVRD+/v75+fl8JgAqJEJlGVYBLMaIESNCQkKYVXTu3Jk/DEBFRagswyqAxUhLS2vevDmzCjzQBkBGqCzDKoD1aN++PfkEHmgDoESoLMMqgPVISEjwwwNtAEoiVJZhFebl9u3bO3funDVrVhwoydSpU8kq3n//ff5AhWeWE+o21Hn4/gTsjlBZhlWYkZycnGnTps2ePTs9PV0CaiQnJ/NJoJjDhw9/9NFHH374IXUkvm8B+yJUlmEV5uLOnTuxsbGLFi0qKCjgBQCA0kBdKCEhgRYZ1Kn4fgbsiFBZhlWYiNzc3LFjx2ZnZ/ODHoCycu7cufHjx+Ml7RUBobIMqzALNJhpSOfl5fFjHQDPoE41ceJEuIXtESrLsApTcOfOHVpPwCeAIKhr0UQEn0TZG6GyDKswBXFxcWfPnuXHNwDeIzs7e/bs2XzPAzZCqCzDKnwPjeH4+Hh+ZAPgbRISEs6dO8f3P2AXhMoyrML3TJs2Dd93AuUAdbMZM2bw/Q/YBaGyDKvwMbdv346Li+PHNABi+Oijj/DrPLsiVJZhFT5m586d+J0dKDeOHj26a9cuvhcCWyBUlmEVPgZLClCe3Lp1Cw+37YpQWYZV+JjY2Fh+NHuVzMzM/Px8tl1YWEi7ly9f5tLFUT612INyaytYhV0RKsuwCh9jaBVvv/320qVLlSlff/11ly5dbty4oUzUol69enSbaOPzzz/39/dv1aoVK01OF4p+LQsXLszJyeFTrU/Zrku/rbzIrFmz+F4IbIFQWYZV+BhDq6AMLVu2VKb8+c9/fuWVV5QpOuzdu/fKlSu0MWDAgGnTprmmC0W/loCAgPIRx3KmbNel31ZeBFZhV4TKMqzCxxhaxfnz5x988MHU1FS2m5eX98gjj3z66ae0XVRUNG/evH79+g0cOJDuCMswbty4/fv3Dx069KWXXqLdSZMmnT59+uOPPw4ODu7UqdOwYcPYb/1YOm04HA4qpH///n379p0/fz4rZP369a+//nqPHj1Gjhx57tw5lqhEterk5GTysO7du9NK6MSJE5KiFtejNPWuWrXqiy++SCF99tlnWmXS5Rw8eJAup3fv3gkJCSyRLnCYgpkzZ0puxExFUY994403XnjhhcTERGW6ssXcD4PIz88nA+7Tpw+FkZGRITmXFNx1uQamGr+yrVyLlbRjUA1YB1iFXREqy7AKH2NoFQRJxogRI9j2smXLSPRJHWibpKFLly5kGytWrPDz8ztw4AAl1q5dOzw8fMmSJVu2bJGKP9b4+uuv27ZtO3z48K1bt169elVOp41XX321Xbt2lE7lTJ8+ndUyderUjRs37tmzh9StWbNmhYWFLF3GtWpStJo1a65Zs4ZmxwsWLGDByLW4HiVq1KgRFxdHVZ86dUq1TMl5OREREZSyevXq6tWr79q1ixKzsrI2FtOiRQvyOcmNmKkoSieTWLt2LU38V65cKacrW8z9MIhu3bp17dqVMkdHR1N6dna263W5BqYav/IDKNdidWJQDVgHWIVdESrLsAof445VkITVqlWL/Uzv97///eTJk2mDJuZVqlTJzc1leUiPSDIkp6CQ6snnygJE0/m5c+dy6cePH3/ooYe+/fZbOV2GqqNJ7rFjx0hVua/zqladkpLSsGHDixcvKnPKtaseVX5Qo1qm5LwcMhiWSFPsUaNGsW05G6k8Mz9JN2bJWZS8bKK5f5s2beR0ucVKFcaRI0cqV6586dIllk7rBloZSGofQGkFpoxfbiutYlVj0ApYB1iFXREqy7AKH+OOVTgcDpKYdevWZWZm3n///WyuumnTpkqVKoWGhoaEhDRt2jQwMJCmlpJTUJTzSn2roFktnS4nyowdO5Zq7Nix43PPPffwww8nJSUpj6pWTUH+6U9/qlq1avv27WNiYtiXeeTaVY8qJVW1TMl5OfKHb1OmTBk8eDDbJkg3KRu1CdvVj1lyFiVXt3///mrVqsnpcouVKowNGzZQTpZIkIWzj7A4q9AKjItfbiutYlVj0ApYB1iFXREqy7AKH+OOVRCjR48mrY+KiurUqRNL+eKLL0iASub6P0hQDh06JO/qW8WePXsov5zIoGkvLWLkqbq/v//OnTuVGbSqJuiszZs3N2/enE2EuW/1cEeVkqpVpvJySB8HDRrEtvft21ezZk1Z4g1jlpxFyYnJycnBwcFyulxFqcKgpRJVJOcZPnz4W2+9JZW8Lq3AuPilkisw1WJVY9AKWAdYhV0RKsuwCh/jplUcP378gQceqFu37rJly1hKXl5eUFCQrP60y54kl8oq6CzakNPPnz9Pf+nmUiHsjeirVq2iG83JrmrVZ86ckT8zee+995iQybWrHiXPWLt2rVyIa5mShj7SIT8/P5pQs3TJjZglZ1F9+vQpcvL8888PGTJETperKFUY165do3T2hDw7O7tOnTrsaYfyulQDc41fUrSVVrGqMWgFrAOswq4IlWVYhY9x0yqIp5566pFHHmGiw6A5aVhYWOPGjSMiImgeunDhQqmUViE5taxRo0ZNmjQhgevQoYPk/EZNz549aa7asmVL2ggJCXGVXdeqt23bVq1atZZOQkNDjx07JilqUT26fPnywMBAksIFCxaolilp6GNkZGSlSpUaFNO7d293YqaiyB6aNm1K19u2bVv5CQ3XYu6HQSQlJVGl4eHh1atXHzNmDEtUXpdqYK7xSyVXYKrFasWgGrAOsAq7IlSWYRU+xn2r0CInJycjI8PDd9NmZWXJH5ozaJcSlSmucFXn5+d/8803dCL7ghaH/lEZTy5HP2YmtRcvXuSuVBX3w6DLOXnypNLCXdEPTBV3ilXifsD4tbZdESrLsAofg3dAlRvc6qFicvPmTViFXREqy7AKHwOrKDemTZum+tO8CsX3338Pq7ArQmUZVuFjUlJSDH8zBYC3SEtLoy7H90JgC4TKMqzCx9y5cycmJoYf0ACIYdasWdTl+F4IbIFQWYZV+J64uDj5i6QAiOPKlSv4+pONESrLsArfU1hYOGPGDH5YA+BtaP1KnY3vf8AuCJVlWIUp2LZtm+vvAADwIsnJydu3b+d7HrARQmUZVmEWFi1atHfvXn58A+ANaMAuXryY73PAXgiVZViFiVjqhB/lAHjGMid8bwO2Q6gswyrMxeHDhydMmJCWlsYPdwBKD3WkSZMmHT16lO9nwI4IlWVYhem4e/fupk2boqKiaIVR2rdBACA5X9NCnSc6OnrLli3UnfgeBmyKUFmGVZiXixcvrly5MiYmZiZwwc/Pj08CTqjDrFq16tKlS3x/AnZHqCzDKoAlIavgkwCo2AiVZVgFsCSwCgA4hMoyrAJYElgFABxCZRlWASwJrAIADqGyDKsAlgRWAQCHUFmGVQBLAqsAgEOoLMMqgCWBVQDAIVSWYRXAGuTm5ip3OavgjgJQAREqy7AKYA0SExNTU1PlXaVVUDodlXcBqJgIlWVYBbAGDocjNDT04MGDbFe2CvIJSqejP2cFoEIiVJZhFcAyvPPOO/Xq1WNuwayCfKJBgwa9evXiswJQ8RAqy7AKYBnS0tICAgKCg4PJLcgq2HrC398/OTmZzwpAxUOoLMMqgJV46qmnAgMDyS3IKpo1a0ZW0ahRIz4TABUSobIMqwBWIiEhoXXr1n5OIiIi6O9f//pXPhMAFRKhsgyrAFbC4XDQMoJZBeHv719QUMBnAqBCIlSWYRXAYrzzzjuhoaHMKn7/+9/zhwGoqAiVZVgFsBhpaWnNmzdnVoEH2gDICJVlWAWwHk899RT5BB5oA6BEqCzDKoD1SEhI8MMDbQBKIlSWYRUVHUmSPvjggzhLMXXqVLKK999/nz9geqipqcH5ewCANxAqy7AKG0Ji9OKLL+bn5/MHXKCcY8eOvXz5smQ1kpOT+SQrcOXKlfHjx0twCyAAobIMq7Anhw8ffv7553/88Uf+gALJsj5haeAWQBBCZRlWYR+uXr168eJF2R6ys7P//e9/l8zyMxJ8wncYusV///vfe843qxcVFSnT/9//+390y3766SdlIgAMobIMq7ADJDpPPvlkp06dunTp0rFjR5ZYqVKl//znPyUz/g8JPuFr9N2CBtfw4cOffvppf3//BQsWsMSlS5cGBwc/88wzTZo0OXLkSMkzABAry7AKO7Bjx44XX3yRbd+9e5dtaFmFBJ8wBzpuQYNr27ZttJGTk1OnTh3auHTpUo0aNa5du0bbW7ZsadGiBXcKAEJlGVZhBy5cuBAQEDBgwIA1a9bcvHmTJapahQSfMBNabkGD64cffmDblStXpu2tW7d27dqVpfz4448PPvig61mggiNUlmEVNoEcYvPmzQMHDmzYsCF7ROFqFRJ8wnyougUNLnm7atWqdB9pJfHHP/6RpTCrkOcEADCEyjKswg44HA72qJP+0vLi22+/vediFZKuTxQWFt64cYPK4Q/4jmXLlpkqnjJTVFSUmZl5/vx5/kAxrm7hahX4AAoYIlSWYRV2YOPGjY0aNerWrVtERMSQIUNYotIqJF2fIKpXr+7v78/+FcSiRYv4wx7TpUuX0up+gwYNrl+/zqd6QBlicAf9Yk+ePBkaGtq2bds6deqMGTOGP1wM5xauVnHP+Vi7fv36nTt3fuyxx/BYG7giVJZhFTaB1IQWE9x3KxmSkU9ITqs4dOgQbezbt+/BBx/Mzs6mbVpn0F/avnDhAm2QINLsmCUy5Aw055UTiYKCAspJwbBdOvFXv/oV6b58LoV65swZOT/lvKGAnUgLHTkDV6BWva4RKg8pY5BLYJcmlayCMst1SSUj4SI3vDTazcrKkpyeQTnz8/PlQxyuawtX8GVZoINQWYZV2BzJDZ+QFFZBPPLII3RnaYNu8cCBA5988snZs2evXbu2cePGzzzzDC1fNm3axHJSBlrEsJf3ffTRRyxx3rx5NPnt1KkT5WfljBo1inJStg4dOuTm5j7tpGPHjmFhYadPn6YM69evb1PMAw88sHnzZkqkVVFeXp5qgar1qkYow8WgvDTJpYrIyMhhw4axE8+fP0+Nc+3aNdp2jdzw0mSWL19OywtliivuuAUAWgiVZViFcNjrsn0Ip1mqkBru2rWLZr4zZsygbdIsyanIS5cupY1z587VrVuXLTVOnToVGBjIJtGUITExkTa++eab2rVr0wZNzOn0s2fP0vaaNWtIMVn5NKGW590kqWwjJiZGVmQ5hTSXTb2ZVagW6FqvVoRKlDHIlyapxUwtRsXSOoNSYmNjX3vtNZZTNXJ3Lo3aNjg4+NixY3KKFhQMf//KHb4HA4sgVJZhFcLx7dhzOByjR492Z1VBEtmuXbv+/fvv37+fJdItZtq3bt26evXqvVvMo48++q9//YtlkD9RqVy5Mm2TgtO8nqVQ1Q8++CCrWqmnlKdbt25t27Zt1qzZs88+yxIl59qC5t3yJ0LMKlQLdK1XK0IlnFXIsq5axe9+9zuKh1JatGiRkpIi53SN3J1Lo9USuYW8qwXVy55n8HexHPFtdwWeIFSWYRXC8fnYc8ctlB9AydAtZhukgCR2nylgH8jIGYgqVaqQstOsXJZIJrtsgSLraVpaWoMGDWg1QNubNm0iRWaZv/7666CgoBMnTrBdqdgqVAt0rVcrQiWcVcjpqlUkJCT07NkzNTW1YcOG7JBW5IaXJjk/uVJemipm8Il7JuiuoMwIlWVYhXDMMPYM3ULfKs6cOVO7dm3585PvvvuOyyAVS7brhznsaLVq1XJycmhj8+bNHTp0YIkvv/wy09NTp04FBwfv3bv3f2U50f8ASs7G6tWKUIkcg1SyBNUqaM1Ro0aNV155ZcqUKSybauSS0aUxqFh5taSKSXzinjm6KygbQmUZViEck4w9fbfQtwrJubCgWT/J3xNPPEHzd9cMTLIl5yPiunXrduzYsVGjRn93PoUmSHBpeh4aGnr+/PlWrVo9+eSTbdu27d+/P9PTUaNGPfrooy2LoTWBVPKxNlegar2qESqRY2CPtZWHXKsgXn/99fvuu49sjO3SWa6RS0aXxiAbO3DggLzLYR6fuGea7grKgFBZhlUIxzxjT98tDGE/Jfv222/5Ay5w323lYOWwh8Zuol+gjPsRuuJOFYaRG2ZwxVQ+cc9M3RWUFqGyDKsQjqnGnoduAbyL2Xzinsm6KygVQmUZViEcs409uIVJMKFP3DNfdwXuI1SWYRXCMeHYg1v4HHP6xD1TdlfgJkJlGVYhHHOOPbiFDzGtT9wza3cF7iBUlmEV3ic3N1e5y4097qgPgVv4BLP5hFW6KzBEqCzDKrxPYmJiamqqvKsce5ROR+VdnwO3KGfM5hP3LNVdgT5CZRlW4X1If0NDQ+XhJ489SqF0OvpzVhNA8URGRs4E5UJUVJSpfOKednf9xz/+YcLuCnQQKsuwCiG8+eab9evXZ8OPjT3aDg4O7t+/P58VAF/TtWvXhg0bKrsrDW3qwO+88w6fFZgYobIMqxBCWlqav79/o0aNaPjR2KO/TZs2pRTlSh8AkxAfH0+ds1mzZqy70riuV69eQEAAdWM+KzAxQmUZViGKNm3a0PBr3Lgxjb2QkBBaUoSFhfGZADABP/74I3lD27ZtqYtSd6XtJk2aPP3003w+YG6EyjKsQhSLFy+mVQW5BY09tjFr1iw+EwDmYMCAAdRRn3nmGT8nv//97xMSEvhMwNwIlWVYhSgcDgetJNjAI+rWrYsnhMC0ZGdnK/vqY489hu5qOYTKMqxCIG+++WZAQAAbfn379uUPA2AmWrduzfpqp06d8EDbigiVZViFQNLS0mh2xqZpeKANTE58fDyzCvIMPNC2IkJlGVYhljZt2tDYwwNtYH7Yw23qrnigbVGEyjKsQiyLFy+msYcH2sASsIfbeKBtUYTKstmt4ocffkhJSZnlJM6CTJ06lcYe/eUPWARq9p07d96+fZu/MeULBUBhWLQPWIgJEyZYurtaAnFjSqgsm9cqHA4HtWlMTMzBgwf5N+lYiuTkZD7JUqSnp3/00UcffvhhTk4Of5PEQ5VS1RTA4cOH+ciAAKzeXS0BdWYRY0qoLJvUKrZv3z59+nS8xs48FBQULF68mOZEd+7c4e+WGKgimitQpaX6/6MAWAU2pqiTe2tMCZVlM1oFNd+OHTv4dgUmIDs7e/z48eXwYmqqgio6d+4cHwEA9oI6ubfGlFBZNp1VLFmyZO/evXxzAtOQl5c3ceJEr/RsLahwqoIq4usGwI54a0yJk+V7ZrOKw4cPL126lG9IYDKoZ9M8yFurZg4qlgqHT4AKhVfGlCBZZpjIKu7evTthwgS+CYEpOXv27OzZs/lb6A2o2OzsbL4+AOwOdXsPx5QIWZYxkVVs3Ljx0KFDfPsBs5KQkHDu3Dn+LnoGFUjF8jUBUDHwcEyJkGUZE1kF+wdhwCoUFBRMnz6dv4ueMWPGDHzfCVRYqPPTEOBHhduIkGUZs1jFhQsX8JTCctB62Yu/JKKiPvroI74OACoSNATKPKa8LstKzGIVK1euzMrK4psNmJsjR47s2rWLv5dlhYo6evQoXwcAFQkaAmUeU16XZSVmsYqZM2fybQZMz82bNz18EKeEirp16xZfBwAVCRoCZR5TXpdlJWaxihkzZvBt5h6ZmZn5+fnKDXcoVWYrUm4XWOZu7QoVRd7DVwAsRbl1PLviyfTL67KsxDJWMWDAgA4KRo0axdLr1atHYSg33KFUmX3LwoULc3Jy+FQjyu0CvfjSXBohfOkuUDfo2LHjxYsX5ZS//OUv1B+OHTumyGVM2Vq14lDm9im3juchZb5Ad/CwcFiFHoZWERoaOnr06E+LSU1NZely19y7d++VK1dKnKNNqTL7loCAgDKMvXK7wHK2CuoGtWrVmjNnDts9f/58nTp1HnjggQMHDpTMaEDZWrXiUOb2KbeO5yFlvkB38LBwWIUe7liF6jfuZauYNGnS6dOnaWPcuHEkHG+//XbPnj03bNhAy+EpU6bQdmxsbFFRETtLmfngwYNDhw7t3bu3svz169e//vrrPXr0GDlypOqbiOhEqveNN9544YUXEhMTlen79++nAl966SXapRrnzZvXr1+/gQMHUqPJeVQrpVCnTZvWp0+fYcOGZWRkSM7pSdWqVV988UVK+eyzzyS1wKi6YQrYUx/5AlWLlbRjUA1Yh/K3iuHDh7dp04bt0j198803K1WqxKxC9Uol59tSX3nlle7du1OvOHHihGurcnfNtZE5VFuJK4TbVY3Nnd6ixOS9TlJ0PNdiJe0YVANWonViqWqR4S7QnTtFSrJy5Uq5hG3btrGSXVvGndbTB1ahhztWMXXq1CPFyOs71w+gateu3bp1axpI8fHxlStXJpOgpt+yZUtQUNCyZcu4syhzRETEihUrVq9eXb169V27drEMVNfGjRv37NlDd7dZs2aFhYUsXYZOpHSqZe3atTSJkLsRpYeHhy9ZsoRqpF3q+l26dKFlEFXh5+fHFE2r0m7dunXt2pUyR0dHU3p2djblr1GjRlxc3NatW0+dOiWpBZaVlbWxmBYtWvTv318q+TmAa7E6MagGrEP5WwUF3LhxY+oDtEtNTZcpW4XqldJor1mz5po1a2jCu2DBggNOuFbl7pprI5cIQqOVuEK4XdXY3OktSkze6yRFx3MtVicG1YCVaJ1YqlpkuAt0507RbmBgoMPhYCVQ+UxMXFvGndb7ORQ1YBV6uGMVNDZCi5FnMapWIU+4OnfuTBNJth0VFUU9kjuLMpOIsESaBciPQCTnz2FofnTs2DGqNz09XU5n0Inz589n2zSPkOe5lE59jm3TBLZKlSq5ublsl3oMC0C1UtI+MrZLly6xdJqD0ARNUlvMagVG5VOPv3r1qqS4QK1iVWPQClgHn1hFZGQkjTqaOdLAo0RmFVpXmpKS0rBhQ+XjDcmlVZV3jaHVyJJ2K3GFKHe1YnOntygxea+TijueVrGqMWgFrET1xFLVwqG8QHfuFK17goODd+7cKTn/g8tvfvMb+TVlri3jfuupAqvQwx2rUF1LqlqF/CSjb9++ZO9se86cObQg5c5SZp4yZcrgwYPZ9tixY+mmduzY8bnnnnv44YeTkpJYugydKPcGWr1Wq1ZNTpfnRJs2bSIVo8hDQkKaNm1KsxKaOrE8rpXSCpdyskRi8uTJbDnMdTutwGhsUPmZmZlsV75ArWJVY9AKWAefWAWNOortrbfemj59ulRsFVpXSjPBP/3pT1WrVm3fvn1MTAz7fo6rVShnslqNzNBqJa4Q5a5WbO70FiUm73VSccfTKlY1Bq2AlaieWKpaODirMLxTxMSJE9ni6b333hs0aBBLVG0ZN1tPC1iFHt61CvldUmQVpGVsm6yiV69e3FnKzNSrWA8g269Vq5Y8UfL392ezCSV0opyYnJxMMw45XS7wiy++oC7CtpWoVkqTX6pIzjN8+HCSQqlkt9MKbN++fTVr1lTqlHyBWsWqxqAVsA4+sQra6NSp00MPPcQ++WVWoXWlDGq0zZs3N2/eXHXWrGwNrUaW0WolZSHcrlZs7vQWJSbvdVJxx9MqVjUGrYCVqJ5Yqlo4lBfozp2Silc/tDz18/Nj/yhBq2XcaT0dYBV6mMoq6OoonS0wV61aRVfqencpQ58+fYqcPP/880OGDJHT5QKphKCgoLlz58q71Nu4PHKl165dq1380Vl2dnadOnXYJ6ekbmvXrmWZVQOjMqnv0tSM5WHIF6hVrGoMWgHr4Cur+Oc//yn/a09mFVpXeubMGfnzBHk+qGxVqWRrqDaynFPSbiVlIdyuVmzu9BYlJu91UnHH0ypWNQatgJWonliqWjiUF+jOnWJ06NCBNKRJkyZsV7VlJDdajx3SAlahhztW8QsFdDNYugiroHHYs2dPmhq0bNmSNmhd7Hp36UQaqLRebtSoUdu2bb/99ls5XakXJGFhYWGNGzeOiIigCcXChQu5PMquTCtTqjQ8PLx69epjxoxhicuXL6clOXXZBQsWqAYWGRlJWtmgGPYhm3yBWsVqxaAasA6+sgol8mNt1Svdtm1btWrVWjqh09kvMJStKpVsDdVGZodkVFuJu/Xcrmps7vQWJSbvdZKi46kWqxWDasBKtE4sVS1KlBfozp1iUGAkPu+//z7bVW0ZyY3WUxSpAqxCD0OrKH8yMzN1XkvFuhetRpUf1GqRk5OTkZHhzjtTqWOdPHmSzUG00A9MFXeKVeJ+wOVsFYaoXml+fv4333xD7VZU/G1pQ9xpZPdbiaEamys6xaLXuVLaWtyhVGW60zLu5JGBVehhuXdAcTORioknLyFwZTbeAWUEep3t8WRMeV2WlcAqysi0adPc+TWNvfHk1WauUFHff/89XwdQgF5ne2gIlHlMeV2WlZjFKhITE5U/rwWWIC0tLSUlhb+XZYWKogL5OgCoSHgyprwuy0rMYhV5eXnsASOwELNmzfLwH8croaLk7yAAUDHxZEx5XZaVmMUqiMjISPefOgKfc+XKFS8+02ZQgfI30AGoaFDn92RMiZBlGRNZRWpqqvIrzMDkxMTEFBYW8nfRM6hAKpavCYCKgYdjSoQsy5jIKojo6GjuXT3AnCQlJW3fvp2/f96AipV/WwdAxYG6vYdjSpAsM8xlFTdv3hw/fvyNGzf4VgRmgu7+4sWL+ZvnPRISEr5SexM1AHaFOjx1e34klBJBsswwl1UQtKqYMGEC1hamZZkT/rZ5G6pi+fLlfN0A2BHq6l4ZU+Jk+Z4JrYK4detWVFQUnluYjbS0tEmTJh09epS/YWKgiqg6fH0W2BjvjimhsmxGq2AcOnQoMjJy/vz5+L2Fb8nKylq6dGl0dDSZ9927JLOqAwAANktJREFUd/n7JBKqjiqlqikA99+LAIDJETSmhMqyea2Ccf369XXr1sU4mWlN/Pz8+CSLwJp99erVly5d4m9M+XL58mUKw9LdwCpYt7taAnlMUZfme7nHCJVls1uFDaCxxycBYFbQXa2LUFmGVQgHYw9YCHRX6yJUlmEVwsHYAxYC3dW6CJVlWIVwMPaAhUB3tS5CZRlWIRyMPWAh0F2ti1BZhlUIB2MPWAh0V+siVJZhFcLB2AMWAt3VugiVZViF98nNzVXucmOPOwqAqYBVWBehsgyr8D6JiYmpqanyrnLsUTodlXcBMBuwCusiVJZhFd7H4XCEhobKbiGPPUqhdDr6c1YATAaswroIlWVYhRDefPPN+vXrM7dgY4+2g4OD+/fvz2cFwEzAKqyLUFmGVQghLS3N39+/UaNG5BA09uhv06ZNKUX5wRQAJgRWYV2EyjKsQhRt2rShUUduQX/JJ2iRERYWxmcCwGTAKqyLUFmGVYhi8eLFjRs39nMSHBxMS4rZs2fzmQAwGbAK6yJUlmEVonA4HOQQzCqIunXr4oE2MD+wCusiVJZhFQJ58803AwMDmVW88MIL/GEAzAeswroIlWVYhUDS0tIee+wxtqTAA21gCWAV1kWoLMMqxMIebuOBNrAKsArrIlSWYRViWbx4MY09PNAGVgFWYV2EyrK5rOKHH35ISUmZNWtWnJNY6/PBBx/Q2KO//AELwm4K3R26R3Sn+JsHbAGswroIkmWGWazC4XCQBsXExBw8eFCyF8nJyXySxTlw4ADdKbINfKfLfsAqrIvXZVmJKaxi+/bt06dPv3z5Mq9JwMTQ/frwww/p3vG3E1gZWIV18a4sc/jeKhISEnbu3MnrELAIO3bsWLRoEX9TgWWBVVgXL8qyKz62iiVLluzbt4+XH2Ap9u7dS37P31pgTWAV1sVbsqyKL63i8OHDS5cu5YUHWBC6j+np6fwNBhYEVmFdvCLLWvjMKu7evTthwgRecoBlGT9+/H//+1/+NgOrAauwLp7Lsg4+s4pNmzYdOnSI1xtgWehubtiwgb/NwGrAKqyL57Ksg8+sIjo6mhcbYHEiIyN/+ukn/k4DSwGrsC6ey7IOvrGKixcv4imF/aB7+t133/E3G1gKWIV18VCW9fGNVaxcuTIrK4tXGmBx6J6uWLGCv9nAUsAqrIuHsqyPb6wiJiaGlxlgC2bMmMHfbGApYBXWxUNZ1sc3VjFz5kxeY4RRWFiYmZnp85+CUwz5+fmu24aUKrMO3ipHn+nTp/M3G1gKWIV18VCW9TGvVXz22Wc9evQICgpq1qzZgAEDUlNT+Rxu8Pnnn/v7+7dq1crnj0bq1atHzeW6bUipMuvgrXL0gVVYHViFdfFQlvUxqVUkJiZWqVJl2rRpR48ePX369Ny5c19++WU+kxuQx1AhfKovUCr13r17r1y5UvK4JqXKrIO3ytEHVmF1YBXWxUNZ1seMVlFQUED9dcaMGcrEGzdusI38/HxS/z59+gwbNiwjI4Mljhs37uDBg0OHDu3du3dCQgJL/Pjjj4ODgzt16kQ5z549W1RUNG/evH79+g0cOJDil0/cv38/nfjSSy+x3QMHDrz99ts9e/bcsGED1TVlyhTajo2NpdPZKevXr3/99ddpxTNy5Mhz586xRCWqFSmtYtKkSeR/knvVKTO7XqOkFg9d0TAFrLXlcqTStKGkcTlawCqsDqzCungoy/qY0Sq+/PJLKvy7777jDzjp1q1b165dP/300+jo6OrVq2dnZ1Ni7dq1IyIiVqxYsXr1akrctWsXJX799ddt27YdPnz41q1br169SkrXpUsXOpGy0XggjWYnhoeHL1myZMuWLWy3devWtKaJj4+vXLkyqfbs2bPpUFBQ0LJly1gAU6dO3bhx4549e0iamzVrVlhY+HNwTlQrUv0Ayp3qlJldr1FSiycrK2tjMS1atOjfvz8XgPttKGlcjhawCqsDq7AuHsqyPma0inXr1lWpUoVPdXLkyBGS1EuXLrFdmkrTZFlyytyaNWtYIs2UR40axba7d+8+d+5c2jhx4gSVmZuby9JJXkkB2YnkEyyR7ZJws+3OnTvTfJ9tR0VFsfwMWvfQDP3YsWMBAQHp6elyuqRdkZZVGFanzKx6jZJ2PFQ7GSHZpKQop1RtqHU5WsAqrA6swrp4KMv6mNEqkpOTqXBZnpRs2LAhNDRU3p08eTL74IhkTn7uPWXKlMGDB7Nt2So2bdpUqVIlOjckJKRp06aBgYE0U2YnKqfJynL69u0bFxfHtufMmdO7d2+2PXbsWFLkjh07Pvfccw8//HBSUhJLZ2hVpGUVhtWpZlZeo1Y8pPtUe2ZmJtuVyylVG2pdjhawCqsDq7AuHsqyPma0isuXLz/00EPr16/nD0hSSkqKv7+/vDt8+PC33npLcsqc/EYpkrlBgwaxbdkqvvjiC9LT4vN+Rnkit0vaPWvWLLZN2t2rVy/aoDl7rVq12DydoGC4f7ahVZGWVehXp5VZvkatePbt21ezZk2lC8rllKoNtS5HC1iF1YFVWBcPZVkfM1oFMWbMmKCgIFnpTpw4MXXqVNq4du2a/KFNdnZ2nTp15GcMrjInKawiLy+PCmTbbJfK5E7kdlW1my6c8tDptL1q1SpqBM4qtCoSZBWq8VCNNOBpQcAyM+RyStWGWpejBazC6sAqrIuHsqyPSa3C4XBMnjz5kUceCQwMbNy4MU1s4+Pj2aGkpCTaDQ8Pr169OjkKS1SVOUlhFZLzP0KHhYVRaRERETStXrhwIXcit6uq3UVFRT179qQAWrZsSRshISGu/8JPtSJBVqEaT2RkZKVKlRoUwz7LUgZQqjZUvRwtYBVWB1ZhXTyUZX1MahWMGzdufPPNN2fOnOHSSR9PnjzJptKlJScnJyMjo6CggD9QGjIzMw3fYeWVitzEnXg4StuGbl4OrMLqwCqsi4eyrI9vrALvgLIreAeU1YFVWBcPZVkfWAXwJrRe5G82sBSwCuvioSzr4xurWLt2rfwjYWAb6J6uWbOGv9nAUsAqrIuHsqyPb6zi+vXr+k9HgRVZsGBBbm4uf7OBpYBVWBcPZVkf31gFERUVJb/mCNgAuptTpkzhbzOwGrAK6+K5LOvgM6s4dOgQ+zo/sAd0N1NTU/nbDKwGrMK6eC7LOvjMKoj333//4sWLvOQAC0L3kZaJ/A0GFgRWYV28Ista+NIqbt68OWHCBPnt4sCi0B0cP3483U3+BgMLAquwLl6RZS18aRUEzUbJLbC2sC5078gnLly4wN9aYE1gFdbFW7Ksio+tgrh161Z0dPTWrVt5EQKmZ8uWLVFRUXQH+ZsKLAuswrp4UZZd8b1VMNLS0kh05s+fj99bmB+6R3SnIiMjDx06xN9IYHFgFdbF67KsxCxWwbh+/fr69etjY2NjYmJm2gUae3ySZaH7Qndn3bp1dKf4mwdsAazCugiSZYa5rMKWYOwBC4Hual2EyjKsQjgYe8BCoLtaF6GyDKsQDsYesBDortZFqCzDKoSDsQcsBLqrdREqy7AK4WDsAQuB7mpdhMoyrEI4GHteR5KkCRMm0F/+APAYdFfrIlSWYRXCwdjzLuQQ48ePz8rKYv8VnD8MPAPd1boIlWVYhXAw9rwI84mrV6/SxuXLl+EWXgfd1boIlWVYhXAw9ryF0icYcAuvg+5qXYTKMqxCOBh7XsHVJ+AWIkB3tS5CZRlWIRyMPc/R8gkG3MKLoLtaF6GyDKsQDsaeh0i6PsGAW3gLdFfrIlSWYRXCwdhTkpubm5iY6HA4+AMaSG74BKO0bkExUCQUD3+gYoPual2EyjKsQjgYexypqamhoaFvvvlmeno6f6wkkts+wXDTLajeESNGhISE4J+Bu4Lual2EyjKsQjgYe66QRgcFBfn7+7dp0yYhIUF1kSGV0icYOm5BtVBdHTp0CAgICAwMTEpK4nMAdFcrI1SWYRXCwdhThdziscceI9Vu1KgR2cYbb7yhXGRIZfIJhqtbsGUEVdSuXbt69erBJ3RAd7UuQmUZViEcjD0tZLegJiL5bty4MVtksP/XXTafYDC3oHLYMqJFixYRERF+TuAT+qC7WhehsgyrEA5TKFAqVq9ezct/KVm1ahVfKHAPvgcDiyBUlmEVwGew59thYWFMoWh5ERISMnXqVFoNjBs3jlYGvPy7DZ07evTo7777Lj4+ntYTDRs29Pf3Z7UEBQUdOHCADwUA6yNUlmEVwDcwn3jsscf8nB8Kde/eff/+/fJRkvsyuwXzCeWj8vT09D//+c/169cnn4BbALsiVJZhFcAHkE80aNCAZvpsGaH1DagyuIWrT8hQIltkUL1169aFWwCbIVSWYRWgvGHriRdffFG5jFBFKqVb6PiEErbIaNKkCX5XAeyEUFmGVYBypQy/1nbTLdz0CRn8WhvYDKGyDKsAZkdywy1K6xMA2A+hsgyrABZA0nUL+AQA9wTLMqwCWANJwy3gEwAwhMoyrAJYBle3gE8AICNUlmEVwEoo3QI+AYASobIMqwAWg7nF6dOn4RMAKBEqy7AKYD3ILfz8/OATACgRKsuwCmBJ8FY7ADiEyjKsAlgSWAUAHEJlGVYBLAmsAgAOobIMqwCWBFYBAIdQWYZVAEsCqwCAQ6gswyqAJYFVAMAhVJZhFcCSwCoA4BAqy7AKYElgFQBwCJVlWAWwJLAKADiEyjKsAlgSWAUAHEJl2SOrmDNnzlcA+AKyCj4JgIoNCbJJrQIAX0FWwScBAMxmFUVFRX8HwHeQVfBJAIC//53Emddrb1BGqwDAt+BZBQDlCawCWBJYBQDlCawCWBJYBQDlCawCWBJYBQDlCawCWBJYBQDlCawCWBJYBQDlCawCWBJYBQDlCazCjDgcDv6HmOYmKSlpzpw59Jc/IAz8WtsQQd+vBxUTWIUZ+Qo/hjcCv9Y25O9ifrULKiawCjPCrOLjjz/mf4hpVijUcg4Yv9bWQei7gEDFBFZhRphVWGios4DpL39AGHhWoYPl+g8wP7AKM2K5oQ6rMBWW6z/A/MAqzIjrUD9//nxWVpYii7mAVZgK1/4DgIfAKsyI61AfOHDg7373u59zlDvDhw+PiYnhU4uBVZgK1/4DgIfAKsyI61D3uVV07979L3/5C59aDKzCVLj2HwA8BFZhRlyHuo5VLF++vFOnTo8//vhrr72WnZ3NEn/88UdaBLRp06ZDhw6rVq2aP3/+4sWL9U8hxo8fn5SUJO9+8skn7KyFCxcGBAQ0adKkv5MrV67IeRiwClPh2n8A8BBYhRlxHepaVkFqXrly5Tlz5qSkpPTq1atmzZo3btyg9Ojo6EcffZSEfvfu3V27diVhfeONN/RPIcg8Zs2aJRdOrsDOOnLkSOvWrWlhsdnJzZs35TwMWIWpcO0/AHgIrMKMuA51Vav473//W61aNVncaTcoKCgyMvLOnTsPP/xwQkICS//3v/9NfsBEX+sUtqtlFfeMPoB65513KOD9+/fzB4QBq9DBtf8A4CGwCjPiOtRVrSI7O5uyZWRkyCmDBw/u0aNHZmYmpZ89e1ZO/+Mf/8hEX+sUtl02qxg5ciSVSX/5AyKBVejg2n8A8BBYhRlxHeqqVnH8+HHKlpOTI6fQ7L5z584nTpyg9PPnz8vpvXr1YqKvdQrb5qzipZdeMrQKn/jEPViFLq79BwAPgVWYEdehrmoVN2/e/OUvf7ljxw455emnnx4yZMj3339///33b968mSXevXu3fv36TPS1TmHbVMXkyZPlQ23atJGtonfv3u+++658iOErn7gHq9DFtf8A4CGwCjPiOtTJKp544olMBZcuXaL0V155hZYC165do+3ExESygfT0dNp+6623GjVqlJqaevHixffee69q1aqy6GudQowePbpJkyYFBQU//fTTkiVLfvWrX8lnUSHt27fPzc29desWHb3nU5+4B6vQxbX/AOAhsAoz4jrUySp+UZLnnnuO0vPy8mgpcN999z366KNVqlSZM2cOy0+C/vrrr//617+uXr36uHHj+vTpQzbADmmdQpATkIvQioROfOGFF55//nnZKnJycp566inKT1WTUfnWJ+7BKnRx7T8AeAiswoyUdqjTCuPEiRO3b9/mDzi5e/dugwYN4uPjlYlap9CKgVyB1iJcuhKf+8Q9WIUupe0/ABgCqzAjng/1f/3rX0uXLs3IyEhLSxswYEDNmjW99Y9uzOAT92AVunjefwDggFWYEc+H+qlTp7p06dKwYcOmTZv2799f+ZNsTzCJT9yDVejief8BgANWYUaSkpJ+4fxPQV+ZCfY7OzP4xD1YhS5fwSqAt4FVmBH2X8xMiEl84h6sQhdYBfA6sAozYs5VRXm+t8MQWIUOX8EqgLeBVZgRDHVDYBU6oP8ArwOrMCMY6obAKnRA/wFeB1ZhRjDUDYFV6ID+A7wOrMKMYKi7kpubq9zlrII7WsFB/wFeB1ZhRjDUXUlMTExNTZV3lVZB6XRU3gXoP8DrwCrMCIa6Kw6HIzQ0VHYL2SoohdLp6M9ZKzzoP8DrwCrMCIa6KsOHDw8KCmJuwayCths2bNi3b18+a8UG/Qd4HViFGcFQVyUtLc3f379x48bkEGQV9DcsLIxS1q1bx2et2KD/AK8DqzAjGOpatGvXLiAg4LHHHiOrIJ946qmngoOD+UwVHvQf4HVgFWYEQ12LhIQEcghyC7KK7t2709+3336bz1ThQf8BXgdWYUYw1LVwOBwNGjTwU3DlyhU+U4UH/Qd4HViFGcFQ12HYsGHBwcHMJ9q3b88fBug/QACwCjOCoa5DWlpaaGgoswo80FYF/Qd4HViFGcFQ16ddu3bkE3igrQX6D/A6sAozgqGuT0JCgh8eaGuD/gO8DqzCjJhwqP/www8pKSmzzcGHH35IVhEdHc0f8BE7d+68ffs232S+w4T9B1gdWIUZMdVQdzgcpIZxcXFpaWm3bt26efOmZAKSk5P5JB9BbXLkyJGPPvqIDCwnJ4dvPl9gqv4D7AGswoyYZ6jv2LFj5syZV69e5QUSuFBQULB48eJZs2bduXOHb8fyxTz9B9gGWIUZMclQT0hI2LlzJ6+IQJfs7Oxx48b59qXoJuk/wE7AKsyIGYb60qVLv/zyS14IgRvk5eVNmDDBh25hhv4DbAaswoz4fKgfOXJk2bJlvAQCtyG3oLWFrz6J8nn/AfYDVmFGfDvU7969O3HiRF78QCk5e/ZsXFwc37jlgm/7D7AlsAoz4tuhvmnTpkOHDvHKB0rPokWLzp07x7eveHzbf4AtgVWYEd8O9ejoaF7zQJkoKCiYNm0a377i8W3/AbYEVmFGfDjUL168uHTpUl7zQFmJi4sr/1/n+bD/ALsCqzAjPhzqK1euzMrK4gUPlJX09PSdO3fyrSwYH/YfYFdgFWbEh0N95syZvNoBzyj/h9s+7D/ArsAqzIgPh/qMGTN4qXOPzMzM/Px8PrWY06dPFxQU8KlGZ3FccMKnalCqkoUSGxvLt7JgfNh/gF2BVZgRHw51Q6sYMGBABye9e/f+29/+duPGDZZer149Crhk3p+pXbu26req9M/iePfdd0eOHMmnalCqksvGwoULc3Jy+FQXYmJi+FYWjA/7D7ArsAoz4sOhbmgVoaGhEydO3Lt378qVKwMCAiZNmsTSKeXKlSsl8/6MllXon8VhNqugy3enClgFsAGwCjPiw6HujlUkJCSw7aioqLZt27Jt8ozTp0+zbYfDMW/evP79+/ft23f+/PmS0yqSkpKGDh1KaxH5dOVZRUVFdEq/fv0GDhxIly9nyM3NHTduXM+ePWfOnDlixAhmFVqZlchWkZ+fP23atD59+gwbNiwjI4MdvXr16ujRo6nYuLi4tWvXbty4kaWrZn7nnXdkP0tMTNy8ebPkXFJUrVr1xRdfpJyfffYZO6oKrALYAFiFGfHhUC+VVQwYMKBbt25sWzmLf/XVV9u1a7d169ZPP/10+vTpktMqIiIiVqxYsXr16urVq+/atYs7i0S/S5culJ/y+Pn5HThwgGV49tlnSbh37949duzYatWqMavQyqxELpki7Nq1K2WOjo6mqrOzsymxQ4cOpPJU7OTJkylRXqyoZv7Vr3519uxZloGMYcyYMbRBldaoUYOchi7z1KlT7KgqsApgA2AVZsSHQ90dq2jVqlWvXr3ob0hIyOHDh1m6LM3Hjx9/6KGHvv32W+VZZBVr1qxh26S2o0aNYtvsrBMnTlSpUoUWECxx6tSpZAa0QYXTzP3atWssneyHNF0rMwcr+ciRI5UrV7506RJL7NGjB61jUlNTH374YbmEjh07MqtQzSxpWIWED6BARQJWYUZ8ONTdsYp33313w4YNEyZMqFOnzrFjx1i6bBUbN24kCylxjtMqSKDZ9pQpUwYPHsy22VmbNm2qVKkSlUwnNm3aNDAwkBYNdHT9+vXNmzeXCxkyZAhpulZmDlYyxUk55URaQ7z00kv/v727D4rqOv8A/kfaZqLVjK8BTIouThQQlehY8GUmxjZxRASTmDYzMa1pYgy1RodEjPIyIyACaiYxYl0waIRCgBgBI0k09tdocCnpYMQEjNIoVllEWBbGGdI49veUU24uZ/e+7HJdzi7fzx/Mveeee/fCnud89+4bdNiwsDCp8aWXXmJR4bSzHVEBgKgQ0yCWup6okJ6AevXVVxcuXMiWpag4fvw4BYPUn5G/rE1RsWrVKrbM9vr0009p2v2xd59jx45RB2l1xYoVNKcrdeawI1dVVfn7+0uNcXFxq1ev/uSTT+SNsbGxLCqcdqYFutSQXoZZuXIlogKGIESFiAax1F2KisuXL//85z+nCd0ui4rW1lZafvvtt1mf7777zq4VFbRLYGCgtAutnjt3jhZaWlrGjh17+PBhe+8nM0aMGEFzulJnDjsyHYFuuqCgwN77T4foMqisrKytre3BBx986623qJH+1MOGDWNR4bQzLYeGhubm5tLChQsXxo0bJ0UFXfEUFhb+7/aUISrAByAqRDSIpe5SVJANGzbMnz/f3v9lbTr/oKCghx9+mCZTtlU9Kuy9rxLTjDx58uTw8HB6aJ+Tk8M6lJaWjhkz5pFHHqGtUVFRbE5X6iwnHbmyspIe/oeFhY0ePVqa5T///PMZM2ZQy6JFi+hiZcuWLazdaeeioqKRI0dS48yZM5ctWya1v/vuuxMmTKBE2bNnD2txClEBPgBRIaJBLHXNqNCvsbGxoaGBb1XV1NRUX1/Pfa6bVs+ePSt91k/itLNTnZ2d58+fp+sPfkOvWbNmHThwQFp12tlqtdI52Gw2eaNOiArwAYgKEQ1iqRsYFSLLysqKj4/PzMxcsmQJXS7oyRu34Ys9wAcgKkQ0iKU+RL4ukC5Hdu3alZKSkp+ff+PGDX6zofB1geADEBUiGsRSP3TokPQpZRi4U6dOHTt2jP8r32WDOH7AVyEqRDSIpW61WtVfpAWX0FVaT08P/1e+ywZx/ICvQlSIaHBLPTExsbOzk5/zwHVXr171/AsV/xns8QM+CVEhosEt9erqavZ5AhigtLS0jo4O/u979w3u+AGfhKgQ0aCXenJycnNzMz/zgSuOHDlCicv/ZT1i0McP+B5EhYgGvdS7uro2btzo+FEG0OnEiRN79+7l/6yeMujjB3wPokJEIpT6lStXKC1wbeGGvLw8s9nM/0E9SITxAz4GUSEiQUq9u7s7KSkJr1voZ7FYEhIS6Cf/p/QsQcYP+BJEhYiEKvXq6urExMTdu3fj8xZKGhsb6UqCYrW4uPiHH37g/4IeJ9T4Ad+AqBCRgKVutVoLCgoyMjK2icHPz49vGjz5+fmXL1++c+cO/1cbJAKOH/B2iAoRodQ1UVTwTdAH4wcMh6gQEUpdE6JCBcYPGA5RISKUuiZEhQqMHzAcokJEKHVNiAoVGD9gOESFiFDqmhAVKjB+wHCIChGh1DUhKlRg/IDhEBUiQqlrQlSowPgBwyEqRIRSd2S1WuWrXFRwW4c4jB8wHKJCRCh1RwUFBdXV1dKqPCqonbZKq4DxA4ZDVIgIpe7IZrMFBwdLaSFFBbVQO239seuQh/EDhkNUiAil7lRcXFxgYCBLCxYVtGwymZ588km+69CG8QOGQ1SICKXulMViCQgImDx5MiUERQX9DAkJ8ff3Lyoq4rsObRg/YDhEhYhQ6koiIiIoGygtKCpCQ0MjIyMnTpzIdxryMH7AcIgKEaHUlZjN5rCwMLq2oKhYvHgx/VyzZg3facjD+AHDISpEhFJXYrPZTCaTXx+6wmhpaeE7DXkYP2A4RIWIUOoq4uLiJk2axKJi3rx5/GbA+IG7AFEhIpS6CovFEhwczKICL2g7hfEDhkNUiAilri4iIoJyAi9oK8H4AcMhKkSEUldnNpv98IK2MowfMByiQkQDL/Vbt26Vl5fv6JXtc1JTUykqUlJS+A0+gd1rdPfRncjfr/oMfPwAcBAVIhpIqTc1NaWlpe3cubO2trarq8vuo44ePco3+ZDu7u4vv/xy165d6enpdIfy97GWgYwfAKcQFSJyr9R7enroMem+fftu3rzJzz3gndrb23Nzc+lupTuXv7+VuTd+AFQgKkTkRqlbrdaNGzdevHiRn2zA+9GFxaZNm/R/0bob4wdAHaJCRK6WOk0iNJW0trbycwz4ihs3bmzevFlnWrg6fgA0ISpE5FKp9/T00PUEcsLnUVrQAwI9z0S5NH4A9EBUiMilUs/Ozv7222/5eQV80aVLl3bs2MGPAAcujR8APRAVItJf6jR3/PnPf+ZnFPBdubm5dKfz46A//eMHQCdEhYj0l3paWhre7zSktLe3b9u2jR8H/ekfPwA6ISpEpLPUb926lZ2dzc8l4Ot27typ/uk8neMHQD9EhYh0lnp5eXlNTQ0/kYCv+8c//lFRUcGPBhmd4wdAP0SFiHSWelZWFj+LwBDQ3d2t/uK2zvEDoB+iQkQ6S33Qo6KhoaGtrY1vHTyinc9d0tXVhagAD0NUiEhnqWdmZvKziAxNmvOdOXLkCN/VXQ899BCdJN86eDx8Pjk5OU1NTXyrPgPZlyAqwMMQFSLSWerqUWGz2T7qM2LEiLS0NLZs4Jd/nDhx4tq1a3zr4PHw+QQEBLidTAPZl2RnZ/OjQUbn+AHQD1EhIp2lrh4VcqNHjy4vL5dWOzs7d+/evWLFit/97nd0W6xx48aNp06dWrNmzTPPPMNWT58+/fLLL0dHRxcXF9M1SmJiIi3TjdLubJfNmzd/8803rPMXX3xB+8bExJjN5r7bsRcVFT3//PNLly5dv379pUuXpHbJ0aNHn3322aioKLqhc+fO2RXOzWlPxxbpfOy9F1WpqamxsbGvvPJKfX09a3R6nkq3KLd27VophAoKCkpLS+myYPjw4U8//TQd/+OPP7YrHMfpLercVwWiAjwMUSEinaXudlTQfPT444/TFUZ+fr6fnx9FAjWOHz8+LCwsNze3rKyMrc6aNYumxb179953330UEjt27KBNgYGB+/fvZ8eRnvChzuHh4XS09957j26roqKCddi6dev7779//PhxioqQkJCOjo7/nUEvmsHHjh176NAhuhrYs2cPOw2n5+bY07HF3v8JqCVLlixevJiOk5KSQqfErqWcnqfTW+Tcc8890kfiaX5/7bXXqNuYMWOysrI++OCDr7/+2q5wHKe3qHNfFYgK8DBEhYh0lrp7UUEPwIcNG2a1WtkqzeY0T9l7JzXKib49/rtKOcGWFy5cSI/c2XJycjLrb+8fFTRrs0aaSTds2MCWyc2bN+mRfl1dXUBAAPfW3qqqKpPJ1NzcLLUonZtjT8cWu+x8amtrKd6uXr3K2umyhi447M7OU+kWOY5RYe//JJLScRxvkS3r2VcFogI8DFEhIp2l7l5UlJSU3HvvvcHBwVOnTp0yZcqECRPo8ay9d1KTP5il1erqarb85JNPSu+2evPNN2NiYtiyPCqkzomJiS+88AJbfv3112lOXLBgwRNPPDFixIjKykrWzthstueee2748OFz587dvn17W1ub0rk59nRsscvOp7i4mA4i3dCWLVvYs2qO56l0ixzNqFA6juMtsmU9+6pAVICHISpEpLPU3YuKTz/9lOapfpt70aR25swZp6sUFdLHwikqli1bxpblUSF1pglx1apVtEDXEOPGjbt+/Tpr9/f3lz8JJqEOpaWl06ZNowf+SufGyHs6bZHOh6456OakHePi4lavXm13dp7qtyihaxTpVZCVK1c6RoXScRxvkS3r2VcFogI8DFEhIp2l7l5UtLa2BgYGvv3229Iqe03Y8Kig34La2bejHzx4kH4jLiouXLggPUe0bt062kvp3Bx7OrbYZefT0tIyvu8JtIsXLz7wwAPSCzDceSrdIic0NJQ9O0e3S/nHooIiqrCwkHVQOo7jLbJlPfuqQFSAhyEqRKSz1N2LCnvvy6o0902ePDk8PJwefefk5NjvQlR0dnZGR0fT4+WZM2fSwtSpU7moOHz48KhRo2b2Cg4Orqursyucm2NPxxZ7/5e1Kysr6abDwsLod2czu13hPJ3eIqeoqGjkyJF0NLo5+vXZAd99990JEyZQDu3Zs8eucBynt6hzXxWICvAwRIWIdJa6/qhwqqmpqb6+/m5/MW1DQ0NjYyPf2qetre2rr76iPtIbcBnHc3Ps6djCofbz58/r/KdPjrfIsVqtZ8+etdls/Ib+NI+jQv+++AgeeBiiQkQ6S33Qv9gDBgW+2AM8D1EhIp2ljqgYmvB1geB5iAoR6Sz1qqoqzc9qge+xWCx01/OjQUbn+AHQD1EhIp2l3tPTs337dn4iAV+XnZ1Ndz0/GmR0jh8A/RAVItJf6pmZmdJ7RmEouHbtmvrbn/7jyvgB0AlRISL9pd7R0ZGens5PJ+C76DqS7nR+HPSnf/wA6ISoEJFLpf7BBx8Y+C8oQGQVFRUffvghPwIcuDR+APRAVIjI1VLfu3fviRMn+HkFfMvJkyf37dvH3/fOuDp+ADQhKkTkRqnn5ubm5eXxswv4iv29+HtdgRvjB0AdokJE7pV6TU1NQkKCxWLhpxnwZnSHvvHGG7W1tfz9rcy98QOgAlEhIrdL/YcffiguLk5KSqIrDJWv0wDx0d1HdyLdlSUlJbdv3+bvaVVujx8AJYgKEQ281C9fvpyfn5+RkbHNR/n5+fFNPoTuuAMHDly5coW/X/UZ+PgB4CAqRIRS10RRwTdBH4wfMByiQkQodU2IChUYP2A4RIWIUOqaEBUqMH7AcIgKEaHUNSEqVGD8gOEQFSJCqWtCVKjA+AHDISpEhFLXhKhQgfEDhkNUiAilrglRoQLjBwyHqBARSt2R1WqVr3JRwW0d4jB+wHCIChGh1B0VFBRUV1dLq/KooHbaKq0Cxg8YDlEhIpS6I5vNFhwcLKWFFBXUQu209ceuQx7GDxgOUSEilLpTcXFxgYGBLC1YVNCyyWRavnw533Vow/gBwyEqRIRSd8pisQQEBAQFBVFCUFTQz5CQEH9//5KSEr7r0IbxA4ZDVIgIpa4kIiKCsmHy5MkUFaGhoXPmzJk0aRLfacjD+AHDISpEhFJXYjabp0+fTmlBUbFo0SL6GRcXx3ca8jB+wHCIChGh1JXYbDaTyeTXhzIDb5N1hPEDhkNUiAilroIuI6S0mD9/Pr8ZMH7gLkBUiAilrsJisQQHB7OowAvaTmH8gOEQFSJCqauLiIignMAL2kowfsBwiAoRodTVmc1mP7ygrQzjBwyHqBDRQEr91q1b5eXlO3pl+6jU1FSKipSUFH6DD2H3YFVV1ffff8/fx1oGMn4AnEJUiMi9Um9qakpLS9u1a9eXX37Z1dVl92lHjx7lm3xOd3f3mTNnMjMzKTNc+uYS98YPgApEhYhcLfWenh56HGo2m2/evMnPN+D9rl+/npGRceTIEf6OV+Dq+AHQhKgQkUulbrVaExISLl26xE8w4FsqKiro0QB/9zvj0vgB0ANRISL9pU45sXnz5tbWVn5eAV908uTJvLw8fhA40D9+AHRCVIhIZ6n39PTQ9QRyYkjZv39/bW0tPxT60zl+APRDVIhIZ6nv2LHj4sWL/FwCvu6NN964ffs2PxpkdI4fAP0QFSLSU+qXLl0ym838LAJDwJkzZ0pLS/kBIaNn/AC4BFEhIj2lnp6ejvc7DVkpKSn8gJDRM34AXIKoEJFmqd+6dWvnzp38/AFDRl5e3tWrV/lh0Udz/AC4ClEhIs1Sr6ioqK2t5ecPGDIaGxsPHjzID4s+muMHwFWIChFplvqOHTt8/vPYoG779u38sOijOX4AXIWoEJFmqVNU8DOHbg0NDW1tbXyrW6RDGXhMAxl7Vld62ZUPq9Suzr29SEZGBj8s+miOHwBXISpEpFnq2dnZ/MzR38svv5yXlydv+dvf/vb444+3t7c/9NBDdGT5JrdJhzLwmAYy9qz+9Kc/rV+/3q58WKV2de7tZUdUgGchKkSkWeqaUZGZmTlz5kx5y+9///tnn32WFk6cOHHt2jX5JrdJ05yBxzSQsWclRYXSYd2b9JWOpmnbtm38sOijOX4AXIWoEJFmqWtGxXffffezn/2surqarba2tt5///0fffQRLW/evPmbb76x9345K4VHVFQUXYKcO3eO9Vy7dq00cxUUFJSWltJCUVHR888/v3TpUpor5V82JU2O7JinTp16RYYe9tImp41KB5Rs3LiRjvyHP/zhqaeeotOQ2p3ueP369fj4+Ojo6KysrMLCwvfff5+1S78pHe2LL75Ys2ZNTEyM/MMoTo8mZ7VaaV86Mp32H//4RxYV0mE50l+jra0tNTU1NjaWft/6+nq21e2TVIKoAE9CVIhIs9Q1o4LQVEWzG1vev3//xIkTOzs77X0zGk1hY8eOPXToED2q3bNnz+nTp1nPe+6559tvv2XLNNO99tprtLB161aa2o4fP05zZUhISEdHB+vAPQHV2Nj4fp/p06f/5je/sfe+V8exUemAkvHjx1M7hQTNqgEBAQcOHGDtTnecP3/+008/fezYsS1btowePZpN6HbZ6dHRwsPD8/Pz33vvPepQUVGhcjS5X//61/RnpCO//vrro0aN0vkE1JIlSxYvXkzBnJKSQjfHPlHv9kkqQVSAJyEqRKRZ6nqioqysbNy4cexjeo899hjNUKydzU1VVVUmk6m5ubnfPgpRQeg49OC3rq6OJu6amhrWyEUFa7T3TsFhYWH0OFpqcWx0ekAJzZvvvPMOW87JyZk9e7a0iduRrpxGjBhBD//Z1gULFjidhSkUWSP9Uhs2bGDLdoejSe3k73//+/Dhw1taWthqRESEnqiora297777rl69yhrpkoWuGwZ4kk4hKsCTEBUi0ix1PVFhs9lo+vvLX/7S0NDwk5/85Ouvv2btbG6irc899xxNhXPnzt2+fbv0JhynUUGPqelQNME98cQTNOVVVlbKDyVfIDTfTZgwgW6UrTptVDqghOZN6YCnTp2iR/Rs2XHHoqIiSiBpx5deesnpLCw9F5eYmPjCCy+wZcejsXaGjjxt2jRp9cUXX9QTFcXFxcHBwVIjJfQzzzwzkJNUgqgAT0JUiEiz1PVEBYmPj4+KikpOTn700UelRvlMR4/xS0tLaUKkR76shR4RS0/Er1y5kqKCHmvT1Yl0NeDv719eXs6WHaPis88+Gzt2rPR0FsM1qhxQQvOm1Hj06NGJEyfaFXb85JNPaKFvv/8+7eZ0Fj5z5gxrpFl41apVdoWjsWXm2LFjdARpdcWKFXqigi7X5OcTFxe3evVqt09SBaICPAlRISLNUtcZFWfPnv3pT3/64IMP7t+/X2pkc9OFCxekJ0nWrVsnTUyhoaG5ubm0QB1oJqWooJOhWYx91fnBgwfpxJSi4ty5c35+fiUlJWwr49iockAJdaD5tLPX8uXL6RG90o50PUS/4FtvvcU6DBs2TOcs7PRorA/T0tJCCXf48GFapvikyw49UUF70WHZS/EXL1584IEHysrK3D5JFYgK8CREhYg0S11nVJB58+bdf//98v9pweYmmgFHjRo1s1dwcHBdXR3bWlRUNHLkyLCwMGpftmwZRQVN1tHR0QEBAdRCC1OnTlWKiqSkpHvvvXdSn5iYGNrk2KhyQAnNmxQPU6ZMCQoKmjNnzj//+U9qVNrx888/nzFjxujRoxctWkSP/blXZdjRHGdhpaPJ0SXXmDFjHnnkEUpQuj7TExW0UFlZSYelvyGdkvRij3snqQJRAZ6EqBCRZqnrjwoV9FD3q6++amhoYO+MklitVrocsdls8kbq1tjYKG8ZIPUDsnmzubmZe83DrrXjrFmzpLdL6aF+NHvv697012hvb+c3qKI/6fnz55X+65SrJ+kUPoIHnoSoEJFmqQ/kiz28gvwhtqasrKz4+PjMzMwlS5bQY3kxv5vd8JNEVIAnISpEpFnqPv91gampqU4/E+dUfX39rl27UlJS8vPzb9y4wW8Wg+Enia8LBE9CVIhIs9Srqqr0P+gG30PBU1hYyA+LPprjB8BViAoRaZZ6T09PVlYWP3/AkJGTk0OXJvyw6KM5fgBchagQkZ5Sz87O/te//sVPITAEdHZ2JiUl8QNCRs/4AXAJokJEekq9o6ODffUeDDVlZWXV1dX8gJDRM34AXIKoEJHOUv/www81v1QOfExzc3NKSgo/FPrTOX4A9ENUiEh/qe/bt++zzz7jpxPwUe3t7QkJCV1dXfw46E//+AHQCVEhIpdKPa8XP6mAz6HrCcqJK1eu8CPAgUvjB0APRIWIXC312traTZs2WSwWfnYBX1FWVpacnNzd3c3f9864On4ANCEqRORGqd++fbukpCQpKYmuMNS/qQK8SH19/e7du+luVX8dm+PG+AFQh6gQ0UBK/cqVKwcOHMjIyNjm0/z8/Pgm35LRq7CwsLW1lb+PtQxk/AA4hagQEUpdE0UF3wR9MH7AcIgKEaHUNSEqVGD8gOEQFSJCqWtCVKjA+AHDISpEhFLXhKhQgfEDhkNUiAilrglRoQLjBwyHqBARSl0TokIFxg8YDlEhIpS6JkSFCowfMByiQkQodU2IChUYP2A4RIWIUOqaEBUqMH7AcIgKEaHUNSEqVGD8gOEQFSJipf7mm2/+FRRQVPBN0IdGDqICjIWoENFfe6MCVFBU8E3QH6ICDISoEFFnZ+f/gSqKCr4J+qNRxA8sAHchKsAr4bUKAE9CVIBXQlQAeBKiArwSogLAkxAV4JUQFQCehKgAr4SoAPAkRAV4JUQFgCchKsA7WK1W+SoXFdxWADAWogK8Q0FBQXV1tbQqjwpqp63SKgAYDlEB3sFmswUHB0tpIUUFtVA7bf2xKwAYDVEBXiMuLu4Xv/gFSwsWFbQ8adKk2NhYvisAGApRAV7DYrEEBASYTCZKCIoK+hkSEuLv719WVsZ3BQBDISrAm0RGRlI2BAUFUVSEhobOnj2brir4TgBgNEQFeBOz2Txjxgy/Xo8++ij9XLt2Ld8JAIyGqABvYrPZTCYTiwpCVxh4myyAByAqwMvExcWxJ6DIggUL+M0AcBcgKsDLWCyWkJAQFhV4QRvAMxAV4H0iIyMpJ/CCNoDHICrA+5jNZj+8oA3gQYgK8A537typqalJT0+PjY2NiIigqPjlL39Jy9RC7bSV3wEAjIOoAC9w+vTppb1279599uzZlpaWkydP0k9apha2ifrwuwGAQRAVILTbt29v3bp14cKFH3/8Mb9NhrZSH+pJ/fltADBgiAoQF837L7744qpVq7q7u/ltDqgP9aT+SAsAwyEqQFx0lUCzv/6pn3pSf9qL3wAAA4OoAEGdPn164cKFXV1d8sba2tr169fPmzfPZDJFRkbSMrXIO1B/2guvWwAYC1EBIrpz5050dLT89Qm6YkhOTqaQWL58eUhIiKnX7Nmzw8PDt2zZIr/yoL1oX7wnCsBAiAoQUU1NTVRUlLyFcmLZsmXTpk1jISE3ffr0hIQEeWfal44gbwGAgUBUgIjS09PfeecdabW2tnbu3LmhoaF8SvSh6wz5M1G0Lx1BWgWAAUJUgIhiYmLq6uqk1VdffTU6OprPh/5++9vfSv1pXzqCtAoAA4SoABFFRkbKv108IiJi6tSpfDj0RxcWUn/al44grQLAACEqQEQUDP/+97+l1SlTpvDJ4CAoKEjqT/vSEaRVABggRAWIiLuqmDNnDp8MDihOpP64qgAwFqICRMS9VrFu3bqwsDA+HPr71a9+JfXHaxUAxkJUgIgc3wE1Y8YMPhxkgoKC5P/mCO+AAjAWogJE5Pi5ik2bNqm8WXbp0qXyzvhcBYCxEBUgIqef1o6Pj3d8HxRdT1AwfP/991JPfFobwHCIChCU0++AomuFp556in2xx5QpUx577LHS0lJ5B3wHFMDdgKgAceGbZQEEgagAceH/VQAIAlEBQsN/wQMQAaICvIDj/9amRvxvbQCPQVSAd7hz505NTU16enpsbOzcuXNNJhP9pGVqoXa83wngrkJUAACABkQFAABoQFQAAIAGRAUAAGhAVAAAgAZEBQAAaEBUAACABkQFAABoQFQAAICG/wfpeXg0xe0l6gAAAABJRU5ErkJggg==;" vertex="1" parent="1">
          <mxGeometry x="140" y="10" width="526" height="1578" as="geometry" />
        </mxCell>
      </root>
    </mxGraphModel>
  </diagram>
</mxfile>
